solid OpenSCAD_Model
  facet normal -1 0 0
    outer loop
      vertex 4 9 8
      vertex 4 10 9
      vertex 4 10 8
    endloop
  endfacet
  facet normal -1 -0 0
    outer loop
      vertex 4 10 9
      vertex 4 9 8
      vertex 4 9 9
    endloop
  endfacet
  facet normal -0 0 1
    outer loop
      vertex 4 10 9
      vertex 5 9 9
      vertex 5 10 9
    endloop
  endfacet
  facet normal 0 0 1
    outer loop
      vertex 5 9 9
      vertex 4 10 9
      vertex 4 9 9
    endloop
  endfacet
  facet normal -1 0 0
    outer loop
      vertex 5 13 7
      vertex 5 12 8
      vertex 5 13 8
    endloop
  endfacet
  facet normal -1 0 0
    outer loop
      vertex 5 11 7
      vertex 5 12 8
      vertex 5 13 7
    endloop
  endfacet
  facet normal -1 0 0
    outer loop
      vertex 5 11 8
      vertex 5 12 8
      vertex 5 11 7
    endloop
  endfacet
  facet normal -1 0 0
    outer loop
      vertex 5 12 8
      vertex 5 11 8
      vertex 5 12 9
    endloop
  endfacet
  facet normal -1 0 0
    outer loop
      vertex 5 11 8
      vertex 5 11 9
      vertex 5 12 9
    endloop
  endfacet
  facet normal -1 0 0
    outer loop
      vertex 5 10 9
      vertex 5 11 9
      vertex 5 11 8
    endloop
  endfacet
  facet normal -1 0 0
    outer loop
      vertex 5 10 9
      vertex 5 11 8
      vertex 5 10 8
    endloop
  endfacet
  facet normal -1 0 0
    outer loop
      vertex 5 11 9
      vertex 5 10 9
      vertex 5 11 10
    endloop
  endfacet
  facet normal -1 0 0
    outer loop
      vertex 5 9 10
      vertex 5 10 9
      vertex 5 9 9
    endloop
  endfacet
  facet normal -1 0 0
    outer loop
      vertex 5 10 9
      vertex 5 9 10
      vertex 5 11 10
    endloop
  endfacet
  facet normal -1 0 0
    outer loop
      vertex 5 8 6
      vertex 5 9 6
      vertex 5 9 5
    endloop
  endfacet
  facet normal -1 0 0
    outer loop
      vertex 5 9 6
      vertex 5 8 6
      vertex 5 9 8
    endloop
  endfacet
  facet normal -1 0 0
    outer loop
      vertex 5 8 6
      vertex 5 9 5
      vertex 5 8 5
    endloop
  endfacet
  facet normal -1 0 0
    outer loop
      vertex 5 7 7
      vertex 5 9 8
      vertex 5 8 6
    endloop
  endfacet
  facet normal -1 0 0
    outer loop
      vertex 5 7 7
      vertex 5 8 6
      vertex 5 7 6
    endloop
  endfacet
  facet normal -1 -0 0
    outer loop
      vertex 5 9 8
      vertex 5 7 7
      vertex 5 9 9
    endloop
  endfacet
  facet normal -1 0 0
    outer loop
      vertex 5 6 9
      vertex 5 7 7
      vertex 5 6 7
    endloop
  endfacet
  facet normal -1 0 0
    outer loop
      vertex 5 7 7
      vertex 5 6 9
      vertex 5 9 9
    endloop
  endfacet
  facet normal -1 0 0
    outer loop
      vertex 5 9 6
      vertex 5 10 7
      vertex 5 10 6
    endloop
  endfacet
  facet normal -1 0 0
    outer loop
      vertex 5 9 8
      vertex 5 10 7
      vertex 5 9 6
    endloop
  endfacet
  facet normal -1 0 0
    outer loop
      vertex 5 10 7
      vertex 5 9 8
      vertex 5 10 8
    endloop
  endfacet
  facet normal 0 1 -0
    outer loop
      vertex 5 10 8
      vertex 4 10 9
      vertex 5 10 9
    endloop
  endfacet
  facet normal 0 1 0
    outer loop
      vertex 4 10 9
      vertex 5 10 8
      vertex 4 10 8
    endloop
  endfacet
  facet normal 0 0 -1
    outer loop
      vertex 4 9 8
      vertex 5 10 8
      vertex 5 9 8
    endloop
  endfacet
  facet normal -0 0 -1
    outer loop
      vertex 5 10 8
      vertex 4 9 8
      vertex 4 10 8
    endloop
  endfacet
  facet normal 0 -1 0
    outer loop
      vertex 4 9 8
      vertex 5 9 9
      vertex 4 9 9
    endloop
  endfacet
  facet normal 0 -1 -0
    outer loop
      vertex 5 9 9
      vertex 4 9 8
      vertex 5 9 8
    endloop
  endfacet
  facet normal -1 0 0
    outer loop
      vertex 4 10 7
      vertex 4 11 8
      vertex 4 11 7
    endloop
  endfacet
  facet normal -1 -0 0
    outer loop
      vertex 4 11 8
      vertex 4 10 7
      vertex 4 10 8
    endloop
  endfacet
  facet normal -0 0 1
    outer loop
      vertex 4 11 8
      vertex 5 10 8
      vertex 5 11 8
    endloop
  endfacet
  facet normal 0 0 1
    outer loop
      vertex 5 10 8
      vertex 4 11 8
      vertex 4 10 8
    endloop
  endfacet
  facet normal 0 0 -1
    outer loop
      vertex 4 10 7
      vertex 5 11 7
      vertex 5 10 7
    endloop
  endfacet
  facet normal -0 0 -1
    outer loop
      vertex 5 11 7
      vertex 4 10 7
      vertex 4 11 7
    endloop
  endfacet
  facet normal 0 0 -1
    outer loop
      vertex 7 10 7
      vertex 6 13 7
      vertex 7 14 7
    endloop
  endfacet
  facet normal 0 0 -1
    outer loop
      vertex 5 11 7
      vertex 7 10 7
      vertex 5 10 7
    endloop
  endfacet
  facet normal 0 0 -1
    outer loop
      vertex 7 10 7
      vertex 5 11 7
      vertex 6 13 7
    endloop
  endfacet
  facet normal -0 0 -1
    outer loop
      vertex 6 13 7
      vertex 5 11 7
      vertex 5 13 7
    endloop
  endfacet
  facet normal -0 0 -1
    outer loop
      vertex 7 14 7
      vertex 6 13 7
      vertex 6 14 7
    endloop
  endfacet
  facet normal 0 -1 0
    outer loop
      vertex 4 10 7
      vertex 5 10 8
      vertex 4 10 8
    endloop
  endfacet
  facet normal 0 -1 -0
    outer loop
      vertex 5 10 8
      vertex 4 10 7
      vertex 5 10 7
    endloop
  endfacet
  facet normal 0 1 -0
    outer loop
      vertex 6 11 9
      vertex 5 11 10
      vertex 6 11 10
    endloop
  endfacet
  facet normal 0 1 0
    outer loop
      vertex 5 11 10
      vertex 6 11 9
      vertex 5 11 9
    endloop
  endfacet
  facet normal 0 1 -0
    outer loop
      vertex 5 11 7
      vertex 4 11 8
      vertex 5 11 8
    endloop
  endfacet
  facet normal 0 1 0
    outer loop
      vertex 4 11 8
      vertex 5 11 7
      vertex 4 11 7
    endloop
  endfacet
  facet normal -1 0 0
    outer loop
      vertex 6 12 8
      vertex 6 13 9
      vertex 6 13 8
    endloop
  endfacet
  facet normal -1 -0 0
    outer loop
      vertex 6 13 9
      vertex 6 12 8
      vertex 6 12 9
    endloop
  endfacet
  facet normal -1 0 0
    outer loop
      vertex 6 13 7
      vertex 6 14 8
      vertex 6 14 7
    endloop
  endfacet
  facet normal -1 -0 0
    outer loop
      vertex 6 14 8
      vertex 6 13 7
      vertex 6 13 8
    endloop
  endfacet
  facet normal -1 0 0
    outer loop
      vertex 6 11 9
      vertex 6 12 10
      vertex 6 12 9
    endloop
  endfacet
  facet normal -1 -0 0
    outer loop
      vertex 6 12 10
      vertex 6 11 9
      vertex 6 11 10
    endloop
  endfacet
  facet normal -1 0 0
    outer loop
      vertex 6 9 5
      vertex 6 10 6
      vertex 6 10 5
    endloop
  endfacet
  facet normal -1 -0 0
    outer loop
      vertex 6 10 6
      vertex 6 9 5
      vertex 6 9 6
    endloop
  endfacet
  facet normal -1 0 0
    outer loop
      vertex 6 7 9
      vertex 6 8 10
      vertex 6 8 9
    endloop
  endfacet
  facet normal -1 -0 0
    outer loop
      vertex 6 8 10
      vertex 6 7 9
      vertex 6 7 10
    endloop
  endfacet
  facet normal -1 0 0
    outer loop
      vertex 6 7 5
      vertex 6 8 6
      vertex 6 8 5
    endloop
  endfacet
  facet normal -1 -0 0
    outer loop
      vertex 6 8 6
      vertex 6 7 5
      vertex 6 7 6
    endloop
  endfacet
  facet normal -1 0 0
    outer loop
      vertex 6 6 6
      vertex 6 7 7
      vertex 6 7 6
    endloop
  endfacet
  facet normal -1 -0 0
    outer loop
      vertex 6 7 7
      vertex 6 6 6
      vertex 6 6 7
    endloop
  endfacet
  facet normal 0 0 -1
    outer loop
      vertex 5 6 7
      vertex 6 7 7
      vertex 6 6 7
    endloop
  endfacet
  facet normal -0 0 -1
    outer loop
      vertex 6 7 7
      vertex 5 6 7
      vertex 5 7 7
    endloop
  endfacet
  facet normal 0 -1 0
    outer loop
      vertex 6 6 7
      vertex 7 6 9
      vertex 5 6 9
    endloop
  endfacet
  facet normal 0 -1 0
    outer loop
      vertex 7 6 9
      vertex 8 6 8
      vertex 8 6 9
    endloop
  endfacet
  facet normal 0 -1 0
    outer loop
      vertex 8 6 9
      vertex 8 6 8
      vertex 9 6 9
    endloop
  endfacet
  facet normal 0 -1 0
    outer loop
      vertex 6 6 7
      vertex 5 6 9
      vertex 5 6 7
    endloop
  endfacet
  facet normal 0 -1 -0
    outer loop
      vertex 7 6 9
      vertex 6 6 7
      vertex 8 6 8
    endloop
  endfacet
  facet normal 0 -1 0
    outer loop
      vertex 8 6 6
      vertex 6 6 7
      vertex 6 6 6
    endloop
  endfacet
  facet normal 0 -1 0
    outer loop
      vertex 6 6 7
      vertex 8 6 6
      vertex 8 6 8
    endloop
  endfacet
  facet normal 0 -1 0
    outer loop
      vertex 7 6 9
      vertex 8 6 10
      vertex 7 6 10
    endloop
  endfacet
  facet normal 0 -1 -0
    outer loop
      vertex 8 6 10
      vertex 7 6 9
      vertex 8 6 9
    endloop
  endfacet
  facet normal 0 -1 0
    outer loop
      vertex 9 6 9
      vertex 10 6 10
      vertex 9 6 10
    endloop
  endfacet
  facet normal 0 -1 0
    outer loop
      vertex 10 6 8
      vertex 9 6 9
      vertex 8 6 8
    endloop
  endfacet
  facet normal 0 -1 0
    outer loop
      vertex 9 6 9
      vertex 10 6 8
      vertex 10 6 10
    endloop
  endfacet
  facet normal 0 -1 0
    outer loop
      vertex 5 7 6
      vertex 6 7 7
      vertex 5 7 7
    endloop
  endfacet
  facet normal 0 -1 -0
    outer loop
      vertex 6 7 7
      vertex 5 7 6
      vertex 6 7 6
    endloop
  endfacet
  facet normal 0 0 1
    outer loop
      vertex 7 9 9
      vertex 6 8 9
      vertex 7 8 9
    endloop
  endfacet
  facet normal 0 0 1
    outer loop
      vertex 6 8 9
      vertex 5 9 9
      vertex 6 7 9
    endloop
  endfacet
  facet normal -0 0 1
    outer loop
      vertex 5 9 9
      vertex 6 8 9
      vertex 7 9 9
    endloop
  endfacet
  facet normal -0 0 1
    outer loop
      vertex 6 7 9
      vertex 7 6 9
      vertex 7 7 9
    endloop
  endfacet
  facet normal 0 0 1
    outer loop
      vertex 6 7 9
      vertex 5 6 9
      vertex 7 6 9
    endloop
  endfacet
  facet normal 0 0 1
    outer loop
      vertex 5 6 9
      vertex 6 7 9
      vertex 5 9 9
    endloop
  endfacet
  facet normal 0 0 -1
    outer loop
      vertex 5 7 6
      vertex 6 8 6
      vertex 6 7 6
    endloop
  endfacet
  facet normal -0 0 -1
    outer loop
      vertex 6 8 6
      vertex 5 7 6
      vertex 5 8 6
    endloop
  endfacet
  facet normal 0 0 -1
    outer loop
      vertex 5 9 6
      vertex 6 10 6
      vertex 6 9 6
    endloop
  endfacet
  facet normal -0 0 -1
    outer loop
      vertex 6 10 6
      vertex 5 9 6
      vertex 5 10 6
    endloop
  endfacet
  facet normal 0 1 -0
    outer loop
      vertex 6 9 5
      vertex 5 9 6
      vertex 6 9 6
    endloop
  endfacet
  facet normal 0 1 0
    outer loop
      vertex 5 9 6
      vertex 6 9 5
      vertex 5 9 5
    endloop
  endfacet
  facet normal 0 0 -1
    outer loop
      vertex 5 8 5
      vertex 6 9 5
      vertex 6 8 5
    endloop
  endfacet
  facet normal -0 0 -1
    outer loop
      vertex 6 9 5
      vertex 5 8 5
      vertex 5 9 5
    endloop
  endfacet
  facet normal 0 0 -1
    outer loop
      vertex 8 10 5
      vertex 9 11 5
      vertex 9 10 5
    endloop
  endfacet
  facet normal -0 0 -1
    outer loop
      vertex 9 11 5
      vertex 8 10 5
      vertex 9 12 5
    endloop
  endfacet
  facet normal -0 0 -1
    outer loop
      vertex 9 12 5
      vertex 8 10 5
      vertex 8 13 5
    endloop
  endfacet
  facet normal 0 0 -1
    outer loop
      vertex 9 12 5
      vertex 8 13 5
      vertex 9 14 5
    endloop
  endfacet
  facet normal -0 0 -1
    outer loop
      vertex 9 14 5
      vertex 8 13 5
      vertex 8 14 5
    endloop
  endfacet
  facet normal 0 0 -1
    outer loop
      vertex 9 11 5
      vertex 11 12 5
      vertex 11 11 5
    endloop
  endfacet
  facet normal -0 0 -1
    outer loop
      vertex 11 12 5
      vertex 9 11 5
      vertex 9 12 5
    endloop
  endfacet
  facet normal 0 0 -1
    outer loop
      vertex 7 10 5
      vertex 8 10 5
      vertex 8 8 5
    endloop
  endfacet
  facet normal 0 0 -1
    outer loop
      vertex 7 10 5
      vertex 8 8 5
      vertex 7 8 5
    endloop
  endfacet
  facet normal 0 0 -1
    outer loop
      vertex 8 10 5
      vertex 7 10 5
      vertex 8 13 5
    endloop
  endfacet
  facet normal -0 0 -1
    outer loop
      vertex 8 13 5
      vertex 7 10 5
      vertex 7 13 5
    endloop
  endfacet
  facet normal 0 0 -1
    outer loop
      vertex 6 8 5
      vertex 7 8 5
      vertex 7 7 5
    endloop
  endfacet
  facet normal 0 0 -1
    outer loop
      vertex 6 8 5
      vertex 7 7 5
      vertex 6 7 5
    endloop
  endfacet
  facet normal 0 0 -1
    outer loop
      vertex 6 9 5
      vertex 7 8 5
      vertex 6 8 5
    endloop
  endfacet
  facet normal 0 0 -1
    outer loop
      vertex 7 8 5
      vertex 6 9 5
      vertex 7 10 5
    endloop
  endfacet
  facet normal -0 0 -1
    outer loop
      vertex 7 10 5
      vertex 6 9 5
      vertex 6 10 5
    endloop
  endfacet
  facet normal 0 -1 0
    outer loop
      vertex 5 8 5
      vertex 6 8 6
      vertex 5 8 6
    endloop
  endfacet
  facet normal 0 -1 -0
    outer loop
      vertex 6 8 6
      vertex 5 8 5
      vertex 6 8 5
    endloop
  endfacet
  facet normal 0 -1 0
    outer loop
      vertex 5 9 9
      vertex 7 9 10
      vertex 5 9 10
    endloop
  endfacet
  facet normal 0 -1 -0
    outer loop
      vertex 7 9 10
      vertex 5 9 9
      vertex 7 9 9
    endloop
  endfacet
  facet normal 0 1 -0
    outer loop
      vertex 11 10 9
      vertex 10 10 10
      vertex 11 10 10
    endloop
  endfacet
  facet normal 0 1 0
    outer loop
      vertex 10 10 10
      vertex 11 10 9
      vertex 10 10 9
    endloop
  endfacet
  facet normal 0 -1 0
    outer loop
      vertex 8 10 8
      vertex 10 10 7
      vertex 11 10 8
    endloop
  endfacet
  facet normal 0 -1 0
    outer loop
      vertex 8 10 8
      vertex 9 10 6
      vertex 10 10 7
    endloop
  endfacet
  facet normal 0 -1 0
    outer loop
      vertex 8 10 5
      vertex 9 10 6
      vertex 8 10 8
    endloop
  endfacet
  facet normal 0 -1 -0
    outer loop
      vertex 9 10 6
      vertex 8 10 5
      vertex 9 10 5
    endloop
  endfacet
  facet normal 0 -1 -0
    outer loop
      vertex 11 10 8
      vertex 10 10 7
      vertex 11 10 7
    endloop
  endfacet
  facet normal 0 -1 -0
    outer loop
      vertex 10 10 7
      vertex 9 10 6
      vertex 10 10 6
    endloop
  endfacet
  facet normal 0 1 -0
    outer loop
      vertex 8 10 10
      vertex 7 10 11
      vertex 8 10 11
    endloop
  endfacet
  facet normal 0 1 0
    outer loop
      vertex 7 10 11
      vertex 8 10 10
      vertex 7 10 10
    endloop
  endfacet
  facet normal 0 1 0
    outer loop
      vertex 7 10 7
      vertex 6 10 6
      vertex 5 10 7
    endloop
  endfacet
  facet normal 0 1 -0
    outer loop
      vertex 7 10 5
      vertex 6 10 6
      vertex 7 10 7
    endloop
  endfacet
  facet normal 0 1 0
    outer loop
      vertex 6 10 6
      vertex 7 10 5
      vertex 6 10 5
    endloop
  endfacet
  facet normal 0 1 0
    outer loop
      vertex 5 10 7
      vertex 6 10 6
      vertex 5 10 6
    endloop
  endfacet
  facet normal -0 0 1
    outer loop
      vertex 6 8 10
      vertex 7 7 10
      vertex 7 8 10
    endloop
  endfacet
  facet normal 0 0 1
    outer loop
      vertex 7 7 10
      vertex 6 8 10
      vertex 6 7 10
    endloop
  endfacet
  facet normal 0 0 1
    outer loop
      vertex 7 12 10
      vertex 8 12 10
      vertex 8 13 10
    endloop
  endfacet
  facet normal 0 0 1
    outer loop
      vertex 8 12 10
      vertex 7 12 10
      vertex 8 11 10
    endloop
  endfacet
  facet normal 0 0 1
    outer loop
      vertex 7 12 10
      vertex 8 13 10
      vertex 7 13 10
    endloop
  endfacet
  facet normal 0 0 1
    outer loop
      vertex 7 10 10
      vertex 8 11 10
      vertex 7 12 10
    endloop
  endfacet
  facet normal 0 0 1
    outer loop
      vertex 8 11 10
      vertex 7 10 10
      vertex 8 10 10
    endloop
  endfacet
  facet normal -0 0 1
    outer loop
      vertex 6 11 10
      vertex 7 10 10
      vertex 7 12 10
    endloop
  endfacet
  facet normal 0 0 1
    outer loop
      vertex 6 11 10
      vertex 7 12 10
      vertex 6 12 10
    endloop
  endfacet
  facet normal 0 0 1
    outer loop
      vertex 5 9 10
      vertex 7 10 10
      vertex 6 11 10
    endloop
  endfacet
  facet normal 0 0 1
    outer loop
      vertex 5 9 10
      vertex 6 11 10
      vertex 5 11 10
    endloop
  endfacet
  facet normal 0 0 1
    outer loop
      vertex 7 10 10
      vertex 5 9 10
      vertex 7 9 10
    endloop
  endfacet
  facet normal -0 0 1
    outer loop
      vertex 8 8 10
      vertex 9 7 10
      vertex 9 8 10
    endloop
  endfacet
  facet normal 0 0 1
    outer loop
      vertex 9 7 10
      vertex 8 8 10
      vertex 8 7 10
    endloop
  endfacet
  facet normal -0 0 1
    outer loop
      vertex 8 10 10
      vertex 9 9 10
      vertex 9 10 10
    endloop
  endfacet
  facet normal 0 0 1
    outer loop
      vertex 9 9 10
      vertex 8 10 10
      vertex 8 9 10
    endloop
  endfacet
  facet normal -0 0 1
    outer loop
      vertex 9 11 10
      vertex 10 10 10
      vertex 10 12 10
    endloop
  endfacet
  facet normal 0 0 1
    outer loop
      vertex 9 9 10
      vertex 10 10 10
      vertex 9 10 10
    endloop
  endfacet
  facet normal 0 0 1
    outer loop
      vertex 10 10 10
      vertex 9 11 10
      vertex 9 10 10
    endloop
  endfacet
  facet normal -0 0 1
    outer loop
      vertex 8 12 10
      vertex 9 11 10
      vertex 10 12 10
    endloop
  endfacet
  facet normal 0 0 1
    outer loop
      vertex 9 11 10
      vertex 8 12 10
      vertex 8 11 10
    endloop
  endfacet
  facet normal -0 0 1
    outer loop
      vertex 10 10 10
      vertex 11 8 10
      vertex 11 10 10
    endloop
  endfacet
  facet normal 0 0 1
    outer loop
      vertex 11 8 10
      vertex 10 10 10
      vertex 10 8 10
    endloop
  endfacet
  facet normal 0 0 1
    outer loop
      vertex 10 10 10
      vertex 9 9 10
      vertex 10 8 10
    endloop
  endfacet
  facet normal 0 0 1
    outer loop
      vertex 9 8 10
      vertex 10 8 10
      vertex 9 9 10
    endloop
  endfacet
  facet normal 0 0 1
    outer loop
      vertex 9 7 10
      vertex 10 8 10
      vertex 9 8 10
    endloop
  endfacet
  facet normal 0 0 1
    outer loop
      vertex 10 8 10
      vertex 9 7 10
      vertex 10 6 10
    endloop
  endfacet
  facet normal 0 0 1
    outer loop
      vertex 10 6 10
      vertex 9 7 10
      vertex 9 6 10
    endloop
  endfacet
  facet normal 0 0 1
    outer loop
      vertex 7 8 10
      vertex 8 8 10
      vertex 8 9 10
    endloop
  endfacet
  facet normal 0 0 1
    outer loop
      vertex 8 8 10
      vertex 7 8 10
      vertex 8 7 10
    endloop
  endfacet
  facet normal 0 0 1
    outer loop
      vertex 7 8 10
      vertex 8 9 10
      vertex 7 9 10
    endloop
  endfacet
  facet normal 0 0 1
    outer loop
      vertex 7 7 10
      vertex 8 7 10
      vertex 7 8 10
    endloop
  endfacet
  facet normal 0 0 1
    outer loop
      vertex 8 7 10
      vertex 7 7 10
      vertex 8 6 10
    endloop
  endfacet
  facet normal 0 0 1
    outer loop
      vertex 8 6 10
      vertex 7 7 10
      vertex 7 6 10
    endloop
  endfacet
  facet normal 0 1 -0
    outer loop
      vertex 6 12 8
      vertex 5 12 9
      vertex 6 12 9
    endloop
  endfacet
  facet normal 0 1 0
    outer loop
      vertex 5 12 9
      vertex 6 12 8
      vertex 5 12 8
    endloop
  endfacet
  facet normal -0 0 1
    outer loop
      vertex 5 12 9
      vertex 6 11 9
      vertex 6 12 9
    endloop
  endfacet
  facet normal 0 0 1
    outer loop
      vertex 6 11 9
      vertex 5 12 9
      vertex 5 11 9
    endloop
  endfacet
  facet normal -0 0 1
    outer loop
      vertex 5 13 8
      vertex 6 12 8
      vertex 6 13 8
    endloop
  endfacet
  facet normal 0 0 1
    outer loop
      vertex 6 12 8
      vertex 5 13 8
      vertex 5 12 8
    endloop
  endfacet
  facet normal 0 1 -0
    outer loop
      vertex 6 13 7
      vertex 5 13 8
      vertex 6 13 8
    endloop
  endfacet
  facet normal 0 1 0
    outer loop
      vertex 5 13 8
      vertex 6 13 7
      vertex 5 13 7
    endloop
  endfacet
  facet normal -1 0 0
    outer loop
      vertex 7 13 5
      vertex 7 10 5
      vertex 7 13 6
    endloop
  endfacet
  facet normal -1 0 0
    outer loop
      vertex 7 13 6
      vertex 7 14 7
      vertex 7 14 6
    endloop
  endfacet
  facet normal -1 0 0
    outer loop
      vertex 7 10 7
      vertex 7 13 6
      vertex 7 10 5
    endloop
  endfacet
  facet normal -1 0 0
    outer loop
      vertex 7 13 6
      vertex 7 10 7
      vertex 7 14 7
    endloop
  endfacet
  facet normal -1 0 0
    outer loop
      vertex 7 12 9
      vertex 7 13 10
      vertex 7 13 9
    endloop
  endfacet
  facet normal -1 -0 0
    outer loop
      vertex 7 13 10
      vertex 7 12 9
      vertex 7 12 10
    endloop
  endfacet
  facet normal -1 0 0
    outer loop
      vertex 7 9 10
      vertex 7 10 11
      vertex 7 10 10
    endloop
  endfacet
  facet normal -1 -0 0
    outer loop
      vertex 7 10 11
      vertex 7 9 10
      vertex 7 9 11
    endloop
  endfacet
  facet normal -1 0 0
    outer loop
      vertex 7 8 9
      vertex 7 9 10
      vertex 7 9 9
    endloop
  endfacet
  facet normal -1 -0 0
    outer loop
      vertex 7 9 10
      vertex 7 8 9
      vertex 7 8 10
    endloop
  endfacet
  facet normal 1 -0 0
    outer loop
      vertex 7 7 6
      vertex 7 8 5
      vertex 7 8 6
    endloop
  endfacet
  facet normal 1 0 0
    outer loop
      vertex 7 8 5
      vertex 7 7 6
      vertex 7 7 5
    endloop
  endfacet
  facet normal -1 0 0
    outer loop
      vertex 7 6 9
      vertex 7 7 10
      vertex 7 7 9
    endloop
  endfacet
  facet normal -1 -0 0
    outer loop
      vertex 7 7 10
      vertex 7 6 9
      vertex 7 6 10
    endloop
  endfacet
  facet normal 0 -1 0
    outer loop
      vertex 6 7 9
      vertex 7 7 10
      vertex 6 7 10
    endloop
  endfacet
  facet normal 0 -1 -0
    outer loop
      vertex 7 7 10
      vertex 6 7 9
      vertex 7 7 9
    endloop
  endfacet
  facet normal 0 -1 0
    outer loop
      vertex 6 7 5
      vertex 7 7 6
      vertex 6 7 6
    endloop
  endfacet
  facet normal 0 -1 -0
    outer loop
      vertex 7 7 6
      vertex 6 7 5
      vertex 7 7 5
    endloop
  endfacet
  facet normal 0 0 -1
    outer loop
      vertex 8 6 6
      vertex 7 7 6
      vertex 8 8 6
    endloop
  endfacet
  facet normal 0 0 -1
    outer loop
      vertex 6 6 6
      vertex 7 7 6
      vertex 8 6 6
    endloop
  endfacet
  facet normal -0 0 -1
    outer loop
      vertex 7 7 6
      vertex 6 6 6
      vertex 6 7 6
    endloop
  endfacet
  facet normal -0 0 -1
    outer loop
      vertex 8 8 6
      vertex 7 7 6
      vertex 7 8 6
    endloop
  endfacet
  facet normal 0 1 -0
    outer loop
      vertex 7 8 9
      vertex 6 8 10
      vertex 7 8 10
    endloop
  endfacet
  facet normal 0 1 0
    outer loop
      vertex 6 8 10
      vertex 7 8 9
      vertex 6 8 9
    endloop
  endfacet
  facet normal 0 1 -0
    outer loop
      vertex 7 12 9
      vertex 6 12 10
      vertex 7 12 10
    endloop
  endfacet
  facet normal 0 1 0
    outer loop
      vertex 6 12 10
      vertex 7 12 9
      vertex 6 12 9
    endloop
  endfacet
  facet normal 0 1 -0
    outer loop
      vertex 8 13 9
      vertex 7 13 10
      vertex 8 13 10
    endloop
  endfacet
  facet normal 0 1 0
    outer loop
      vertex 8 13 9
      vertex 7 13 9
      vertex 7 13 10
    endloop
  endfacet
  facet normal 0 1 -0
    outer loop
      vertex 8 13 8
      vertex 7 13 9
      vertex 8 13 9
    endloop
  endfacet
  facet normal 0 1 0
    outer loop
      vertex 6 13 8
      vertex 7 13 9
      vertex 8 13 8
    endloop
  endfacet
  facet normal 0 1 0
    outer loop
      vertex 7 13 9
      vertex 6 13 8
      vertex 6 13 9
    endloop
  endfacet
  facet normal 0 1 -0
    outer loop
      vertex 8 13 5
      vertex 7 13 6
      vertex 8 13 6
    endloop
  endfacet
  facet normal 0 1 0
    outer loop
      vertex 7 13 6
      vertex 8 13 5
      vertex 7 13 5
    endloop
  endfacet
  facet normal -0 0 1
    outer loop
      vertex 6 13 9
      vertex 7 12 9
      vertex 7 13 9
    endloop
  endfacet
  facet normal 0 0 1
    outer loop
      vertex 7 12 9
      vertex 6 13 9
      vertex 6 12 9
    endloop
  endfacet
  facet normal -0 0 1
    outer loop
      vertex 6 14 8
      vertex 8 13 8
      vertex 8 14 8
    endloop
  endfacet
  facet normal 0 0 1
    outer loop
      vertex 8 13 8
      vertex 6 14 8
      vertex 6 13 8
    endloop
  endfacet
  facet normal 0 1 0
    outer loop
      vertex 7 14 7
      vertex 8 14 8
      vertex 8 14 7
    endloop
  endfacet
  facet normal 0 1 0
    outer loop
      vertex 8 14 8
      vertex 7 14 7
      vertex 6 14 8
    endloop
  endfacet
  facet normal 0 1 0
    outer loop
      vertex 6 14 8
      vertex 7 14 7
      vertex 6 14 7
    endloop
  endfacet
  facet normal 0 1 0
    outer loop
      vertex 8 14 6
      vertex 8 14 7
      vertex 9 14 7
    endloop
  endfacet
  facet normal 0 1 0
    outer loop
      vertex 8 14 7
      vertex 8 14 6
      vertex 7 14 7
    endloop
  endfacet
  facet normal 0 1 -0
    outer loop
      vertex 9 14 5
      vertex 8 14 6
      vertex 9 14 7
    endloop
  endfacet
  facet normal 0 1 0
    outer loop
      vertex 8 14 6
      vertex 9 14 5
      vertex 8 14 5
    endloop
  endfacet
  facet normal 0 1 0
    outer loop
      vertex 7 14 7
      vertex 8 14 6
      vertex 7 14 6
    endloop
  endfacet
  facet normal -1 0 0
    outer loop
      vertex 8 13 8
      vertex 8 14 9
      vertex 8 14 8
    endloop
  endfacet
  facet normal -1 -0 0
    outer loop
      vertex 8 14 9
      vertex 8 13 8
      vertex 8 13 9
    endloop
  endfacet
  facet normal -1 0 0
    outer loop
      vertex 8 14 7
      vertex 8 15 8
      vertex 8 15 7
    endloop
  endfacet
  facet normal -1 -0 0
    outer loop
      vertex 8 15 8
      vertex 8 14 7
      vertex 8 14 8
    endloop
  endfacet
  facet normal -1 0 0
    outer loop
      vertex 8 13 5
      vertex 8 14 6
      vertex 8 14 5
    endloop
  endfacet
  facet normal -1 -0 0
    outer loop
      vertex 8 14 6
      vertex 8 13 5
      vertex 8 13 6
    endloop
  endfacet
  facet normal 1 -0 0
    outer loop
      vertex 8 12 10
      vertex 8 13 9
      vertex 8 13 10
    endloop
  endfacet
  facet normal 1 0 0
    outer loop
      vertex 8 13 9
      vertex 8 12 10
      vertex 8 12 9
    endloop
  endfacet
  facet normal 1 -0 0
    outer loop
      vertex 8 9 11
      vertex 8 10 10
      vertex 8 10 11
    endloop
  endfacet
  facet normal 1 0 0
    outer loop
      vertex 8 10 10
      vertex 8 9 11
      vertex 8 9 10
    endloop
  endfacet
  facet normal -1 0 0
    outer loop
      vertex 8 8 10
      vertex 8 9 11
      vertex 8 9 10
    endloop
  endfacet
  facet normal -1 -0 0
    outer loop
      vertex 8 9 11
      vertex 8 8 10
      vertex 8 8 11
    endloop
  endfacet
  facet normal 1 0 0
    outer loop
      vertex 8 10 8
      vertex 8 8 6
      vertex 8 10 5
    endloop
  endfacet
  facet normal 1 -0 0
    outer loop
      vertex 8 6 8
      vertex 8 8 6
      vertex 8 10 8
    endloop
  endfacet
  facet normal 1 0 0
    outer loop
      vertex 8 8 6
      vertex 8 6 8
      vertex 8 6 6
    endloop
  endfacet
  facet normal 1 0 0
    outer loop
      vertex 8 10 5
      vertex 8 8 6
      vertex 8 8 5
    endloop
  endfacet
  facet normal 1 -0 0
    outer loop
      vertex 8 6 10
      vertex 8 7 9
      vertex 8 7 10
    endloop
  endfacet
  facet normal 1 0 0
    outer loop
      vertex 8 7 9
      vertex 8 6 10
      vertex 8 6 9
    endloop
  endfacet
  facet normal 0 -1 0
    outer loop
      vertex 7 9 10
      vertex 8 9 11
      vertex 7 9 11
    endloop
  endfacet
  facet normal 0 -1 -0
    outer loop
      vertex 8 9 11
      vertex 7 9 10
      vertex 8 9 10
    endloop
  endfacet
  facet normal 0 -1 0
    outer loop
      vertex 7 8 5
      vertex 8 8 6
      vertex 7 8 6
    endloop
  endfacet
  facet normal 0 -1 -0
    outer loop
      vertex 8 8 6
      vertex 7 8 5
      vertex 8 8 5
    endloop
  endfacet
  facet normal -0 0 1
    outer loop
      vertex 7 10 11
      vertex 8 9 11
      vertex 8 10 11
    endloop
  endfacet
  facet normal 0 0 1
    outer loop
      vertex 8 9 11
      vertex 7 10 11
      vertex 7 9 11
    endloop
  endfacet
  facet normal 0 0 -1
    outer loop
      vertex 7 13 6
      vertex 8 14 6
      vertex 8 13 6
    endloop
  endfacet
  facet normal -0 0 -1
    outer loop
      vertex 8 14 6
      vertex 7 13 6
      vertex 7 14 6
    endloop
  endfacet
  facet normal -0 0 1
    outer loop
      vertex 8 7 9
      vertex 9 6 9
      vertex 9 7 9
    endloop
  endfacet
  facet normal 0 0 1
    outer loop
      vertex 9 6 9
      vertex 8 7 9
      vertex 8 6 9
    endloop
  endfacet
  facet normal 1 -0 0
    outer loop
      vertex 9 12 9
      vertex 9 14 8
      vertex 9 14 9
    endloop
  endfacet
  facet normal 1 0 0
    outer loop
      vertex 9 14 8
      vertex 9 12 9
      vertex 9 14 7
    endloop
  endfacet
  facet normal 1 0 0
    outer loop
      vertex 9 12 5
      vertex 9 14 7
      vertex 9 12 9
    endloop
  endfacet
  facet normal 1 0 0
    outer loop
      vertex 9 14 7
      vertex 9 12 5
      vertex 9 14 5
    endloop
  endfacet
  facet normal 1 -0 0
    outer loop
      vertex 9 14 8
      vertex 9 15 7
      vertex 9 15 8
    endloop
  endfacet
  facet normal 1 0 0
    outer loop
      vertex 9 15 7
      vertex 9 14 8
      vertex 9 14 7
    endloop
  endfacet
  facet normal 1 -0 0
    outer loop
      vertex 9 10 6
      vertex 9 11 5
      vertex 9 11 6
    endloop
  endfacet
  facet normal 1 0 0
    outer loop
      vertex 9 11 5
      vertex 9 10 6
      vertex 9 10 5
    endloop
  endfacet
  facet normal -1 0 0
    outer loop
      vertex 9 6 9
      vertex 9 7 10
      vertex 9 7 9
    endloop
  endfacet
  facet normal -1 -0 0
    outer loop
      vertex 9 7 10
      vertex 9 6 9
      vertex 9 6 10
    endloop
  endfacet
  facet normal 1 -0 0
    outer loop
      vertex 9 8 11
      vertex 9 9 10
      vertex 9 9 11
    endloop
  endfacet
  facet normal 1 0 0
    outer loop
      vertex 9 9 10
      vertex 9 8 11
      vertex 9 8 10
    endloop
  endfacet
  facet normal 0 -1 0
    outer loop
      vertex 8 7 9
      vertex 9 7 10
      vertex 8 7 10
    endloop
  endfacet
  facet normal 0 -1 -0
    outer loop
      vertex 9 7 10
      vertex 8 7 9
      vertex 9 7 9
    endloop
  endfacet
  facet normal 0 0 -1
    outer loop
      vertex 10 6 8
      vertex 8 6 8
      vertex 10 8 8
    endloop
  endfacet
  facet normal 0 0 -1
    outer loop
      vertex 10 8 8
      vertex 11 9 8
      vertex 11 8 8
    endloop
  endfacet
  facet normal -0 0 -1
    outer loop
      vertex 11 9 8
      vertex 10 8 8
      vertex 11 10 8
    endloop
  endfacet
  facet normal 0 0 -1
    outer loop
      vertex 8 10 8
      vertex 10 8 8
      vertex 8 6 8
    endloop
  endfacet
  facet normal 0 0 -1
    outer loop
      vertex 10 8 8
      vertex 8 10 8
      vertex 11 10 8
    endloop
  endfacet
  facet normal 0 0 -1
    outer loop
      vertex 11 9 8
      vertex 12 10 8
      vertex 12 9 8
    endloop
  endfacet
  facet normal -0 0 -1
    outer loop
      vertex 12 10 8
      vertex 11 9 8
      vertex 11 10 8
    endloop
  endfacet
  facet normal -0 0 1
    outer loop
      vertex 8 9 11
      vertex 9 8 11
      vertex 9 9 11
    endloop
  endfacet
  facet normal 0 0 1
    outer loop
      vertex 9 8 11
      vertex 8 9 11
      vertex 8 8 11
    endloop
  endfacet
  facet normal 0 -1 0
    outer loop
      vertex 8 8 10
      vertex 9 8 11
      vertex 8 8 11
    endloop
  endfacet
  facet normal 0 -1 -0
    outer loop
      vertex 9 8 11
      vertex 8 8 10
      vertex 9 8 10
    endloop
  endfacet
  facet normal 0 1 -0
    outer loop
      vertex 9 9 10
      vertex 8 9 11
      vertex 9 9 11
    endloop
  endfacet
  facet normal 0 1 0
    outer loop
      vertex 8 9 11
      vertex 9 9 10
      vertex 8 9 10
    endloop
  endfacet
  facet normal 0 -1 0
    outer loop
      vertex 9 11 6
      vertex 9 11 5
      vertex 10 11 6
    endloop
  endfacet
  facet normal 0 -1 0
    outer loop
      vertex 10 11 6
      vertex 11 11 7
      vertex 10 11 7
    endloop
  endfacet
  facet normal 0 -1 0
    outer loop
      vertex 11 11 5
      vertex 10 11 6
      vertex 9 11 5
    endloop
  endfacet
  facet normal 0 -1 0
    outer loop
      vertex 10 11 6
      vertex 11 11 5
      vertex 11 11 7
    endloop
  endfacet
  facet normal -1 0 0
    outer loop
      vertex 8 10 10
      vertex 8 11 11
      vertex 8 11 10
    endloop
  endfacet
  facet normal -1 -0 0
    outer loop
      vertex 8 11 11
      vertex 8 10 10
      vertex 8 10 11
    endloop
  endfacet
  facet normal -0 0 1
    outer loop
      vertex 8 11 11
      vertex 9 10 11
      vertex 9 11 11
    endloop
  endfacet
  facet normal 0 0 1
    outer loop
      vertex 9 10 11
      vertex 8 11 11
      vertex 8 10 11
    endloop
  endfacet
  facet normal 1 -0 0
    outer loop
      vertex 9 10 11
      vertex 9 11 10
      vertex 9 11 11
    endloop
  endfacet
  facet normal 1 0 0
    outer loop
      vertex 9 11 10
      vertex 9 10 11
      vertex 9 10 10
    endloop
  endfacet
  facet normal 0 1 -0
    outer loop
      vertex 9 11 10
      vertex 8 11 11
      vertex 9 11 11
    endloop
  endfacet
  facet normal 0 1 0
    outer loop
      vertex 8 11 11
      vertex 9 11 10
      vertex 8 11 10
    endloop
  endfacet
  facet normal 0 -1 0
    outer loop
      vertex 8 10 10
      vertex 9 10 11
      vertex 8 10 11
    endloop
  endfacet
  facet normal 0 -1 -0
    outer loop
      vertex 9 10 11
      vertex 8 10 10
      vertex 9 10 10
    endloop
  endfacet
  facet normal 0 1 0
    outer loop
      vertex 11 12 7
      vertex 11 12 5
      vertex 10 12 7
    endloop
  endfacet
  facet normal 0 1 0
    outer loop
      vertex 9 12 9
      vertex 10 12 10
      vertex 10 12 9
    endloop
  endfacet
  facet normal 0 1 0
    outer loop
      vertex 10 12 10
      vertex 9 12 9
      vertex 8 12 10
    endloop
  endfacet
  facet normal 0 1 0
    outer loop
      vertex 8 12 10
      vertex 9 12 9
      vertex 8 12 9
    endloop
  endfacet
  facet normal 0 1 0
    outer loop
      vertex 10 12 8
      vertex 10 12 9
      vertex 11 12 9
    endloop
  endfacet
  facet normal 0 1 0
    outer loop
      vertex 10 12 8
      vertex 11 12 9
      vertex 11 12 8
    endloop
  endfacet
  facet normal 0 1 0
    outer loop
      vertex 10 12 9
      vertex 10 12 8
      vertex 9 12 9
    endloop
  endfacet
  facet normal 0 1 -0
    outer loop
      vertex 10 12 7
      vertex 9 12 9
      vertex 10 12 8
    endloop
  endfacet
  facet normal 0 1 0
    outer loop
      vertex 9 12 5
      vertex 10 12 7
      vertex 11 12 5
    endloop
  endfacet
  facet normal 0 1 0
    outer loop
      vertex 10 12 7
      vertex 9 12 5
      vertex 9 12 9
    endloop
  endfacet
  facet normal 0 0 1
    outer loop
      vertex 8 13 9
      vertex 9 14 9
      vertex 8 14 9
    endloop
  endfacet
  facet normal 0 0 1
    outer loop
      vertex 9 14 9
      vertex 8 13 9
      vertex 9 12 9
    endloop
  endfacet
  facet normal 0 0 1
    outer loop
      vertex 9 12 9
      vertex 8 13 9
      vertex 8 12 9
    endloop
  endfacet
  facet normal 0 0 -1
    outer loop
      vertex 8 14 7
      vertex 9 15 7
      vertex 9 14 7
    endloop
  endfacet
  facet normal -0 0 -1
    outer loop
      vertex 9 15 7
      vertex 8 14 7
      vertex 8 15 7
    endloop
  endfacet
  facet normal 0 1 -0
    outer loop
      vertex 9 14 8
      vertex 8 14 9
      vertex 9 14 9
    endloop
  endfacet
  facet normal 0 1 0
    outer loop
      vertex 8 14 9
      vertex 9 14 8
      vertex 8 14 8
    endloop
  endfacet
  facet normal -0 0 1
    outer loop
      vertex 8 15 8
      vertex 9 14 8
      vertex 9 15 8
    endloop
  endfacet
  facet normal 0 0 1
    outer loop
      vertex 9 14 8
      vertex 8 15 8
      vertex 8 14 8
    endloop
  endfacet
  facet normal 0 1 -0
    outer loop
      vertex 9 15 7
      vertex 8 15 8
      vertex 9 15 8
    endloop
  endfacet
  facet normal 0 1 0
    outer loop
      vertex 8 15 8
      vertex 9 15 7
      vertex 8 15 7
    endloop
  endfacet
  facet normal -1 0 0
    outer loop
      vertex 10 12 7
      vertex 10 14 8
      vertex 10 14 7
    endloop
  endfacet
  facet normal -1 -0 0
    outer loop
      vertex 10 14 8
      vertex 10 12 7
      vertex 10 12 8
    endloop
  endfacet
  facet normal 1 -0 0
    outer loop
      vertex 10 10 10
      vertex 10 12 9
      vertex 10 12 10
    endloop
  endfacet
  facet normal 1 0 0
    outer loop
      vertex 10 12 9
      vertex 10 10 10
      vertex 10 10 9
    endloop
  endfacet
  facet normal 1 -0 0
    outer loop
      vertex 10 10 7
      vertex 10 11 6
      vertex 10 11 7
    endloop
  endfacet
  facet normal 1 0 0
    outer loop
      vertex 10 11 6
      vertex 10 10 7
      vertex 10 10 6
    endloop
  endfacet
  facet normal 1 -0 0
    outer loop
      vertex 10 6 10
      vertex 10 8 8
      vertex 10 8 10
    endloop
  endfacet
  facet normal 1 0 0
    outer loop
      vertex 10 8 8
      vertex 10 6 10
      vertex 10 6 8
    endloop
  endfacet
  facet normal 0 0 -1
    outer loop
      vertex 9 10 6
      vertex 10 11 6
      vertex 10 10 6
    endloop
  endfacet
  facet normal -0 0 -1
    outer loop
      vertex 10 11 6
      vertex 9 10 6
      vertex 9 11 6
    endloop
  endfacet
  facet normal 1 0 0
    outer loop
      vertex 11 10 10
      vertex 11 9 9
      vertex 11 10 9
    endloop
  endfacet
  facet normal 1 -0 0
    outer loop
      vertex 11 8 10
      vertex 11 9 9
      vertex 11 10 10
    endloop
  endfacet
  facet normal 1 0 0
    outer loop
      vertex 11 8 8
      vertex 11 9 9
      vertex 11 8 10
    endloop
  endfacet
  facet normal 1 0 0
    outer loop
      vertex 11 9 9
      vertex 11 8 8
      vertex 11 9 8
    endloop
  endfacet
  facet normal 1 0 0
    outer loop
      vertex 11 10 8
      vertex 11 12 8
      vertex 11 12 9
    endloop
  endfacet
  facet normal 1 0 0
    outer loop
      vertex 11 12 8
      vertex 11 11 7
      vertex 11 12 7
    endloop
  endfacet
  facet normal 1 0 0
    outer loop
      vertex 11 12 7
      vertex 11 11 7
      vertex 11 12 5
    endloop
  endfacet
  facet normal 1 0 0
    outer loop
      vertex 11 10 8
      vertex 11 12 9
      vertex 11 10 9
    endloop
  endfacet
  facet normal 1 0 0
    outer loop
      vertex 11 12 8
      vertex 11 10 8
      vertex 11 11 7
    endloop
  endfacet
  facet normal 1 0 0
    outer loop
      vertex 11 11 7
      vertex 11 10 8
      vertex 11 10 7
    endloop
  endfacet
  facet normal 1 -0 0
    outer loop
      vertex 11 12 8
      vertex 11 14 7
      vertex 11 14 8
    endloop
  endfacet
  facet normal 1 0 0
    outer loop
      vertex 11 14 7
      vertex 11 12 8
      vertex 11 12 7
    endloop
  endfacet
  facet normal 1 0 0
    outer loop
      vertex 11 12 5
      vertex 11 11 7
      vertex 11 11 5
    endloop
  endfacet
  facet normal 0 -1 0
    outer loop
      vertex 10 8 8
      vertex 11 8 10
      vertex 10 8 10
    endloop
  endfacet
  facet normal 0 -1 -0
    outer loop
      vertex 11 8 10
      vertex 10 8 8
      vertex 11 8 8
    endloop
  endfacet
  facet normal 0 0 -1
    outer loop
      vertex 10 10 7
      vertex 11 11 7
      vertex 11 10 7
    endloop
  endfacet
  facet normal -0 0 -1
    outer loop
      vertex 11 11 7
      vertex 10 10 7
      vertex 10 11 7
    endloop
  endfacet
  facet normal -0 0 1
    outer loop
      vertex 10 12 9
      vertex 11 10 9
      vertex 11 12 9
    endloop
  endfacet
  facet normal 0 0 1
    outer loop
      vertex 11 10 9
      vertex 10 12 9
      vertex 10 10 9
    endloop
  endfacet
  facet normal 0 0 -1
    outer loop
      vertex 10 12 7
      vertex 11 14 7
      vertex 11 12 7
    endloop
  endfacet
  facet normal -0 0 -1
    outer loop
      vertex 11 14 7
      vertex 10 12 7
      vertex 10 14 7
    endloop
  endfacet
  facet normal -0 0 1
    outer loop
      vertex 10 14 8
      vertex 11 12 8
      vertex 11 14 8
    endloop
  endfacet
  facet normal 0 0 1
    outer loop
      vertex 11 12 8
      vertex 10 14 8
      vertex 10 12 8
    endloop
  endfacet
  facet normal 0 1 -0
    outer loop
      vertex 11 14 7
      vertex 10 14 8
      vertex 11 14 8
    endloop
  endfacet
  facet normal 0 1 0
    outer loop
      vertex 10 14 8
      vertex 11 14 7
      vertex 10 14 7
    endloop
  endfacet
  facet normal -0 0 1
    outer loop
      vertex 11 10 9
      vertex 12 9 9
      vertex 12 10 9
    endloop
  endfacet
  facet normal 0 0 1
    outer loop
      vertex 12 9 9
      vertex 11 10 9
      vertex 11 9 9
    endloop
  endfacet
  facet normal 1 -0 0
    outer loop
      vertex 12 9 9
      vertex 12 10 8
      vertex 12 10 9
    endloop
  endfacet
  facet normal 1 0 0
    outer loop
      vertex 12 10 8
      vertex 12 9 9
      vertex 12 9 8
    endloop
  endfacet
  facet normal 0 -1 0
    outer loop
      vertex 11 9 8
      vertex 12 9 9
      vertex 11 9 9
    endloop
  endfacet
  facet normal 0 -1 -0
    outer loop
      vertex 12 9 9
      vertex 11 9 8
      vertex 12 9 8
    endloop
  endfacet
  facet normal 0 1 -0
    outer loop
      vertex 12 10 8
      vertex 11 10 9
      vertex 12 10 9
    endloop
  endfacet
  facet normal 0 1 0
    outer loop
      vertex 11 10 9
      vertex 12 10 8
      vertex 11 10 8
    endloop
  endfacet
endsolid OpenSCAD_Model
