solid OpenSCAD_Model
  facet normal -1 0 0
    outer loop
      vertex 1 1 1
      vertex 1 7 2
      vertex 1 8 1
    endloop
  endfacet
  facet normal -1 0 0
    outer loop
      vertex 1 2 7
      vertex 1 1 8
      vertex 1 2 8
    endloop
  endfacet
  facet normal -1 0 0
    outer loop
      vertex 1 1 1
      vertex 1 1 8
      vertex 1 2 7
    endloop
  endfacet
  facet normal -1 0 0
    outer loop
      vertex 1 6 6
      vertex 1 6 5
      vertex 1 5 6
    endloop
  endfacet
  facet normal -1 0 0
    outer loop
      vertex 1 7 2
      vertex 1 5 6
      vertex 1 7 3
    endloop
  endfacet
  facet normal -1 0 0
    outer loop
      vertex 1 7 4
      vertex 1 7 3
      vertex 1 6 5
    endloop
  endfacet
  facet normal -1 0 0
    outer loop
      vertex 1 7 3
      vertex 1 7 4
      vertex 1 8 3
    endloop
  endfacet
  facet normal -1 0 0
    outer loop
      vertex 1 5 6
      vertex 1 6 5
      vertex 1 7 3
    endloop
  endfacet
  facet normal -1 0 0
    outer loop
      vertex 1 8 4
      vertex 1 8 3
      vertex 1 7 4
    endloop
  endfacet
  facet normal -1 0 0
    outer loop
      vertex 1 1 1
      vertex 1 2 7
      vertex 1 7 2
    endloop
  endfacet
  facet normal -1 0 0
    outer loop
      vertex 1 7 5
      vertex 1 7 4
      vertex 1 6 5
    endloop
  endfacet
  facet normal -1 0 0
    outer loop
      vertex 1 8 2
      vertex 1 8 1
      vertex 1 7 2
    endloop
  endfacet
  facet normal -1 0 0
    outer loop
      vertex 1 5 6
      vertex 1 7 2
      vertex 1 2 7
    endloop
  endfacet
  facet normal -1 0 0
    outer loop
      vertex 1 5 7
      vertex 1 5 6
      vertex 1 2 7
    endloop
  endfacet
  facet normal 0 -1 0
    outer loop
      vertex 5 1 2
      vertex 1 1 1
      vertex 6 1 1
    endloop
  endfacet
  facet normal 0 -1 0
    outer loop
      vertex 5 1 3
      vertex 2 1 7
      vertex 1 1 8
    endloop
  endfacet
  facet normal 0 -1 0
    outer loop
      vertex 1 1 8
      vertex 1 1 1
      vertex 5 1 2
    endloop
  endfacet
  facet normal 0 -1 0
    outer loop
      vertex 5 1 3
      vertex 3 1 6
      vertex 2 1 7
    endloop
  endfacet
  facet normal 0 -1 0
    outer loop
      vertex 6 1 4
      vertex 5 1 4
      vertex 6 1 3
    endloop
  endfacet
  facet normal 0 -1 0
    outer loop
      vertex 3 1 6
      vertex 3 1 7
      vertex 2 1 7
    endloop
  endfacet
  facet normal 0 -1 0
    outer loop
      vertex 4 1 5
      vertex 4 1 6
      vertex 3 1 6
    endloop
  endfacet
  facet normal 0 -1 0
    outer loop
      vertex 5 1 4
      vertex 5 1 5
      vertex 4 1 5
    endloop
  endfacet
  facet normal 0 -1 0
    outer loop
      vertex 2 1 7
      vertex 2 1 8
      vertex 1 1 8
    endloop
  endfacet
  facet normal 0 -1 0
    outer loop
      vertex 5 1 2
      vertex 5 1 3
      vertex 1 1 8
    endloop
  endfacet
  facet normal 0 -1 0
    outer loop
      vertex 6 1 2
      vertex 5 1 2
      vertex 6 1 1
    endloop
  endfacet
  facet normal 0 -1 0
    outer loop
      vertex 5 1 3
      vertex 4 1 5
      vertex 3 1 6
    endloop
  endfacet
  facet normal 0 -1 0
    outer loop
      vertex 5 1 3
      vertex 5 1 4
      vertex 4 1 5
    endloop
  endfacet
  facet normal 0 -1 0
    outer loop
      vertex 5 1 3
      vertex 6 1 3
      vertex 5 1 4
    endloop
  endfacet
  facet normal 0 0 -1
    outer loop
      vertex 1 1 1
      vertex 1 8 1
      vertex 6 1 1
    endloop
  endfacet
  facet normal 0 0 -1
    outer loop
      vertex 2 7 1
      vertex 1 8 1
      vertex 2 8 1
    endloop
  endfacet
  facet normal 0 0 -1
    outer loop
      vertex 6 1 1
      vertex 1 8 1
      vertex 2 7 1
    endloop
  endfacet
  facet normal 0 0 -1
    outer loop
      vertex 6 1 1
      vertex 2 7 1
      vertex 3 6 1
    endloop
  endfacet
  facet normal 0 0 -1
    outer loop
      vertex 5 4 1
      vertex 6 1 1
      vertex 4 5 1
    endloop
  endfacet
  facet normal 0 0 -1
    outer loop
      vertex 4 6 1
      vertex 4 5 1
      vertex 3 6 1
    endloop
  endfacet
  facet normal 0 0 -1
    outer loop
      vertex 6 4 1
      vertex 6 1 1
      vertex 5 4 1
    endloop
  endfacet
  facet normal 0 0 -1
    outer loop
      vertex 4 5 1
      vertex 6 1 1
      vertex 3 6 1
    endloop
  endfacet
  facet normal 0 0 -1
    outer loop
      vertex 5 5 1
      vertex 5 4 1
      vertex 4 5 1
    endloop
  endfacet
  facet normal 0 0 -1
    outer loop
      vertex 3 7 1
      vertex 3 6 1
      vertex 2 7 1
    endloop
  endfacet
  facet normal 0 1 0
    outer loop
      vertex 1 8 1
      vertex 1 8 2
      vertex 2 8 1
    endloop
  endfacet
  facet normal 0 1 0
    outer loop
      vertex 2 8 1
      vertex 1 8 2
      vertex 2 8 2
    endloop
  endfacet
  facet normal 0 0 1
    outer loop
      vertex 1 8 2
      vertex 1 7 2
      vertex 2 7 2
    endloop
  endfacet
  facet normal 0 0 1
    outer loop
      vertex 2 8 2
      vertex 1 8 2
      vertex 2 7 2
    endloop
  endfacet
  facet normal 0 1 0
    outer loop
      vertex 1 7 2
      vertex 1 7 3
      vertex 2 7 2
    endloop
  endfacet
  facet normal 0 1 0
    outer loop
      vertex 2 7 2
      vertex 1 7 3
      vertex 2 7 3
    endloop
  endfacet
  facet normal 0 0 -1
    outer loop
      vertex 1 7 3
      vertex 1 8 3
      vertex 2 7 3
    endloop
  endfacet
  facet normal 0 0 -1
    outer loop
      vertex 2 7 3
      vertex 1 8 3
      vertex 2 8 3
    endloop
  endfacet
  facet normal 0 1 0
    outer loop
      vertex 1 8 3
      vertex 1 8 4
      vertex 2 8 3
    endloop
  endfacet
  facet normal 0 1 0
    outer loop
      vertex 2 8 3
      vertex 1 8 4
      vertex 2 8 4
    endloop
  endfacet
  facet normal 0 0 1
    outer loop
      vertex 1 8 4
      vertex 1 7 4
      vertex 2 7 4
    endloop
  endfacet
  facet normal 0 0 1
    outer loop
      vertex 2 8 4
      vertex 1 8 4
      vertex 2 7 4
    endloop
  endfacet
  facet normal 0 1 0
    outer loop
      vertex 1 7 4
      vertex 1 7 5
      vertex 2 7 4
    endloop
  endfacet
  facet normal 0 1 0
    outer loop
      vertex 2 7 4
      vertex 1 7 5
      vertex 2 7 5
    endloop
  endfacet
  facet normal 0 0 1
    outer loop
      vertex 1 7 5
      vertex 1 6 5
      vertex 2 6 5
    endloop
  endfacet
  facet normal 0 0 1
    outer loop
      vertex 2 7 5
      vertex 1 7 5
      vertex 2 6 5
    endloop
  endfacet
  facet normal 0 1 0
    outer loop
      vertex 1 6 5
      vertex 1 6 6
      vertex 2 6 5
    endloop
  endfacet
  facet normal 0 1 0
    outer loop
      vertex 2 6 5
      vertex 1 6 6
      vertex 2 6 6
    endloop
  endfacet
  facet normal 0 0 1
    outer loop
      vertex 1 6 6
      vertex 1 5 6
      vertex 2 5 6
    endloop
  endfacet
  facet normal 0 0 1
    outer loop
      vertex 2 6 6
      vertex 1 6 6
      vertex 2 5 6
    endloop
  endfacet
  facet normal 0 1 0
    outer loop
      vertex 1 5 6
      vertex 1 5 7
      vertex 2 5 6
    endloop
  endfacet
  facet normal 0 1 0
    outer loop
      vertex 2 5 6
      vertex 1 5 7
      vertex 2 5 7
    endloop
  endfacet
  facet normal 0 0 1
    outer loop
      vertex 1 5 7
      vertex 1 2 7
      vertex 2 2 7
    endloop
  endfacet
  facet normal 0 0 1
    outer loop
      vertex 2 5 7
      vertex 1 5 7
      vertex 2 2 7
    endloop
  endfacet
  facet normal 0 1 0
    outer loop
      vertex 1 2 7
      vertex 1 2 8
      vertex 2 2 7
    endloop
  endfacet
  facet normal 0 1 0
    outer loop
      vertex 2 2 7
      vertex 1 2 8
      vertex 2 2 8
    endloop
  endfacet
  facet normal 0 0 1
    outer loop
      vertex 1 2 8
      vertex 1 1 8
      vertex 2 1 8
    endloop
  endfacet
  facet normal 0 0 1
    outer loop
      vertex 2 2 8
      vertex 1 2 8
      vertex 2 1 8
    endloop
  endfacet
  facet normal 1 0 0
    outer loop
      vertex 2 1 8
      vertex 2 1 7
      vertex 2 2 7
    endloop
  endfacet
  facet normal 1 0 0
    outer loop
      vertex 2 2 8
      vertex 2 1 8
      vertex 2 2 7
    endloop
  endfacet
  facet normal 0 0 1
    outer loop
      vertex 2 2 7
      vertex 2 1 7
      vertex 3 1 7
    endloop
  endfacet
  facet normal 0 0 1
    outer loop
      vertex 3 2 7
      vertex 2 2 7
      vertex 3 1 7
    endloop
  endfacet
  facet normal 1 0 0
    outer loop
      vertex 3 1 7
      vertex 3 1 6
      vertex 3 2 6
    endloop
  endfacet
  facet normal 1 0 0
    outer loop
      vertex 3 2 7
      vertex 3 1 7
      vertex 3 2 6
    endloop
  endfacet
  facet normal 0 0 1
    outer loop
      vertex 3 2 6
      vertex 3 1 6
      vertex 4 1 6
    endloop
  endfacet
  facet normal 0 0 1
    outer loop
      vertex 4 2 6
      vertex 3 2 6
      vertex 4 1 6
    endloop
  endfacet
  facet normal 1 0 0
    outer loop
      vertex 4 1 6
      vertex 4 1 5
      vertex 4 2 5
    endloop
  endfacet
  facet normal 1 0 0
    outer loop
      vertex 4 2 6
      vertex 4 1 6
      vertex 4 2 5
    endloop
  endfacet
  facet normal 0 0 1
    outer loop
      vertex 4 2 5
      vertex 4 1 5
      vertex 5 1 5
    endloop
  endfacet
  facet normal 0 0 1
    outer loop
      vertex 5 2 5
      vertex 4 2 5
      vertex 5 1 5
    endloop
  endfacet
  facet normal 1 0 0
    outer loop
      vertex 5 1 5
      vertex 5 1 4
      vertex 5 2 4
    endloop
  endfacet
  facet normal 1 0 0
    outer loop
      vertex 5 2 5
      vertex 5 1 5
      vertex 5 2 4
    endloop
  endfacet
  facet normal 0 0 1
    outer loop
      vertex 4 5 4
      vertex 4 2 4
      vertex 5 2 4
    endloop
  endfacet
  facet normal 0 0 1
    outer loop
      vertex 6 1 4
      vertex 5 3 4
      vertex 5 2 4
    endloop
  endfacet
  facet normal 0 0 1
    outer loop
      vertex 5 1 4
      vertex 6 1 4
      vertex 5 2 4
    endloop
  endfacet
  facet normal 0 0 1
    outer loop
      vertex 5 2 4
      vertex 5 3 4
      vertex 4 5 4
    endloop
  endfacet
  facet normal 0 0 1
    outer loop
      vertex 6 1 4
      vertex 6 3 4
      vertex 5 3 4
    endloop
  endfacet
  facet normal 0 0 1
    outer loop
      vertex 5 3 4
      vertex 5 5 4
      vertex 4 5 4
    endloop
  endfacet
  facet normal 1 0 0
    outer loop
      vertex 6 1 2
      vertex 6 1 1
      vertex 6 4 1
    endloop
  endfacet
  facet normal 1 0 0
    outer loop
      vertex 6 3 4
      vertex 6 2 3
      vertex 6 3 2
    endloop
  endfacet
  facet normal 1 0 0
    outer loop
      vertex 6 3 2
      vertex 6 2 2
      vertex 6 4 1
    endloop
  endfacet
  facet normal 1 0 0
    outer loop
      vertex 6 4 2
      vertex 6 3 2
      vertex 6 4 1
    endloop
  endfacet
  facet normal 1 0 0
    outer loop
      vertex 6 3 4
      vertex 6 1 4
      vertex 6 1 3
    endloop
  endfacet
  facet normal 1 0 0
    outer loop
      vertex 6 3 4
      vertex 6 1 3
      vertex 6 2 3
    endloop
  endfacet
  facet normal 1 0 0
    outer loop
      vertex 6 4 1
      vertex 6 2 2
      vertex 6 1 2
    endloop
  endfacet
  facet normal 1 0 0
    outer loop
      vertex 6 3 2
      vertex 6 2 3
      vertex 6 2 2
    endloop
  endfacet
  facet normal 0 0 -1
    outer loop
      vertex 5 1 3
      vertex 5 2 3
      vertex 6 1 3
    endloop
  endfacet
  facet normal 0 0 -1
    outer loop
      vertex 6 1 3
      vertex 5 2 3
      vertex 6 2 3
    endloop
  endfacet
  facet normal 1 0 0
    outer loop
      vertex 5 1 3
      vertex 5 1 2
      vertex 5 2 2
    endloop
  endfacet
  facet normal 1 0 0
    outer loop
      vertex 5 2 3
      vertex 5 1 3
      vertex 5 2 2
    endloop
  endfacet
  facet normal 0 0 1
    outer loop
      vertex 5 2 2
      vertex 5 1 2
      vertex 6 1 2
    endloop
  endfacet
  facet normal 0 0 1
    outer loop
      vertex 6 2 2
      vertex 5 2 2
      vertex 6 1 2
    endloop
  endfacet
  facet normal 0 1 0
    outer loop
      vertex 5 4 1
      vertex 5 4 2
      vertex 6 4 1
    endloop
  endfacet
  facet normal 0 1 0
    outer loop
      vertex 6 4 1
      vertex 5 4 2
      vertex 6 4 2
    endloop
  endfacet
  facet normal 1 0 0
    outer loop
      vertex 5 3 4
      vertex 5 3 2
      vertex 5 4 2
    endloop
  endfacet
  facet normal 1 0 0
    outer loop
      vertex 5 5 1
      vertex 5 3 4
      vertex 5 4 2
    endloop
  endfacet
  facet normal 1 0 0
    outer loop
      vertex 5 4 1
      vertex 5 5 1
      vertex 5 4 2
    endloop
  endfacet
  facet normal 1 0 0
    outer loop
      vertex 5 5 1
      vertex 5 5 4
      vertex 5 3 4
    endloop
  endfacet
  facet normal 0 1 0
    outer loop
      vertex 4 5 1
      vertex 4 5 4
      vertex 5 5 1
    endloop
  endfacet
  facet normal 0 1 0
    outer loop
      vertex 5 5 1
      vertex 4 5 4
      vertex 5 5 4
    endloop
  endfacet
  facet normal 1 0 0
    outer loop
      vertex 4 5 4
      vertex 4 5 1
      vertex 4 6 1
    endloop
  endfacet
  facet normal 1 0 0
    outer loop
      vertex 4 6 4
      vertex 4 5 4
      vertex 4 6 1
    endloop
  endfacet
  facet normal 0 1 0
    outer loop
      vertex 2 6 2
      vertex 2 6 3
      vertex 3 6 2
    endloop
  endfacet
  facet normal 0 1 0
    outer loop
      vertex 3 6 2
      vertex 2 6 3
      vertex 3 6 3
    endloop
  endfacet
  facet normal 0 1 0
    outer loop
      vertex 3 6 3
      vertex 3 6 4
      vertex 4 6 4
    endloop
  endfacet
  facet normal 0 1 0
    outer loop
      vertex 3 6 3
      vertex 4 6 4
      vertex 3 6 2
    endloop
  endfacet
  facet normal 0 1 0
    outer loop
      vertex 3 6 2
      vertex 4 6 4
      vertex 4 6 1
    endloop
  endfacet
  facet normal 0 1 0
    outer loop
      vertex 3 6 2
      vertex 4 6 1
      vertex 3 6 1
    endloop
  endfacet
  facet normal 1 0 0
    outer loop
      vertex 3 6 2
      vertex 3 6 1
      vertex 3 7 1
    endloop
  endfacet
  facet normal 1 0 0
    outer loop
      vertex 3 7 2
      vertex 3 6 2
      vertex 3 7 1
    endloop
  endfacet
  facet normal 0 1 0
    outer loop
      vertex 2 7 1
      vertex 2 7 2
      vertex 3 7 1
    endloop
  endfacet
  facet normal 0 1 0
    outer loop
      vertex 3 7 1
      vertex 2 7 2
      vertex 3 7 2
    endloop
  endfacet
  facet normal 1 0 0
    outer loop
      vertex 2 7 2
      vertex 2 7 1
      vertex 2 8 1
    endloop
  endfacet
  facet normal 1 0 0
    outer loop
      vertex 2 8 2
      vertex 2 7 2
      vertex 2 8 1
    endloop
  endfacet
  facet normal 1 0 0
    outer loop
      vertex 2 6 3
      vertex 2 6 2
      vertex 2 7 2
    endloop
  endfacet
  facet normal 1 0 0
    outer loop
      vertex 2 7 3
      vertex 2 6 3
      vertex 2 7 2
    endloop
  endfacet
  facet normal 0 0 1
    outer loop
      vertex 2 7 2
      vertex 2 6 2
      vertex 3 6 2
    endloop
  endfacet
  facet normal 0 0 1
    outer loop
      vertex 3 7 2
      vertex 2 7 2
      vertex 3 6 2
    endloop
  endfacet
  facet normal 0 0 -1
    outer loop
      vertex 2 6 3
      vertex 2 7 3
      vertex 3 6 3
    endloop
  endfacet
  facet normal 0 0 -1
    outer loop
      vertex 3 6 3
      vertex 2 7 3
      vertex 3 7 3
    endloop
  endfacet
  facet normal 0 1 0
    outer loop
      vertex 2 7 3
      vertex 2 7 4
      vertex 3 7 3
    endloop
  endfacet
  facet normal 0 1 0
    outer loop
      vertex 3 7 3
      vertex 2 7 4
      vertex 3 7 4
    endloop
  endfacet
  facet normal 1 0 0
    outer loop
      vertex 2 7 4
      vertex 2 7 3
      vertex 2 8 3
    endloop
  endfacet
  facet normal 1 0 0
    outer loop
      vertex 2 8 4
      vertex 2 7 4
      vertex 2 8 3
    endloop
  endfacet
  facet normal 1 0 0
    outer loop
      vertex 2 6 5
      vertex 2 6 4
      vertex 2 7 4
    endloop
  endfacet
  facet normal 1 0 0
    outer loop
      vertex 2 7 5
      vertex 2 6 5
      vertex 2 7 4
    endloop
  endfacet
  facet normal 0 0 1
    outer loop
      vertex 2 7 4
      vertex 2 6 4
      vertex 3 6 4
    endloop
  endfacet
  facet normal 0 0 1
    outer loop
      vertex 3 7 4
      vertex 2 7 4
      vertex 3 6 4
    endloop
  endfacet
  facet normal 1 0 0
    outer loop
      vertex 2 5 6
      vertex 2 5 5
      vertex 2 6 5
    endloop
  endfacet
  facet normal 1 0 0
    outer loop
      vertex 2 6 6
      vertex 2 5 6
      vertex 2 6 5
    endloop
  endfacet
  facet normal 0 1 0
    outer loop
      vertex 2 6 4
      vertex 2 6 5
      vertex 3 6 4
    endloop
  endfacet
  facet normal 0 1 0
    outer loop
      vertex 3 6 4
      vertex 2 6 5
      vertex 3 6 5
    endloop
  endfacet
  facet normal 0 0 1
    outer loop
      vertex 2 6 5
      vertex 2 5 5
      vertex 3 5 5
    endloop
  endfacet
  facet normal 0 0 1
    outer loop
      vertex 3 6 5
      vertex 2 6 5
      vertex 3 5 5
    endloop
  endfacet
  facet normal 1 0 0
    outer loop
      vertex 2 2 7
      vertex 2 2 6
      vertex 2 5 6
    endloop
  endfacet
  facet normal 1 0 0
    outer loop
      vertex 2 5 7
      vertex 2 2 7
      vertex 2 5 6
    endloop
  endfacet
  facet normal 0 1 0
    outer loop
      vertex 2 5 5
      vertex 2 5 6
      vertex 3 5 5
    endloop
  endfacet
  facet normal 0 1 0
    outer loop
      vertex 3 5 5
      vertex 2 5 6
      vertex 3 5 6
    endloop
  endfacet
  facet normal 0 0 1
    outer loop
      vertex 2 5 6
      vertex 2 2 6
      vertex 3 2 6
    endloop
  endfacet
  facet normal 0 0 1
    outer loop
      vertex 3 5 6
      vertex 2 5 6
      vertex 3 2 6
    endloop
  endfacet
  facet normal 0 1 0
    outer loop
      vertex 2 2 6
      vertex 2 2 7
      vertex 3 2 6
    endloop
  endfacet
  facet normal 0 1 0
    outer loop
      vertex 3 2 6
      vertex 2 2 7
      vertex 3 2 7
    endloop
  endfacet
  facet normal 1 0 0
    outer loop
      vertex 3 2 6
      vertex 3 2 5
      vertex 3 5 5
    endloop
  endfacet
  facet normal 1 0 0
    outer loop
      vertex 3 5 6
      vertex 3 2 6
      vertex 3 5 5
    endloop
  endfacet
  facet normal 0 1 0
    outer loop
      vertex 3 2 5
      vertex 3 2 6
      vertex 4 2 5
    endloop
  endfacet
  facet normal 0 1 0
    outer loop
      vertex 4 2 5
      vertex 3 2 6
      vertex 4 2 6
    endloop
  endfacet
  facet normal 0 0 1
    outer loop
      vertex 3 5 5
      vertex 3 2 5
      vertex 4 2 5
    endloop
  endfacet
  facet normal 0 0 1
    outer loop
      vertex 4 5 5
      vertex 3 5 5
      vertex 4 2 5
    endloop
  endfacet
  facet normal 1 0 0
    outer loop
      vertex 4 2 5
      vertex 4 2 4
      vertex 4 5 4
    endloop
  endfacet
  facet normal 1 0 0
    outer loop
      vertex 4 5 5
      vertex 4 2 5
      vertex 4 5 4
    endloop
  endfacet
  facet normal 0 1 0
    outer loop
      vertex 4 2 4
      vertex 4 2 5
      vertex 5 2 4
    endloop
  endfacet
  facet normal 0 1 0
    outer loop
      vertex 5 2 4
      vertex 4 2 5
      vertex 5 2 5
    endloop
  endfacet
  facet normal 0 1 0
    outer loop
      vertex 3 5 4
      vertex 3 5 5
      vertex 4 5 4
    endloop
  endfacet
  facet normal 0 1 0
    outer loop
      vertex 4 5 4
      vertex 3 5 5
      vertex 4 5 5
    endloop
  endfacet
  facet normal 0 0 1
    outer loop
      vertex 3 6 4
      vertex 3 5 4
      vertex 4 5 4
    endloop
  endfacet
  facet normal 0 0 1
    outer loop
      vertex 4 6 4
      vertex 3 6 4
      vertex 4 5 4
    endloop
  endfacet
  facet normal 0 1 0
    outer loop
      vertex 5 3 2
      vertex 5 3 4
      vertex 6 3 2
    endloop
  endfacet
  facet normal 0 1 0
    outer loop
      vertex 6 3 2
      vertex 5 3 4
      vertex 6 3 4
    endloop
  endfacet
  facet normal 0 -1 0
    outer loop
      vertex 5 2 3
      vertex 5 2 2
      vertex 6 2 2
    endloop
  endfacet
  facet normal 0 -1 0
    outer loop
      vertex 6 2 3
      vertex 5 2 3
      vertex 6 2 2
    endloop
  endfacet
  facet normal 0 0 1
    outer loop
      vertex 5 4 2
      vertex 5 3 2
      vertex 6 3 2
    endloop
  endfacet
  facet normal 0 0 1
    outer loop
      vertex 6 4 2
      vertex 5 4 2
      vertex 6 3 2
    endloop
  endfacet
  facet normal 1 0 0
    outer loop
      vertex 3 5 5
      vertex 3 5 4
      vertex 3 6 4
    endloop
  endfacet
  facet normal 1 0 0
    outer loop
      vertex 3 6 5
      vertex 3 5 5
      vertex 3 6 4
    endloop
  endfacet
  facet normal 1 0 0
    outer loop
      vertex 3 6 4
      vertex 3 6 3
      vertex 3 7 3
    endloop
  endfacet
  facet normal 1 0 0
    outer loop
      vertex 3 7 4
      vertex 3 6 4
      vertex 3 7 3
    endloop
  endfacet
endsolid OpenSCAD_Model
