solid OpenSCAD_Model
  facet normal -1 0 0
    outer loop
      vertex 1 6 4
      vertex 1 9 1
      vertex 1 4 5
    endloop
  endfacet
  facet normal -1 0 0
    outer loop
      vertex 1 4 6
      vertex 1 4 5
      vertex 1 2 6
    endloop
  endfacet
  facet normal -1 0 0
    outer loop
      vertex 1 1 1
      vertex 1 1 7
      vertex 1 2 6
    endloop
  endfacet
  facet normal -1 0 0
    outer loop
      vertex 1 1 1
      vertex 1 2 6
      vertex 1 9 1
    endloop
  endfacet
  facet normal -1 0 0
    outer loop
      vertex 1 8 4
      vertex 1 8 3
      vertex 1 6 4
    endloop
  endfacet
  facet normal -1 0 0
    outer loop
      vertex 1 8 3
      vertex 1 9 1
      vertex 1 6 4
    endloop
  endfacet
  facet normal -1 0 0
    outer loop
      vertex 1 6 5
      vertex 1 6 4
      vertex 1 4 5
    endloop
  endfacet
  facet normal -1 0 0
    outer loop
      vertex 1 9 2
      vertex 1 9 1
      vertex 1 8 3
    endloop
  endfacet
  facet normal -1 0 0
    outer loop
      vertex 1 10 3
      vertex 1 9 2
      vertex 1 8 3
    endloop
  endfacet
  facet normal -1 0 0
    outer loop
      vertex 1 9 2
      vertex 1 10 3
      vertex 1 10 2
    endloop
  endfacet
  facet normal -1 0 0
    outer loop
      vertex 1 2 6
      vertex 1 1 7
      vertex 1 2 7
    endloop
  endfacet
  facet normal -1 0 0
    outer loop
      vertex 1 4 5
      vertex 1 9 1
      vertex 1 2 6
    endloop
  endfacet
  facet normal 0 -1 0
    outer loop
      vertex 2 1 6
      vertex 1 1 1
      vertex 7 1 1
    endloop
  endfacet
  facet normal 0 -1 0
    outer loop
      vertex 2 1 6
      vertex 2 1 7
      vertex 1 1 7
    endloop
  endfacet
  facet normal 0 -1 0
    outer loop
      vertex 2 1 6
      vertex 1 1 7
      vertex 1 1 1
    endloop
  endfacet
  facet normal 0 -1 0
    outer loop
      vertex 6 1 3
      vertex 2 1 6
      vertex 7 1 2
    endloop
  endfacet
  facet normal 0 -1 0
    outer loop
      vertex 8 1 2
      vertex 6 1 3
      vertex 7 1 2
    endloop
  endfacet
  facet normal 0 -1 0
    outer loop
      vertex 4 1 6
      vertex 2 1 6
      vertex 4 1 5
    endloop
  endfacet
  facet normal 0 -1 0
    outer loop
      vertex 5 1 4
      vertex 5 1 5
      vertex 4 1 5
    endloop
  endfacet
  facet normal 0 -1 0
    outer loop
      vertex 5 1 4
      vertex 2 1 6
      vertex 6 1 3
    endloop
  endfacet
  facet normal 0 -1 0
    outer loop
      vertex 7 1 2
      vertex 2 1 6
      vertex 7 1 1
    endloop
  endfacet
  facet normal 0 -1 0
    outer loop
      vertex 4 1 5
      vertex 2 1 6
      vertex 5 1 4
    endloop
  endfacet
  facet normal 0 -1 0
    outer loop
      vertex 6 1 3
      vertex 6 1 4
      vertex 5 1 4
    endloop
  endfacet
  facet normal 0 -1 0
    outer loop
      vertex 8 1 3
      vertex 6 1 3
      vertex 8 1 2
    endloop
  endfacet
  facet normal 0 0 -1
    outer loop
      vertex 1 1 1
      vertex 4 5 1
      vertex 7 1 1
    endloop
  endfacet
  facet normal 0 0 -1
    outer loop
      vertex 2 8 1
      vertex 1 9 1
      vertex 2 9 1
    endloop
  endfacet
  facet normal 0 0 -1
    outer loop
      vertex 4 5 1
      vertex 1 9 1
      vertex 2 8 1
    endloop
  endfacet
  facet normal 0 0 -1
    outer loop
      vertex 6 3 1
      vertex 7 1 1
      vertex 5 4 1
    endloop
  endfacet
  facet normal 0 0 -1
    outer loop
      vertex 6 4 1
      vertex 6 3 1
      vertex 5 4 1
    endloop
  endfacet
  facet normal 0 0 -1
    outer loop
      vertex 4 5 1
      vertex 2 8 1
      vertex 3 7 1
    endloop
  endfacet
  facet normal 0 0 -1
    outer loop
      vertex 1 1 1
      vertex 1 9 1
      vertex 4 5 1
    endloop
  endfacet
  facet normal 0 0 -1
    outer loop
      vertex 5 5 1
      vertex 5 4 1
      vertex 4 5 1
    endloop
  endfacet
  facet normal 0 0 -1
    outer loop
      vertex 5 4 1
      vertex 7 1 1
      vertex 4 5 1
    endloop
  endfacet
  facet normal 0 0 -1
    outer loop
      vertex 7 3 1
      vertex 7 1 1
      vertex 6 3 1
    endloop
  endfacet
  facet normal 0 0 -1
    outer loop
      vertex 4 5 1
      vertex 3 7 1
      vertex 4 7 1
    endloop
  endfacet
  facet normal 0 0 -1
    outer loop
      vertex 3 8 1
      vertex 3 7 1
      vertex 2 8 1
    endloop
  endfacet
  facet normal 0 1 0
    outer loop
      vertex 1 9 1
      vertex 1 9 2
      vertex 2 9 1
    endloop
  endfacet
  facet normal 0 1 0
    outer loop
      vertex 2 9 1
      vertex 1 9 2
      vertex 2 9 2
    endloop
  endfacet
  facet normal 0 0 -1
    outer loop
      vertex 1 9 2
      vertex 1 10 2
      vertex 2 9 2
    endloop
  endfacet
  facet normal 0 0 -1
    outer loop
      vertex 2 9 2
      vertex 1 10 2
      vertex 2 10 2
    endloop
  endfacet
  facet normal 0 1 0
    outer loop
      vertex 1 10 2
      vertex 1 10 3
      vertex 2 10 2
    endloop
  endfacet
  facet normal 0 1 0
    outer loop
      vertex 2 10 2
      vertex 1 10 3
      vertex 2 10 3
    endloop
  endfacet
  facet normal 0 0 1
    outer loop
      vertex 1 10 3
      vertex 1 8 3
      vertex 2 8 3
    endloop
  endfacet
  facet normal 0 0 1
    outer loop
      vertex 2 10 3
      vertex 1 10 3
      vertex 2 8 3
    endloop
  endfacet
  facet normal 0 1 0
    outer loop
      vertex 1 8 3
      vertex 1 8 4
      vertex 2 8 3
    endloop
  endfacet
  facet normal 0 1 0
    outer loop
      vertex 2 8 3
      vertex 1 8 4
      vertex 2 8 4
    endloop
  endfacet
  facet normal 0 0 1
    outer loop
      vertex 1 8 4
      vertex 1 6 4
      vertex 2 6 4
    endloop
  endfacet
  facet normal 0 0 1
    outer loop
      vertex 3 5 4
      vertex 1 8 4
      vertex 2 6 4
    endloop
  endfacet
  facet normal 0 0 1
    outer loop
      vertex 2 5 4
      vertex 3 5 4
      vertex 2 6 4
    endloop
  endfacet
  facet normal 0 0 1
    outer loop
      vertex 3 5 4
      vertex 2 7 4
      vertex 1 8 4
    endloop
  endfacet
  facet normal 0 0 1
    outer loop
      vertex 3 5 4
      vertex 3 7 4
      vertex 2 7 4
    endloop
  endfacet
  facet normal 0 0 1
    outer loop
      vertex 2 7 4
      vertex 2 8 4
      vertex 1 8 4
    endloop
  endfacet
  facet normal 0 1 0
    outer loop
      vertex 1 6 4
      vertex 1 6 5
      vertex 2 6 4
    endloop
  endfacet
  facet normal 0 1 0
    outer loop
      vertex 2 6 4
      vertex 1 6 5
      vertex 2 6 5
    endloop
  endfacet
  facet normal 0 0 1
    outer loop
      vertex 3 3 5
      vertex 4 2 5
      vertex 1 6 5
    endloop
  endfacet
  facet normal 0 0 1
    outer loop
      vertex 1 6 5
      vertex 1 4 5
      vertex 2 4 5
    endloop
  endfacet
  facet normal 0 0 1
    outer loop
      vertex 3 3 5
      vertex 1 6 5
      vertex 2 4 5
    endloop
  endfacet
  facet normal 0 0 1
    outer loop
      vertex 2 3 5
      vertex 3 3 5
      vertex 2 4 5
    endloop
  endfacet
  facet normal 0 0 1
    outer loop
      vertex 3 2 5
      vertex 4 2 5
      vertex 3 3 5
    endloop
  endfacet
  facet normal 0 0 1
    outer loop
      vertex 2 5 5
      vertex 2 6 5
      vertex 1 6 5
    endloop
  endfacet
  facet normal 0 0 1
    outer loop
      vertex 4 2 5
      vertex 3 4 5
      vertex 2 5 5
    endloop
  endfacet
  facet normal 0 0 1
    outer loop
      vertex 4 2 5
      vertex 4 4 5
      vertex 3 4 5
    endloop
  endfacet
  facet normal 0 0 1
    outer loop
      vertex 4 2 5
      vertex 2 5 5
      vertex 1 6 5
    endloop
  endfacet
  facet normal 0 0 1
    outer loop
      vertex 3 4 5
      vertex 3 5 5
      vertex 2 5 5
    endloop
  endfacet
  facet normal 0 1 0
    outer loop
      vertex 1 4 5
      vertex 1 4 6
      vertex 2 4 5
    endloop
  endfacet
  facet normal 0 1 0
    outer loop
      vertex 2 4 5
      vertex 1 4 6
      vertex 2 4 6
    endloop
  endfacet
  facet normal 0 0 1
    outer loop
      vertex 1 4 6
      vertex 1 2 6
      vertex 2 2 6
    endloop
  endfacet
  facet normal 0 0 1
    outer loop
      vertex 4 1 6
      vertex 3 2 6
      vertex 2 2 6
    endloop
  endfacet
  facet normal 0 0 1
    outer loop
      vertex 2 1 6
      vertex 4 1 6
      vertex 2 2 6
    endloop
  endfacet
  facet normal 0 0 1
    outer loop
      vertex 2 3 6
      vertex 2 4 6
      vertex 1 4 6
    endloop
  endfacet
  facet normal 0 0 1
    outer loop
      vertex 2 2 6
      vertex 3 2 6
      vertex 2 3 6
    endloop
  endfacet
  facet normal 0 0 1
    outer loop
      vertex 4 1 6
      vertex 4 2 6
      vertex 3 2 6
    endloop
  endfacet
  facet normal 0 0 1
    outer loop
      vertex 2 2 6
      vertex 2 3 6
      vertex 1 4 6
    endloop
  endfacet
  facet normal 0 0 1
    outer loop
      vertex 3 2 6
      vertex 3 3 6
      vertex 2 3 6
    endloop
  endfacet
  facet normal 0 1 0
    outer loop
      vertex 1 2 6
      vertex 1 2 7
      vertex 2 2 6
    endloop
  endfacet
  facet normal 0 1 0
    outer loop
      vertex 2 2 6
      vertex 1 2 7
      vertex 2 2 7
    endloop
  endfacet
  facet normal 0 0 1
    outer loop
      vertex 1 2 7
      vertex 1 1 7
      vertex 2 1 7
    endloop
  endfacet
  facet normal 0 0 1
    outer loop
      vertex 2 2 7
      vertex 1 2 7
      vertex 2 1 7
    endloop
  endfacet
  facet normal 1 0 0
    outer loop
      vertex 2 1 7
      vertex 2 1 6
      vertex 2 2 6
    endloop
  endfacet
  facet normal 1 0 0
    outer loop
      vertex 2 2 7
      vertex 2 1 7
      vertex 2 2 6
    endloop
  endfacet
  facet normal 1 0 0
    outer loop
      vertex 4 1 6
      vertex 4 1 5
      vertex 4 2 5
    endloop
  endfacet
  facet normal 1 0 0
    outer loop
      vertex 4 2 6
      vertex 4 1 6
      vertex 4 2 5
    endloop
  endfacet
  facet normal 0 0 1
    outer loop
      vertex 4 2 5
      vertex 4 1 5
      vertex 5 1 5
    endloop
  endfacet
  facet normal 0 0 1
    outer loop
      vertex 5 2 5
      vertex 4 2 5
      vertex 5 1 5
    endloop
  endfacet
  facet normal 1 0 0
    outer loop
      vertex 5 1 5
      vertex 5 1 4
      vertex 5 2 4
    endloop
  endfacet
  facet normal 1 0 0
    outer loop
      vertex 5 2 5
      vertex 5 1 5
      vertex 5 2 4
    endloop
  endfacet
  facet normal 0 0 1
    outer loop
      vertex 4 4 4
      vertex 4 2 4
      vertex 5 2 4
    endloop
  endfacet
  facet normal 0 0 1
    outer loop
      vertex 6 1 4
      vertex 4 4 4
      vertex 5 2 4
    endloop
  endfacet
  facet normal 0 0 1
    outer loop
      vertex 5 1 4
      vertex 6 1 4
      vertex 5 2 4
    endloop
  endfacet
  facet normal 0 0 1
    outer loop
      vertex 6 1 4
      vertex 5 3 4
      vertex 4 4 4
    endloop
  endfacet
  facet normal 0 0 1
    outer loop
      vertex 6 1 4
      vertex 6 3 4
      vertex 5 3 4
    endloop
  endfacet
  facet normal 0 0 1
    outer loop
      vertex 5 3 4
      vertex 5 4 4
      vertex 4 4 4
    endloop
  endfacet
  facet normal 1 0 0
    outer loop
      vertex 6 1 4
      vertex 6 1 3
      vertex 6 3 3
    endloop
  endfacet
  facet normal 1 0 0
    outer loop
      vertex 6 3 4
      vertex 6 1 4
      vertex 6 3 3
    endloop
  endfacet
  facet normal 0 0 1
    outer loop
      vertex 7 2 3
      vertex 6 1 3
      vertex 8 1 3
    endloop
  endfacet
  facet normal 0 0 1
    outer loop
      vertex 7 2 3
      vertex 6 3 3
      vertex 6 1 3
    endloop
  endfacet
  facet normal 0 0 1
    outer loop
      vertex 8 2 3
      vertex 7 2 3
      vertex 8 1 3
    endloop
  endfacet
  facet normal 0 0 1
    outer loop
      vertex 7 2 3
      vertex 7 3 3
      vertex 6 3 3
    endloop
  endfacet
  facet normal 1 0 0
    outer loop
      vertex 8 1 3
      vertex 8 1 2
      vertex 8 2 2
    endloop
  endfacet
  facet normal 1 0 0
    outer loop
      vertex 8 2 3
      vertex 8 1 3
      vertex 8 2 2
    endloop
  endfacet
  facet normal 0 0 -1
    outer loop
      vertex 7 1 2
      vertex 7 2 2
      vertex 8 1 2
    endloop
  endfacet
  facet normal 0 0 -1
    outer loop
      vertex 8 1 2
      vertex 7 2 2
      vertex 8 2 2
    endloop
  endfacet
  facet normal 1 0 0
    outer loop
      vertex 7 1 2
      vertex 7 1 1
      vertex 7 3 1
    endloop
  endfacet
  facet normal 1 0 0
    outer loop
      vertex 7 2 2
      vertex 7 1 2
      vertex 7 3 1
    endloop
  endfacet
  facet normal 1 0 0
    outer loop
      vertex 7 3 3
      vertex 7 2 2
      vertex 7 3 1
    endloop
  endfacet
  facet normal 1 0 0
    outer loop
      vertex 7 2 3
      vertex 7 2 2
      vertex 7 3 3
    endloop
  endfacet
  facet normal 0 1 0
    outer loop
      vertex 6 3 1
      vertex 6 3 3
      vertex 7 3 1
    endloop
  endfacet
  facet normal 0 1 0
    outer loop
      vertex 7 3 1
      vertex 6 3 3
      vertex 7 3 3
    endloop
  endfacet
  facet normal 1 0 0
    outer loop
      vertex 6 3 3
      vertex 6 3 1
      vertex 6 4 1
    endloop
  endfacet
  facet normal 1 0 0
    outer loop
      vertex 6 5 2
      vertex 6 3 3
      vertex 6 4 2
    endloop
  endfacet
  facet normal 1 0 0
    outer loop
      vertex 6 4 2
      vertex 6 3 3
      vertex 6 4 1
    endloop
  endfacet
  facet normal 1 0 0
    outer loop
      vertex 6 5 3
      vertex 6 3 3
      vertex 6 5 2
    endloop
  endfacet
  facet normal 0 1 0
    outer loop
      vertex 5 4 1
      vertex 5 4 2
      vertex 6 4 1
    endloop
  endfacet
  facet normal 0 1 0
    outer loop
      vertex 6 4 1
      vertex 5 4 2
      vertex 6 4 2
    endloop
  endfacet
  facet normal 1 0 0
    outer loop
      vertex 5 4 2
      vertex 5 4 1
      vertex 5 5 1
    endloop
  endfacet
  facet normal 1 0 0
    outer loop
      vertex 5 5 2
      vertex 5 4 2
      vertex 5 5 1
    endloop
  endfacet
  facet normal 0 1 0
    outer loop
      vertex 4 5 1
      vertex 4 5 2
      vertex 5 5 1
    endloop
  endfacet
  facet normal 0 1 0
    outer loop
      vertex 5 5 1
      vertex 4 5 2
      vertex 5 5 2
    endloop
  endfacet
  facet normal 1 0 0
    outer loop
      vertex 4 5 2
      vertex 4 5 1
      vertex 4 7 1
    endloop
  endfacet
  facet normal 1 0 0
    outer loop
      vertex 4 6 2
      vertex 4 5 2
      vertex 4 7 1
    endloop
  endfacet
  facet normal 1 0 0
    outer loop
      vertex 4 7 3
      vertex 4 6 2
      vertex 4 7 1
    endloop
  endfacet
  facet normal 1 0 0
    outer loop
      vertex 4 6 3
      vertex 4 6 2
      vertex 4 7 3
    endloop
  endfacet
  facet normal 0 1 0
    outer loop
      vertex 3 7 1
      vertex 3 7 3
      vertex 4 7 1
    endloop
  endfacet
  facet normal 0 1 0
    outer loop
      vertex 4 7 1
      vertex 3 7 3
      vertex 4 7 3
    endloop
  endfacet
  facet normal 1 0 0
    outer loop
      vertex 3 7 3
      vertex 3 7 1
      vertex 3 8 1
    endloop
  endfacet
  facet normal 1 0 0
    outer loop
      vertex 3 8 3
      vertex 3 7 3
      vertex 3 8 1
    endloop
  endfacet
  facet normal 0 1 0
    outer loop
      vertex 2 8 1
      vertex 2 8 3
      vertex 3 8 1
    endloop
  endfacet
  facet normal 0 1 0
    outer loop
      vertex 3 8 1
      vertex 2 8 3
      vertex 3 8 3
    endloop
  endfacet
  facet normal 1 0 0
    outer loop
      vertex 2 8 3
      vertex 2 8 1
      vertex 2 9 1
    endloop
  endfacet
  facet normal 1 0 0
    outer loop
      vertex 2 10 2
      vertex 2 8 3
      vertex 2 9 2
    endloop
  endfacet
  facet normal 1 0 0
    outer loop
      vertex 2 9 2
      vertex 2 8 3
      vertex 2 9 1
    endloop
  endfacet
  facet normal 1 0 0
    outer loop
      vertex 2 10 3
      vertex 2 8 3
      vertex 2 10 2
    endloop
  endfacet
  facet normal 1 0 0
    outer loop
      vertex 2 7 4
      vertex 2 7 3
      vertex 2 8 3
    endloop
  endfacet
  facet normal 1 0 0
    outer loop
      vertex 2 8 4
      vertex 2 7 4
      vertex 2 8 3
    endloop
  endfacet
  facet normal 0 0 1
    outer loop
      vertex 2 8 3
      vertex 2 7 3
      vertex 3 7 3
    endloop
  endfacet
  facet normal 0 0 1
    outer loop
      vertex 3 8 3
      vertex 2 8 3
      vertex 3 7 3
    endloop
  endfacet
  facet normal 0 1 0
    outer loop
      vertex 2 7 3
      vertex 2 7 4
      vertex 3 7 3
    endloop
  endfacet
  facet normal 0 1 0
    outer loop
      vertex 3 7 3
      vertex 2 7 4
      vertex 3 7 4
    endloop
  endfacet
  facet normal 1 0 0
    outer loop
      vertex 3 5 4
      vertex 3 5 3
      vertex 3 7 3
    endloop
  endfacet
  facet normal 1 0 0
    outer loop
      vertex 3 7 4
      vertex 3 5 4
      vertex 3 7 3
    endloop
  endfacet
  facet normal 1 0 0
    outer loop
      vertex 3 4 5
      vertex 3 4 4
      vertex 3 5 4
    endloop
  endfacet
  facet normal 1 0 0
    outer loop
      vertex 3 5 5
      vertex 3 4 5
      vertex 3 5 4
    endloop
  endfacet
  facet normal 0 1 0
    outer loop
      vertex 2 5 4
      vertex 2 5 5
      vertex 3 5 4
    endloop
  endfacet
  facet normal 0 1 0
    outer loop
      vertex 3 5 4
      vertex 2 5 5
      vertex 3 5 5
    endloop
  endfacet
  facet normal 0 1 0
    outer loop
      vertex 3 5 3
      vertex 3 5 4
      vertex 4 5 3
    endloop
  endfacet
  facet normal 0 1 0
    outer loop
      vertex 4 5 3
      vertex 3 5 4
      vertex 4 5 4
    endloop
  endfacet
  facet normal 0 0 1
    outer loop
      vertex 3 5 4
      vertex 3 4 4
      vertex 4 4 4
    endloop
  endfacet
  facet normal 0 0 1
    outer loop
      vertex 4 5 4
      vertex 3 5 4
      vertex 4 4 4
    endloop
  endfacet
  facet normal 1 0 0
    outer loop
      vertex 2 5 5
      vertex 2 5 4
      vertex 2 6 4
    endloop
  endfacet
  facet normal 1 0 0
    outer loop
      vertex 2 6 5
      vertex 2 5 5
      vertex 2 6 4
    endloop
  endfacet
  facet normal 0 1 0
    outer loop
      vertex 3 4 4
      vertex 3 4 5
      vertex 4 4 4
    endloop
  endfacet
  facet normal 0 1 0
    outer loop
      vertex 4 4 4
      vertex 3 4 5
      vertex 4 4 5
    endloop
  endfacet
  facet normal 1 0 0
    outer loop
      vertex 4 2 5
      vertex 4 2 4
      vertex 4 4 4
    endloop
  endfacet
  facet normal 1 0 0
    outer loop
      vertex 4 4 5
      vertex 4 2 5
      vertex 4 4 4
    endloop
  endfacet
  facet normal 0 1 0
    outer loop
      vertex 3 2 5
      vertex 3 2 6
      vertex 4 2 5
    endloop
  endfacet
  facet normal 0 1 0
    outer loop
      vertex 4 2 5
      vertex 3 2 6
      vertex 4 2 6
    endloop
  endfacet
  facet normal 0 1 0
    outer loop
      vertex 4 2 4
      vertex 4 2 5
      vertex 5 2 4
    endloop
  endfacet
  facet normal 0 1 0
    outer loop
      vertex 5 2 4
      vertex 4 2 5
      vertex 5 2 5
    endloop
  endfacet
  facet normal 1 0 0
    outer loop
      vertex 3 2 6
      vertex 3 2 5
      vertex 3 3 5
    endloop
  endfacet
  facet normal 1 0 0
    outer loop
      vertex 3 3 6
      vertex 3 2 6
      vertex 3 3 5
    endloop
  endfacet
  facet normal 0 1 0
    outer loop
      vertex 2 3 5
      vertex 2 3 6
      vertex 3 3 5
    endloop
  endfacet
  facet normal 0 1 0
    outer loop
      vertex 3 3 5
      vertex 2 3 6
      vertex 3 3 6
    endloop
  endfacet
  facet normal 1 0 0
    outer loop
      vertex 2 3 6
      vertex 2 3 5
      vertex 2 4 5
    endloop
  endfacet
  facet normal 1 0 0
    outer loop
      vertex 2 4 6
      vertex 2 3 6
      vertex 2 4 5
    endloop
  endfacet
  facet normal 1 0 0
    outer loop
      vertex 4 4 4
      vertex 4 4 3
      vertex 4 5 3
    endloop
  endfacet
  facet normal 1 0 0
    outer loop
      vertex 4 5 4
      vertex 4 4 4
      vertex 4 5 3
    endloop
  endfacet
  facet normal 0 1 0
    outer loop
      vertex 4 4 3
      vertex 4 4 4
      vertex 5 4 3
    endloop
  endfacet
  facet normal 0 1 0
    outer loop
      vertex 5 4 3
      vertex 4 4 4
      vertex 5 4 4
    endloop
  endfacet
  facet normal 1 0 0
    outer loop
      vertex 5 3 4
      vertex 5 3 3
      vertex 5 4 3
    endloop
  endfacet
  facet normal 1 0 0
    outer loop
      vertex 5 4 4
      vertex 5 3 4
      vertex 5 4 3
    endloop
  endfacet
  facet normal 0 1 0
    outer loop
      vertex 5 3 3
      vertex 5 3 4
      vertex 6 3 3
    endloop
  endfacet
  facet normal 0 1 0
    outer loop
      vertex 6 3 3
      vertex 5 3 4
      vertex 6 3 4
    endloop
  endfacet
  facet normal 0 0 1
    outer loop
      vertex 5 4 3
      vertex 6 3 3
      vertex 3 7 3
    endloop
  endfacet
  facet normal 0 0 1
    outer loop
      vertex 3 7 3
      vertex 3 5 3
      vertex 4 5 3
    endloop
  endfacet
  facet normal 0 0 1
    outer loop
      vertex 5 4 3
      vertex 3 7 3
      vertex 4 5 3
    endloop
  endfacet
  facet normal 0 0 1
    outer loop
      vertex 4 4 3
      vertex 5 4 3
      vertex 4 5 3
    endloop
  endfacet
  facet normal 0 0 1
    outer loop
      vertex 5 3 3
      vertex 6 3 3
      vertex 5 4 3
    endloop
  endfacet
  facet normal 0 0 1
    outer loop
      vertex 4 6 3
      vertex 4 7 3
      vertex 3 7 3
    endloop
  endfacet
  facet normal 0 0 1
    outer loop
      vertex 6 3 3
      vertex 5 5 3
      vertex 4 6 3
    endloop
  endfacet
  facet normal 0 0 1
    outer loop
      vertex 6 3 3
      vertex 6 5 3
      vertex 5 5 3
    endloop
  endfacet
  facet normal 0 0 1
    outer loop
      vertex 6 3 3
      vertex 4 6 3
      vertex 3 7 3
    endloop
  endfacet
  facet normal 0 0 1
    outer loop
      vertex 5 5 3
      vertex 5 6 3
      vertex 4 6 3
    endloop
  endfacet
  facet normal 0 1 0
    outer loop
      vertex 7 2 2
      vertex 7 2 3
      vertex 8 2 2
    endloop
  endfacet
  facet normal 0 1 0
    outer loop
      vertex 8 2 2
      vertex 7 2 3
      vertex 8 2 3
    endloop
  endfacet
  facet normal 0 1 0
    outer loop
      vertex 5 5 2
      vertex 5 5 3
      vertex 6 5 2
    endloop
  endfacet
  facet normal 0 1 0
    outer loop
      vertex 6 5 2
      vertex 5 5 3
      vertex 6 5 3
    endloop
  endfacet
  facet normal 0 0 -1
    outer loop
      vertex 5 4 2
      vertex 5 5 2
      vertex 6 4 2
    endloop
  endfacet
  facet normal 0 0 -1
    outer loop
      vertex 6 4 2
      vertex 5 5 2
      vertex 6 5 2
    endloop
  endfacet
  facet normal 1 0 0
    outer loop
      vertex 5 5 3
      vertex 5 5 2
      vertex 5 6 2
    endloop
  endfacet
  facet normal 1 0 0
    outer loop
      vertex 5 6 3
      vertex 5 5 3
      vertex 5 6 2
    endloop
  endfacet
  facet normal 0 0 -1
    outer loop
      vertex 4 5 2
      vertex 4 6 2
      vertex 5 5 2
    endloop
  endfacet
  facet normal 0 0 -1
    outer loop
      vertex 5 5 2
      vertex 4 6 2
      vertex 5 6 2
    endloop
  endfacet
  facet normal 0 1 0
    outer loop
      vertex 4 6 2
      vertex 4 6 3
      vertex 5 6 2
    endloop
  endfacet
  facet normal 0 1 0
    outer loop
      vertex 5 6 2
      vertex 4 6 3
      vertex 5 6 3
    endloop
  endfacet
endsolid OpenSCAD_Model
