solid OpenSCAD_Model
  facet normal -1 0 0
    outer loop
      vertex 6 6 9
      vertex 6 6 11
      vertex 6 7 9
    endloop
  endfacet
  facet normal -1 0 0
    outer loop
      vertex 6 7 9
      vertex 6 6 11
      vertex 6 8 11
    endloop
  endfacet
  facet normal -1 0 0
    outer loop
      vertex 6 8 11
      vertex 6 8 12
      vertex 6 10 12
    endloop
  endfacet
  facet normal -1 0 0
    outer loop
      vertex 6 8 11
      vertex 6 10 12
      vertex 6 7 9
    endloop
  endfacet
  facet normal -1 0 0
    outer loop
      vertex 6 7 9
      vertex 6 10 12
      vertex 6 10 11
    endloop
  endfacet
  facet normal -1 0 0
    outer loop
      vertex 6 7 9
      vertex 6 10 11
      vertex 6 11 11
    endloop
  endfacet
  facet normal -1 0 0
    outer loop
      vertex 6 9 9
      vertex 6 11 11
      vertex 6 11 9
    endloop
  endfacet
  facet normal -1 0 0
    outer loop
      vertex 6 7 9
      vertex 6 11 11
      vertex 6 9 9
    endloop
  endfacet
  facet normal -1 0 0
    outer loop
      vertex 6 7 7
      vertex 6 7 9
      vertex 6 8 7
    endloop
  endfacet
  facet normal -1 0 0
    outer loop
      vertex 6 9 9
      vertex 6 9 6
      vertex 6 7 9
    endloop
  endfacet
  facet normal -1 0 0
    outer loop
      vertex 6 9 6
      vertex 6 8 6
      vertex 6 8 7
    endloop
  endfacet
  facet normal -1 0 0
    outer loop
      vertex 6 9 6
      vertex 6 8 7
      vertex 6 7 9
    endloop
  endfacet
  facet normal 0 -1 0
    outer loop
      vertex 6 6 11
      vertex 6 6 9
      vertex 7 6 9
    endloop
  endfacet
  facet normal 0 -1 0
    outer loop
      vertex 8 6 10
      vertex 6 6 11
      vertex 7 6 10
    endloop
  endfacet
  facet normal 0 -1 0
    outer loop
      vertex 7 6 10
      vertex 6 6 11
      vertex 7 6 9
    endloop
  endfacet
  facet normal 0 -1 0
    outer loop
      vertex 11 6 8
      vertex 9 6 9
      vertex 12 6 7
    endloop
  endfacet
  facet normal 0 -1 0
    outer loop
      vertex 7 6 7
      vertex 8 6 9
      vertex 7 6 9
    endloop
  endfacet
  facet normal 0 -1 0
    outer loop
      vertex 9 6 6
      vertex 8 6 10
      vertex 8 6 9
    endloop
  endfacet
  facet normal 0 -1 0
    outer loop
      vertex 8 6 7
      vertex 8 6 9
      vertex 7 6 7
    endloop
  endfacet
  facet normal 0 -1 0
    outer loop
      vertex 9 6 6
      vertex 8 6 9
      vertex 8 6 7
    endloop
  endfacet
  facet normal 0 -1 0
    outer loop
      vertex 9 6 6
      vertex 8 6 7
      vertex 8 6 6
    endloop
  endfacet
  facet normal 0 -1 0
    outer loop
      vertex 9 6 7
      vertex 8 6 10
      vertex 9 6 6
    endloop
  endfacet
  facet normal 0 -1 0
    outer loop
      vertex 9 6 9
      vertex 8 6 10
      vertex 9 6 7
    endloop
  endfacet
  facet normal 0 -1 0
    outer loop
      vertex 9 6 9
      vertex 9 6 10
      vertex 8 6 10
    endloop
  endfacet
  facet normal 0 -1 0
    outer loop
      vertex 12 6 8
      vertex 11 6 8
      vertex 12 6 7
    endloop
  endfacet
  facet normal 0 -1 0
    outer loop
      vertex 10 6 9
      vertex 9 6 9
      vertex 11 6 8
    endloop
  endfacet
  facet normal 0 -1 0
    outer loop
      vertex 12 6 10
      vertex 10 6 10
      vertex 12 6 9
    endloop
  endfacet
  facet normal 0 -1 0
    outer loop
      vertex 8 6 10
      vertex 9 6 10
      vertex 6 6 11
    endloop
  endfacet
  facet normal 0 -1 0
    outer loop
      vertex 10 6 10
      vertex 10 6 11
      vertex 6 6 11
    endloop
  endfacet
  facet normal 0 -1 0
    outer loop
      vertex 12 6 7
      vertex 9 6 9
      vertex 9 6 7
    endloop
  endfacet
  facet normal 0 -1 0
    outer loop
      vertex 10 6 10
      vertex 6 6 11
      vertex 9 6 10
    endloop
  endfacet
  facet normal 0 -1 0
    outer loop
      vertex 11 6 8
      vertex 11 6 9
      vertex 10 6 9
    endloop
  endfacet
  facet normal 0 -1 0
    outer loop
      vertex 10 6 10
      vertex 11 6 9
      vertex 12 6 9
    endloop
  endfacet
  facet normal 0 -1 0
    outer loop
      vertex 10 6 10
      vertex 10 6 9
      vertex 11 6 9
    endloop
  endfacet
  facet normal 0 0 -1
    outer loop
      vertex 6 6 9
      vertex 6 7 9
      vertex 7 6 9
    endloop
  endfacet
  facet normal 0 0 -1
    outer loop
      vertex 7 6 9
      vertex 6 7 9
      vertex 7 7 9
    endloop
  endfacet
  facet normal 0 -1 0
    outer loop
      vertex 6 7 9
      vertex 6 7 7
      vertex 7 7 7
    endloop
  endfacet
  facet normal 0 -1 0
    outer loop
      vertex 7 7 9
      vertex 6 7 9
      vertex 7 7 7
    endloop
  endfacet
  facet normal 0 0 -1
    outer loop
      vertex 6 7 7
      vertex 6 8 7
      vertex 7 7 7
    endloop
  endfacet
  facet normal 0 0 -1
    outer loop
      vertex 7 7 7
      vertex 6 8 7
      vertex 8 8 7
    endloop
  endfacet
  facet normal 0 0 -1
    outer loop
      vertex 7 7 7
      vertex 8 8 7
      vertex 8 6 7
    endloop
  endfacet
  facet normal 0 0 -1
    outer loop
      vertex 7 7 7
      vertex 8 6 7
      vertex 7 6 7
    endloop
  endfacet
  facet normal 0 -1 0
    outer loop
      vertex 6 8 7
      vertex 6 8 6
      vertex 8 8 6
    endloop
  endfacet
  facet normal 0 -1 0
    outer loop
      vertex 8 8 7
      vertex 6 8 7
      vertex 8 8 6
    endloop
  endfacet
  facet normal 0 0 -1
    outer loop
      vertex 6 8 6
      vertex 6 9 6
      vertex 8 8 6
    endloop
  endfacet
  facet normal 0 0 -1
    outer loop
      vertex 8 8 6
      vertex 6 9 6
      vertex 8 9 6
    endloop
  endfacet
  facet normal 0 0 -1
    outer loop
      vertex 8 9 6
      vertex 8 10 6
      vertex 10 10 6
    endloop
  endfacet
  facet normal 0 0 -1
    outer loop
      vertex 8 9 6
      vertex 10 10 6
      vertex 8 8 6
    endloop
  endfacet
  facet normal 0 0 -1
    outer loop
      vertex 10 10 6
      vertex 10 11 6
      vertex 12 11 6
    endloop
  endfacet
  facet normal 0 0 -1
    outer loop
      vertex 10 10 6
      vertex 12 11 6
      vertex 8 8 6
    endloop
  endfacet
  facet normal 0 0 -1
    outer loop
      vertex 8 8 6
      vertex 12 11 6
      vertex 12 7 6
    endloop
  endfacet
  facet normal 0 0 -1
    outer loop
      vertex 8 8 6
      vertex 12 7 6
      vertex 9 7 6
    endloop
  endfacet
  facet normal 0 0 -1
    outer loop
      vertex 8 8 6
      vertex 9 7 6
      vertex 9 6 6
    endloop
  endfacet
  facet normal 0 0 -1
    outer loop
      vertex 8 8 6
      vertex 9 6 6
      vertex 8 6 6
    endloop
  endfacet
  facet normal 0 1 0
    outer loop
      vertex 8 9 7
      vertex 8 9 6
      vertex 7 9 7
    endloop
  endfacet
  facet normal 0 1 0
    outer loop
      vertex 6 9 6
      vertex 6 9 9
      vertex 7 9 7
    endloop
  endfacet
  facet normal 0 1 0
    outer loop
      vertex 6 9 6
      vertex 7 9 7
      vertex 8 9 6
    endloop
  endfacet
  facet normal 0 1 0
    outer loop
      vertex 7 9 7
      vertex 6 9 9
      vertex 7 9 9
    endloop
  endfacet
  facet normal 0 0 -1
    outer loop
      vertex 6 9 9
      vertex 6 11 9
      vertex 7 9 9
    endloop
  endfacet
  facet normal 0 0 -1
    outer loop
      vertex 7 10 9
      vertex 6 11 9
      vertex 8 11 9
    endloop
  endfacet
  facet normal 0 0 -1
    outer loop
      vertex 7 9 9
      vertex 6 11 9
      vertex 7 10 9
    endloop
  endfacet
  facet normal 0 0 -1
    outer loop
      vertex 7 10 9
      vertex 8 11 9
      vertex 8 10 9
    endloop
  endfacet
  facet normal 0 1 0
    outer loop
      vertex 6 11 9
      vertex 7 11 10
      vertex 8 11 9
    endloop
  endfacet
  facet normal 0 1 0
    outer loop
      vertex 7 11 10
      vertex 6 11 11
      vertex 7 11 11
    endloop
  endfacet
  facet normal 0 1 0
    outer loop
      vertex 6 11 9
      vertex 6 11 11
      vertex 7 11 10
    endloop
  endfacet
  facet normal 0 1 0
    outer loop
      vertex 8 11 10
      vertex 8 11 9
      vertex 7 11 10
    endloop
  endfacet
  facet normal 0 0 1
    outer loop
      vertex 6 11 11
      vertex 6 10 11
      vertex 7 10 11
    endloop
  endfacet
  facet normal 0 0 1
    outer loop
      vertex 7 11 11
      vertex 6 11 11
      vertex 7 10 11
    endloop
  endfacet
  facet normal 0 1 0
    outer loop
      vertex 6 10 11
      vertex 6 10 12
      vertex 7 10 11
    endloop
  endfacet
  facet normal 0 1 0
    outer loop
      vertex 7 10 11
      vertex 6 10 12
      vertex 7 10 12
    endloop
  endfacet
  facet normal 0 0 1
    outer loop
      vertex 6 10 12
      vertex 6 8 12
      vertex 8 8 12
    endloop
  endfacet
  facet normal 0 0 1
    outer loop
      vertex 11 7 12
      vertex 6 10 12
      vertex 8 8 12
    endloop
  endfacet
  facet normal 0 0 1
    outer loop
      vertex 8 7 12
      vertex 11 7 12
      vertex 8 8 12
    endloop
  endfacet
  facet normal 0 0 1
    outer loop
      vertex 11 7 12
      vertex 8 10 12
      vertex 7 10 12
    endloop
  endfacet
  facet normal 0 0 1
    outer loop
      vertex 11 7 12
      vertex 11 10 12
      vertex 8 10 12
    endloop
  endfacet
  facet normal 0 0 1
    outer loop
      vertex 11 7 12
      vertex 7 10 12
      vertex 6 10 12
    endloop
  endfacet
  facet normal 0 0 1
    outer loop
      vertex 8 10 12
      vertex 8 11 12
      vertex 7 10 12
    endloop
  endfacet
  facet normal 0 0 1
    outer loop
      vertex 7 11 12
      vertex 7 10 12
      vertex 8 11 12
    endloop
  endfacet
  facet normal 0 -1 0
    outer loop
      vertex 6 8 12
      vertex 6 8 11
      vertex 8 8 11
    endloop
  endfacet
  facet normal 0 -1 0
    outer loop
      vertex 8 8 12
      vertex 6 8 12
      vertex 8 8 11
    endloop
  endfacet
  facet normal 0 0 1
    outer loop
      vertex 8 7 11
      vertex 6 6 11
      vertex 10 6 11
    endloop
  endfacet
  facet normal 0 0 1
    outer loop
      vertex 8 7 11
      vertex 6 8 11
      vertex 6 6 11
    endloop
  endfacet
  facet normal 0 0 1
    outer loop
      vertex 10 7 11
      vertex 8 7 11
      vertex 10 6 11
    endloop
  endfacet
  facet normal 0 0 1
    outer loop
      vertex 8 7 11
      vertex 8 8 11
      vertex 6 8 11
    endloop
  endfacet
  facet normal 1 0 0
    outer loop
      vertex 10 6 11
      vertex 10 6 10
      vertex 10 7 10
    endloop
  endfacet
  facet normal 1 0 0
    outer loop
      vertex 10 7 11
      vertex 10 6 11
      vertex 10 7 10
    endloop
  endfacet
  facet normal 0 0 1
    outer loop
      vertex 9 6 10
      vertex 9 5 10
      vertex 10 5 10
    endloop
  endfacet
  facet normal 0 0 1
    outer loop
      vertex 10 6 10
      vertex 9 6 10
      vertex 10 5 10
    endloop
  endfacet
  facet normal 0 0 1
    outer loop
      vertex 10 7 10
      vertex 10 6 10
      vertex 12 6 10
    endloop
  endfacet
  facet normal 0 0 1
    outer loop
      vertex 12 7 10
      vertex 10 7 10
      vertex 12 6 10
    endloop
  endfacet
  facet normal 1 0 0
    outer loop
      vertex 10 5 10
      vertex 10 5 9
      vertex 10 6 9
    endloop
  endfacet
  facet normal 1 0 0
    outer loop
      vertex 10 6 10
      vertex 10 5 10
      vertex 10 6 9
    endloop
  endfacet
  facet normal -1 0 0
    outer loop
      vertex 9 5 9
      vertex 9 5 10
      vertex 9 6 9
    endloop
  endfacet
  facet normal -1 0 0
    outer loop
      vertex 9 6 9
      vertex 9 5 10
      vertex 9 6 10
    endloop
  endfacet
  facet normal 0 0 -1
    outer loop
      vertex 9 5 9
      vertex 9 6 9
      vertex 10 5 9
    endloop
  endfacet
  facet normal 0 0 -1
    outer loop
      vertex 10 5 9
      vertex 9 6 9
      vertex 10 6 9
    endloop
  endfacet
  facet normal 1 0 0
    outer loop
      vertex 12 6 8
      vertex 12 6 7
      vertex 12 7 7
    endloop
  endfacet
  facet normal 1 0 0
    outer loop
      vertex 12 11 6
      vertex 12 6 8
      vertex 12 7 7
    endloop
  endfacet
  facet normal 1 0 0
    outer loop
      vertex 12 7 6
      vertex 12 11 6
      vertex 12 7 7
    endloop
  endfacet
  facet normal 1 0 0
    outer loop
      vertex 12 11 6
      vertex 12 11 8
      vertex 12 7 8
    endloop
  endfacet
  facet normal 1 0 0
    outer loop
      vertex 12 12 8
      vertex 12 12 10
      vertex 12 11 8
    endloop
  endfacet
  facet normal 1 0 0
    outer loop
      vertex 12 7 9
      vertex 12 12 10
      vertex 12 11 10
    endloop
  endfacet
  facet normal 1 0 0
    outer loop
      vertex 12 11 11
      vertex 12 7 11
      vertex 12 7 10
    endloop
  endfacet
  facet normal 1 0 0
    outer loop
      vertex 12 6 9
      vertex 12 7 9
      vertex 12 7 10
    endloop
  endfacet
  facet normal 1 0 0
    outer loop
      vertex 12 11 11
      vertex 12 7 10
      vertex 12 7 9
    endloop
  endfacet
  facet normal 1 0 0
    outer loop
      vertex 12 11 6
      vertex 12 7 8
      vertex 12 6 8
    endloop
  endfacet
  facet normal 1 0 0
    outer loop
      vertex 12 11 8
      vertex 12 12 10
      vertex 12 7 8
    endloop
  endfacet
  facet normal 1 0 0
    outer loop
      vertex 12 7 9
      vertex 12 11 10
      vertex 12 11 11
    endloop
  endfacet
  facet normal 1 0 0
    outer loop
      vertex 12 7 10
      vertex 12 6 10
      vertex 12 6 9
    endloop
  endfacet
  facet normal 1 0 0
    outer loop
      vertex 12 7 9
      vertex 12 7 8
      vertex 12 12 10
    endloop
  endfacet
  facet normal 0 0 -1
    outer loop
      vertex 11 6 9
      vertex 11 7 9
      vertex 12 6 9
    endloop
  endfacet
  facet normal 0 0 -1
    outer loop
      vertex 12 6 9
      vertex 11 7 9
      vertex 12 7 9
    endloop
  endfacet
  facet normal 1 0 0
    outer loop
      vertex 11 6 9
      vertex 11 6 8
      vertex 11 7 8
    endloop
  endfacet
  facet normal 1 0 0
    outer loop
      vertex 11 7 9
      vertex 11 6 9
      vertex 11 7 8
    endloop
  endfacet
  facet normal 0 0 1
    outer loop
      vertex 11 7 8
      vertex 11 6 8
      vertex 12 6 8
    endloop
  endfacet
  facet normal 0 0 1
    outer loop
      vertex 12 7 8
      vertex 11 7 8
      vertex 12 6 8
    endloop
  endfacet
  facet normal 0 0 -1
    outer loop
      vertex 9 6 7
      vertex 9 7 7
      vertex 12 6 7
    endloop
  endfacet
  facet normal 0 0 -1
    outer loop
      vertex 12 6 7
      vertex 9 7 7
      vertex 12 7 7
    endloop
  endfacet
  facet normal 1 0 0
    outer loop
      vertex 9 6 7
      vertex 9 6 6
      vertex 9 7 6
    endloop
  endfacet
  facet normal 1 0 0
    outer loop
      vertex 9 7 7
      vertex 9 6 7
      vertex 9 7 6
    endloop
  endfacet
  facet normal -1 0 0
    outer loop
      vertex 8 6 6
      vertex 8 6 7
      vertex 8 8 6
    endloop
  endfacet
  facet normal -1 0 0
    outer loop
      vertex 8 8 6
      vertex 8 6 7
      vertex 8 8 7
    endloop
  endfacet
  facet normal -1 0 0
    outer loop
      vertex 7 6 7
      vertex 7 6 9
      vertex 7 7 7
    endloop
  endfacet
  facet normal -1 0 0
    outer loop
      vertex 7 7 7
      vertex 7 6 9
      vertex 7 7 9
    endloop
  endfacet
  facet normal -1 0 0
    outer loop
      vertex 7 5 9
      vertex 7 5 10
      vertex 7 6 9
    endloop
  endfacet
  facet normal -1 0 0
    outer loop
      vertex 7 6 9
      vertex 7 5 10
      vertex 7 6 10
    endloop
  endfacet
  facet normal 0 0 -1
    outer loop
      vertex 7 5 9
      vertex 7 6 9
      vertex 8 5 9
    endloop
  endfacet
  facet normal 0 0 -1
    outer loop
      vertex 8 5 9
      vertex 7 6 9
      vertex 8 6 9
    endloop
  endfacet
  facet normal 1 0 0
    outer loop
      vertex 8 5 10
      vertex 8 5 9
      vertex 8 6 9
    endloop
  endfacet
  facet normal 1 0 0
    outer loop
      vertex 8 6 10
      vertex 8 5 10
      vertex 8 6 9
    endloop
  endfacet
  facet normal 0 0 1
    outer loop
      vertex 7 6 10
      vertex 7 5 10
      vertex 8 5 10
    endloop
  endfacet
  facet normal 0 0 1
    outer loop
      vertex 8 6 10
      vertex 7 6 10
      vertex 8 5 10
    endloop
  endfacet
  facet normal 0 -1 0
    outer loop
      vertex 9 7 7
      vertex 9 7 6
      vertex 12 7 6
    endloop
  endfacet
  facet normal 0 -1 0
    outer loop
      vertex 12 7 7
      vertex 9 7 7
      vertex 12 7 6
    endloop
  endfacet
  facet normal 0 1 0
    outer loop
      vertex 10 11 6
      vertex 10 11 7
      vertex 12 11 6
    endloop
  endfacet
  facet normal 0 1 0
    outer loop
      vertex 12 11 6
      vertex 10 11 7
      vertex 11 11 7
    endloop
  endfacet
  facet normal 0 1 0
    outer loop
      vertex 12 11 6
      vertex 11 11 7
      vertex 11 11 8
    endloop
  endfacet
  facet normal 0 1 0
    outer loop
      vertex 12 11 6
      vertex 11 11 8
      vertex 12 11 8
    endloop
  endfacet
  facet normal -1 0 0
    outer loop
      vertex 10 10 6
      vertex 10 10 9
      vertex 10 11 6
    endloop
  endfacet
  facet normal -1 0 0
    outer loop
      vertex 10 11 6
      vertex 10 10 9
      vertex 10 11 7
    endloop
  endfacet
  facet normal -1 0 0
    outer loop
      vertex 10 11 9
      vertex 10 11 11
      vertex 10 12 11
    endloop
  endfacet
  facet normal -1 0 0
    outer loop
      vertex 10 11 9
      vertex 10 12 11
      vertex 10 11 7
    endloop
  endfacet
  facet normal -1 0 0
    outer loop
      vertex 10 11 9
      vertex 10 11 7
      vertex 10 10 9
    endloop
  endfacet
  facet normal -1 0 0
    outer loop
      vertex 10 11 7
      vertex 10 12 11
      vertex 10 12 7
    endloop
  endfacet
  facet normal 0 1 0
    outer loop
      vertex 7 10 7
      vertex 7 10 9
      vertex 8 10 7
    endloop
  endfacet
  facet normal 0 1 0
    outer loop
      vertex 8 10 8
      vertex 7 10 9
      vertex 8 10 9
    endloop
  endfacet
  facet normal 0 1 0
    outer loop
      vertex 8 10 7
      vertex 7 10 9
      vertex 8 10 8
    endloop
  endfacet
  facet normal 0 1 0
    outer loop
      vertex 8 10 8
      vertex 9 10 8
      vertex 8 10 7
    endloop
  endfacet
  facet normal 0 1 0
    outer loop
      vertex 9 10 8
      vertex 9 10 9
      vertex 10 10 9
    endloop
  endfacet
  facet normal 0 1 0
    outer loop
      vertex 9 10 8
      vertex 10 10 9
      vertex 10 10 6
    endloop
  endfacet
  facet normal 0 1 0
    outer loop
      vertex 9 10 8
      vertex 10 10 6
      vertex 8 10 7
    endloop
  endfacet
  facet normal 0 1 0
    outer loop
      vertex 8 10 7
      vertex 10 10 6
      vertex 8 10 6
    endloop
  endfacet
  facet normal -1 0 0
    outer loop
      vertex 8 9 6
      vertex 8 9 7
      vertex 8 10 6
    endloop
  endfacet
  facet normal -1 0 0
    outer loop
      vertex 8 10 6
      vertex 8 9 7
      vertex 8 10 7
    endloop
  endfacet
  facet normal 0 0 -1
    outer loop
      vertex 7 9 7
      vertex 7 10 7
      vertex 8 9 7
    endloop
  endfacet
  facet normal 0 0 -1
    outer loop
      vertex 8 9 7
      vertex 7 10 7
      vertex 8 10 7
    endloop
  endfacet
  facet normal -1 0 0
    outer loop
      vertex 7 9 7
      vertex 7 9 9
      vertex 7 10 7
    endloop
  endfacet
  facet normal -1 0 0
    outer loop
      vertex 7 10 7
      vertex 7 9 9
      vertex 7 10 9
    endloop
  endfacet
  facet normal -1 0 0
    outer loop
      vertex 8 10 8
      vertex 8 10 9
      vertex 8 11 8
    endloop
  endfacet
  facet normal -1 0 0
    outer loop
      vertex 8 11 8
      vertex 8 10 9
      vertex 8 11 9
    endloop
  endfacet
  facet normal 0 1 0
    outer loop
      vertex 8 11 8
      vertex 8 11 9
      vertex 9 11 8
    endloop
  endfacet
  facet normal 0 1 0
    outer loop
      vertex 9 11 8
      vertex 8 11 9
      vertex 9 11 9
    endloop
  endfacet
  facet normal 0 0 -1
    outer loop
      vertex 8 11 9
      vertex 8 12 9
      vertex 9 11 9
    endloop
  endfacet
  facet normal 0 0 -1
    outer loop
      vertex 9 11 9
      vertex 8 12 9
      vertex 9 12 9
    endloop
  endfacet
  facet normal -1 0 0
    outer loop
      vertex 8 11 9
      vertex 8 11 10
      vertex 8 12 9
    endloop
  endfacet
  facet normal -1 0 0
    outer loop
      vertex 8 12 9
      vertex 8 11 10
      vertex 8 12 10
    endloop
  endfacet
  facet normal 0 0 -1
    outer loop
      vertex 7 11 10
      vertex 7 12 10
      vertex 8 11 10
    endloop
  endfacet
  facet normal 0 0 -1
    outer loop
      vertex 8 11 10
      vertex 7 12 10
      vertex 8 12 10
    endloop
  endfacet
  facet normal -1 0 0
    outer loop
      vertex 7 11 10
      vertex 7 11 11
      vertex 7 12 10
    endloop
  endfacet
  facet normal -1 0 0
    outer loop
      vertex 7 12 10
      vertex 7 11 11
      vertex 7 12 11
    endloop
  endfacet
  facet normal 0 0 1
    outer loop
      vertex 7 12 11
      vertex 7 11 11
      vertex 8 11 11
    endloop
  endfacet
  facet normal 0 0 1
    outer loop
      vertex 11 10 11
      vertex 9 11 11
      vertex 8 11 11
    endloop
  endfacet
  facet normal 0 0 1
    outer loop
      vertex 8 10 11
      vertex 11 10 11
      vertex 8 11 11
    endloop
  endfacet
  facet normal 0 0 1
    outer loop
      vertex 11 7 11
      vertex 12 7 11
      vertex 11 10 11
    endloop
  endfacet
  facet normal 0 0 1
    outer loop
      vertex 12 7 11
      vertex 12 11 11
      vertex 11 10 11
    endloop
  endfacet
  facet normal 0 0 1
    outer loop
      vertex 11 10 11
      vertex 12 11 11
      vertex 11 11 11
    endloop
  endfacet
  facet normal 0 0 1
    outer loop
      vertex 11 10 11
      vertex 11 11 11
      vertex 10 11 11
    endloop
  endfacet
  facet normal 0 0 1
    outer loop
      vertex 8 11 11
      vertex 9 11 11
      vertex 7 12 11
    endloop
  endfacet
  facet normal 0 0 1
    outer loop
      vertex 11 10 11
      vertex 10 11 11
      vertex 9 11 11
    endloop
  endfacet
  facet normal 0 0 1
    outer loop
      vertex 10 12 11
      vertex 10 11 11
      vertex 11 11 11
    endloop
  endfacet
  facet normal 0 0 1
    outer loop
      vertex 9 11 11
      vertex 9 12 11
      vertex 7 12 11
    endloop
  endfacet
  facet normal 0 0 1
    outer loop
      vertex 11 11 11
      vertex 11 12 11
      vertex 10 12 11
    endloop
  endfacet
  facet normal 0 1 0
    outer loop
      vertex 7 11 11
      vertex 7 11 12
      vertex 8 11 11
    endloop
  endfacet
  facet normal 0 1 0
    outer loop
      vertex 8 11 11
      vertex 7 11 12
      vertex 8 11 12
    endloop
  endfacet
  facet normal -1 0 0
    outer loop
      vertex 7 10 11
      vertex 7 10 12
      vertex 7 11 11
    endloop
  endfacet
  facet normal -1 0 0
    outer loop
      vertex 7 11 11
      vertex 7 10 12
      vertex 7 11 12
    endloop
  endfacet
  facet normal 1 0 0
    outer loop
      vertex 8 10 12
      vertex 8 10 11
      vertex 8 11 11
    endloop
  endfacet
  facet normal 1 0 0
    outer loop
      vertex 8 11 12
      vertex 8 10 12
      vertex 8 11 11
    endloop
  endfacet
  facet normal 0 1 0
    outer loop
      vertex 8 10 11
      vertex 8 10 12
      vertex 11 10 11
    endloop
  endfacet
  facet normal 0 1 0
    outer loop
      vertex 11 10 11
      vertex 8 10 12
      vertex 11 10 12
    endloop
  endfacet
  facet normal 1 0 0
    outer loop
      vertex 11 7 12
      vertex 11 7 11
      vertex 11 10 11
    endloop
  endfacet
  facet normal 1 0 0
    outer loop
      vertex 11 10 12
      vertex 11 7 12
      vertex 11 10 11
    endloop
  endfacet
  facet normal 0 -1 0
    outer loop
      vertex 8 7 12
      vertex 8 7 11
      vertex 10 7 11
    endloop
  endfacet
  facet normal 0 -1 0
    outer loop
      vertex 11 7 11
      vertex 8 7 12
      vertex 10 7 11
    endloop
  endfacet
  facet normal 0 -1 0
    outer loop
      vertex 10 7 10
      vertex 12 7 10
      vertex 10 7 11
    endloop
  endfacet
  facet normal 0 -1 0
    outer loop
      vertex 12 7 10
      vertex 12 7 11
      vertex 11 7 11
    endloop
  endfacet
  facet normal 0 -1 0
    outer loop
      vertex 12 7 10
      vertex 11 7 11
      vertex 10 7 11
    endloop
  endfacet
  facet normal 0 -1 0
    outer loop
      vertex 11 7 11
      vertex 11 7 12
      vertex 8 7 12
    endloop
  endfacet
  facet normal -1 0 0
    outer loop
      vertex 8 7 11
      vertex 8 7 12
      vertex 8 8 11
    endloop
  endfacet
  facet normal -1 0 0
    outer loop
      vertex 8 8 11
      vertex 8 7 12
      vertex 8 8 12
    endloop
  endfacet
  facet normal 0 -1 0
    outer loop
      vertex 9 5 10
      vertex 9 5 9
      vertex 10 5 9
    endloop
  endfacet
  facet normal 0 -1 0
    outer loop
      vertex 10 5 10
      vertex 9 5 10
      vertex 10 5 9
    endloop
  endfacet
  facet normal 0 -1 0
    outer loop
      vertex 11 7 9
      vertex 11 7 8
      vertex 12 7 8
    endloop
  endfacet
  facet normal 0 -1 0
    outer loop
      vertex 12 7 9
      vertex 11 7 9
      vertex 12 7 8
    endloop
  endfacet
  facet normal 0 1 0
    outer loop
      vertex 11 11 10
      vertex 11 11 11
      vertex 12 11 10
    endloop
  endfacet
  facet normal 0 1 0
    outer loop
      vertex 12 11 10
      vertex 11 11 11
      vertex 12 11 11
    endloop
  endfacet
  facet normal 0 0 1
    outer loop
      vertex 11 12 10
      vertex 11 11 10
      vertex 12 11 10
    endloop
  endfacet
  facet normal 0 0 1
    outer loop
      vertex 12 12 10
      vertex 11 12 10
      vertex 12 11 10
    endloop
  endfacet
  facet normal 0 1 0
    outer loop
      vertex 10 12 7
      vertex 10 12 11
      vertex 11 12 7
    endloop
  endfacet
  facet normal 0 1 0
    outer loop
      vertex 11 12 10
      vertex 10 12 11
      vertex 11 12 11
    endloop
  endfacet
  facet normal 0 1 0
    outer loop
      vertex 11 12 7
      vertex 10 12 11
      vertex 11 12 8
    endloop
  endfacet
  facet normal 0 1 0
    outer loop
      vertex 11 12 10
      vertex 12 12 10
      vertex 11 12 8
    endloop
  endfacet
  facet normal 0 1 0
    outer loop
      vertex 11 12 10
      vertex 11 12 8
      vertex 10 12 11
    endloop
  endfacet
  facet normal 0 1 0
    outer loop
      vertex 11 12 8
      vertex 12 12 10
      vertex 12 12 8
    endloop
  endfacet
  facet normal 0 0 -1
    outer loop
      vertex 11 11 8
      vertex 11 12 8
      vertex 12 11 8
    endloop
  endfacet
  facet normal 0 0 -1
    outer loop
      vertex 12 11 8
      vertex 11 12 8
      vertex 12 12 8
    endloop
  endfacet
  facet normal 0 -1 0
    outer loop
      vertex 7 5 10
      vertex 7 5 9
      vertex 8 5 9
    endloop
  endfacet
  facet normal 0 -1 0
    outer loop
      vertex 8 5 10
      vertex 7 5 10
      vertex 8 5 9
    endloop
  endfacet
  facet normal 1 0 0
    outer loop
      vertex 11 11 8
      vertex 11 11 7
      vertex 11 12 7
    endloop
  endfacet
  facet normal 1 0 0
    outer loop
      vertex 11 12 8
      vertex 11 11 8
      vertex 11 12 7
    endloop
  endfacet
  facet normal 0 0 -1
    outer loop
      vertex 10 11 7
      vertex 10 12 7
      vertex 11 11 7
    endloop
  endfacet
  facet normal 0 0 -1
    outer loop
      vertex 11 11 7
      vertex 10 12 7
      vertex 11 12 7
    endloop
  endfacet
  facet normal 0 1 0
    outer loop
      vertex 9 11 9
      vertex 9 11 11
      vertex 10 11 9
    endloop
  endfacet
  facet normal 0 1 0
    outer loop
      vertex 10 11 9
      vertex 9 11 11
      vertex 10 11 11
    endloop
  endfacet
  facet normal 0 0 -1
    outer loop
      vertex 9 10 9
      vertex 9 11 9
      vertex 10 10 9
    endloop
  endfacet
  facet normal 0 0 -1
    outer loop
      vertex 10 10 9
      vertex 9 11 9
      vertex 10 11 9
    endloop
  endfacet
  facet normal 1 0 0
    outer loop
      vertex 9 10 9
      vertex 9 10 8
      vertex 9 11 8
    endloop
  endfacet
  facet normal 1 0 0
    outer loop
      vertex 9 11 9
      vertex 9 10 9
      vertex 9 11 8
    endloop
  endfacet
  facet normal 0 0 -1
    outer loop
      vertex 8 10 8
      vertex 8 11 8
      vertex 9 10 8
    endloop
  endfacet
  facet normal 0 0 -1
    outer loop
      vertex 9 10 8
      vertex 8 11 8
      vertex 9 11 8
    endloop
  endfacet
  facet normal 1 0 0
    outer loop
      vertex 9 11 11
      vertex 9 11 9
      vertex 9 12 9
    endloop
  endfacet
  facet normal 1 0 0
    outer loop
      vertex 9 12 11
      vertex 9 11 11
      vertex 9 12 9
    endloop
  endfacet
  facet normal 0 1 0
    outer loop
      vertex 7 12 10
      vertex 7 12 11
      vertex 8 12 10
    endloop
  endfacet
  facet normal 0 1 0
    outer loop
      vertex 8 12 10
      vertex 7 12 11
      vertex 9 12 11
    endloop
  endfacet
  facet normal 0 1 0
    outer loop
      vertex 8 12 10
      vertex 9 12 11
      vertex 9 12 9
    endloop
  endfacet
  facet normal 0 1 0
    outer loop
      vertex 8 12 10
      vertex 9 12 9
      vertex 8 12 9
    endloop
  endfacet
  facet normal 1 0 0
    outer loop
      vertex 11 11 11
      vertex 11 11 10
      vertex 11 12 10
    endloop
  endfacet
  facet normal 1 0 0
    outer loop
      vertex 11 12 11
      vertex 11 11 11
      vertex 11 12 10
    endloop
  endfacet
endsolid OpenSCAD_Model
