solid OpenSCAD_Model
  facet normal -1 0 0
    outer loop
      vertex 4 8 6
      vertex 4 8 7
      vertex 4 9 6
    endloop
  endfacet
  facet normal -1 0 0
    outer loop
      vertex 4 9 6
      vertex 4 8 7
      vertex 4 9 7
    endloop
  endfacet
  facet normal 0 -1 0
    outer loop
      vertex 15 8 8
      vertex 15 8 9
      vertex 12 8 9
    endloop
  endfacet
  facet normal 0 -1 0
    outer loop
      vertex 4 8 7
      vertex 4 8 6
      vertex 5 8 6
    endloop
  endfacet
  facet normal 0 -1 0
    outer loop
      vertex 9 8 5
      vertex 4 8 7
      vertex 5 8 6
    endloop
  endfacet
  facet normal 0 -1 0
    outer loop
      vertex 5 8 5
      vertex 9 8 5
      vertex 5 8 6
    endloop
  endfacet
  facet normal 0 -1 0
    outer loop
      vertex 9 8 4
      vertex 10 8 4
      vertex 9 8 5
    endloop
  endfacet
  facet normal 0 -1 0
    outer loop
      vertex 10 8 4
      vertex 10 8 6
      vertex 9 8 5
    endloop
  endfacet
  facet normal 0 -1 0
    outer loop
      vertex 11 8 8
      vertex 12 8 8
      vertex 11 8 9
    endloop
  endfacet
  facet normal 0 -1 0
    outer loop
      vertex 9 8 5
      vertex 9 8 6
      vertex 4 8 7
    endloop
  endfacet
  facet normal 0 -1 0
    outer loop
      vertex 9 8 5
      vertex 10 8 6
      vertex 9 8 6
    endloop
  endfacet
  facet normal 0 -1 0
    outer loop
      vertex 10 8 8
      vertex 10 8 9
      vertex 9 8 8
    endloop
  endfacet
  facet normal 0 -1 0
    outer loop
      vertex 11 8 9
      vertex 12 8 10
      vertex 10 8 9
    endloop
  endfacet
  facet normal 0 -1 0
    outer loop
      vertex 12 8 8
      vertex 15 8 6
      vertex 11 8 9
    endloop
  endfacet
  facet normal 0 -1 0
    outer loop
      vertex 12 8 7
      vertex 14 8 4
      vertex 12 8 8
    endloop
  endfacet
  facet normal 0 -1 0
    outer loop
      vertex 11 8 7
      vertex 11 8 4
      vertex 12 8 7
    endloop
  endfacet
  facet normal 0 -1 0
    outer loop
      vertex 14 8 5
      vertex 15 8 5
      vertex 12 8 8
    endloop
  endfacet
  facet normal 0 -1 0
    outer loop
      vertex 11 8 4
      vertex 14 8 4
      vertex 12 8 7
    endloop
  endfacet
  facet normal 0 -1 0
    outer loop
      vertex 14 8 4
      vertex 14 8 5
      vertex 12 8 8
    endloop
  endfacet
  facet normal 0 -1 0
    outer loop
      vertex 12 8 9
      vertex 12 8 10
      vertex 11 8 9
    endloop
  endfacet
  facet normal 0 -1 0
    outer loop
      vertex 15 8 5
      vertex 15 8 6
      vertex 12 8 8
    endloop
  endfacet
  facet normal 0 -1 0
    outer loop
      vertex 15 8 6
      vertex 16 8 6
      vertex 11 8 9
    endloop
  endfacet
  facet normal 0 -1 0
    outer loop
      vertex 9 8 9
      vertex 9 8 8
      vertex 10 8 9
    endloop
  endfacet
  facet normal 0 -1 0
    outer loop
      vertex 16 8 6
      vertex 15 8 8
      vertex 11 8 9
    endloop
  endfacet
  facet normal 0 -1 0
    outer loop
      vertex 16 8 6
      vertex 16 8 8
      vertex 15 8 8
    endloop
  endfacet
  facet normal 0 -1 0
    outer loop
      vertex 9 8 9
      vertex 12 8 10
      vertex 9 8 10
    endloop
  endfacet
  facet normal 0 -1 0
    outer loop
      vertex 9 8 9
      vertex 10 8 9
      vertex 12 8 10
    endloop
  endfacet
  facet normal 0 -1 0
    outer loop
      vertex 15 8 8
      vertex 12 8 9
      vertex 11 8 9
    endloop
  endfacet
  facet normal 0 -1 0
    outer loop
      vertex 9 8 6
      vertex 6 8 7
      vertex 4 8 7
    endloop
  endfacet
  facet normal 0 -1 0
    outer loop
      vertex 9 8 6
      vertex 9 8 8
      vertex 6 8 7
    endloop
  endfacet
  facet normal 0 -1 0
    outer loop
      vertex 6 8 9
      vertex 9 8 8
      vertex 9 8 9
    endloop
  endfacet
  facet normal 0 -1 0
    outer loop
      vertex 6 8 9
      vertex 6 8 7
      vertex 9 8 8
    endloop
  endfacet
  facet normal 0 0 -1
    outer loop
      vertex 4 8 6
      vertex 4 9 6
      vertex 5 8 6
    endloop
  endfacet
  facet normal 0 0 -1
    outer loop
      vertex 5 8 6
      vertex 4 9 6
      vertex 5 9 6
    endloop
  endfacet
  facet normal 0 1 0
    outer loop
      vertex 4 9 6
      vertex 4 9 7
      vertex 5 9 6
    endloop
  endfacet
  facet normal 0 1 0
    outer loop
      vertex 5 9 6
      vertex 4 9 7
      vertex 6 9 7
    endloop
  endfacet
  facet normal 0 1 0
    outer loop
      vertex 6 9 7
      vertex 6 9 9
      vertex 9 9 9
    endloop
  endfacet
  facet normal 0 1 0
    outer loop
      vertex 6 9 7
      vertex 9 9 9
      vertex 5 9 6
    endloop
  endfacet
  facet normal 0 1 0
    outer loop
      vertex 9 9 9
      vertex 9 9 10
      vertex 12 9 10
    endloop
  endfacet
  facet normal 0 1 0
    outer loop
      vertex 9 9 9
      vertex 12 9 10
      vertex 5 9 6
    endloop
  endfacet
  facet normal 0 1 0
    outer loop
      vertex 5 9 6
      vertex 12 9 10
      vertex 12 9 9
    endloop
  endfacet
  facet normal 0 1 0
    outer loop
      vertex 10 9 8
      vertex 12 9 9
      vertex 15 9 9
    endloop
  endfacet
  facet normal 0 1 0
    outer loop
      vertex 15 9 6
      vertex 16 9 8
      vertex 16 9 6
    endloop
  endfacet
  facet normal 0 1 0
    outer loop
      vertex 5 9 5
      vertex 5 9 6
      vertex 9 9 5
    endloop
  endfacet
  facet normal 0 1 0
    outer loop
      vertex 14 9 4
      vertex 9 9 4
      vertex 9 9 5
    endloop
  endfacet
  facet normal 0 1 0
    outer loop
      vertex 14 9 4
      vertex 11 9 5
      vertex 14 9 5
    endloop
  endfacet
  facet normal 0 1 0
    outer loop
      vertex 5 9 6
      vertex 12 9 9
      vertex 10 9 8
    endloop
  endfacet
  facet normal 0 1 0
    outer loop
      vertex 11 9 8
      vertex 10 9 8
      vertex 15 9 9
    endloop
  endfacet
  facet normal 0 1 0
    outer loop
      vertex 14 9 4
      vertex 9 9 5
      vertex 10 9 5
    endloop
  endfacet
  facet normal 0 1 0
    outer loop
      vertex 11 9 8
      vertex 15 9 8
      vertex 15 9 6
    endloop
  endfacet
  facet normal 0 1 0
    outer loop
      vertex 14 9 4
      vertex 10 9 5
      vertex 11 9 5
    endloop
  endfacet
  facet normal 0 1 0
    outer loop
      vertex 15 9 8
      vertex 16 9 8
      vertex 15 9 6
    endloop
  endfacet
  facet normal 0 1 0
    outer loop
      vertex 11 9 8
      vertex 14 9 5
      vertex 11 9 5
    endloop
  endfacet
  facet normal 0 1 0
    outer loop
      vertex 11 9 8
      vertex 15 9 5
      vertex 14 9 5
    endloop
  endfacet
  facet normal 0 1 0
    outer loop
      vertex 11 9 8
      vertex 15 9 6
      vertex 15 9 5
    endloop
  endfacet
  facet normal 0 1 0
    outer loop
      vertex 5 9 6
      vertex 10 9 5
      vertex 9 9 5
    endloop
  endfacet
  facet normal 0 1 0
    outer loop
      vertex 11 9 8
      vertex 15 9 9
      vertex 15 9 8
    endloop
  endfacet
  facet normal 0 1 0
    outer loop
      vertex 10 9 5
      vertex 5 9 6
      vertex 10 9 8
    endloop
  endfacet
  facet normal 0 0 1
    outer loop
      vertex 4 9 7
      vertex 4 8 7
      vertex 6 8 7
    endloop
  endfacet
  facet normal 0 0 1
    outer loop
      vertex 6 9 7
      vertex 4 9 7
      vertex 6 8 7
    endloop
  endfacet
  facet normal -1 0 0
    outer loop
      vertex 6 8 7
      vertex 6 8 9
      vertex 6 9 7
    endloop
  endfacet
  facet normal -1 0 0
    outer loop
      vertex 6 9 7
      vertex 6 8 9
      vertex 6 9 9
    endloop
  endfacet
  facet normal 0 0 1
    outer loop
      vertex 6 9 9
      vertex 6 8 9
      vertex 9 8 9
    endloop
  endfacet
  facet normal 0 0 1
    outer loop
      vertex 9 9 9
      vertex 6 9 9
      vertex 9 8 9
    endloop
  endfacet
  facet normal -1 0 0
    outer loop
      vertex 9 8 9
      vertex 9 8 10
      vertex 9 9 9
    endloop
  endfacet
  facet normal -1 0 0
    outer loop
      vertex 9 9 9
      vertex 9 8 10
      vertex 9 9 10
    endloop
  endfacet
  facet normal 0 0 1
    outer loop
      vertex 9 9 10
      vertex 9 8 10
      vertex 12 8 10
    endloop
  endfacet
  facet normal 0 0 1
    outer loop
      vertex 12 9 10
      vertex 9 9 10
      vertex 12 8 10
    endloop
  endfacet
  facet normal 1 0 0
    outer loop
      vertex 12 8 10
      vertex 12 8 9
      vertex 12 9 9
    endloop
  endfacet
  facet normal 1 0 0
    outer loop
      vertex 12 9 10
      vertex 12 8 10
      vertex 12 9 9
    endloop
  endfacet
  facet normal 0 0 1
    outer loop
      vertex 12 9 9
      vertex 12 8 9
      vertex 15 8 9
    endloop
  endfacet
  facet normal 0 0 1
    outer loop
      vertex 15 9 9
      vertex 12 9 9
      vertex 15 8 9
    endloop
  endfacet
  facet normal 1 0 0
    outer loop
      vertex 15 8 9
      vertex 15 8 8
      vertex 15 9 8
    endloop
  endfacet
  facet normal 1 0 0
    outer loop
      vertex 15 9 9
      vertex 15 8 9
      vertex 15 9 8
    endloop
  endfacet
  facet normal 0 0 1
    outer loop
      vertex 15 9 8
      vertex 15 8 8
      vertex 16 8 8
    endloop
  endfacet
  facet normal 0 0 1
    outer loop
      vertex 16 9 8
      vertex 15 9 8
      vertex 16 8 8
    endloop
  endfacet
  facet normal 1 0 0
    outer loop
      vertex 16 8 8
      vertex 16 8 6
      vertex 16 9 6
    endloop
  endfacet
  facet normal 1 0 0
    outer loop
      vertex 16 9 8
      vertex 16 8 8
      vertex 16 9 6
    endloop
  endfacet
  facet normal 0 0 -1
    outer loop
      vertex 15 8 6
      vertex 15 9 6
      vertex 16 8 6
    endloop
  endfacet
  facet normal 0 0 -1
    outer loop
      vertex 16 8 6
      vertex 15 9 6
      vertex 16 9 6
    endloop
  endfacet
  facet normal 1 0 0
    outer loop
      vertex 15 8 6
      vertex 15 8 5
      vertex 15 9 5
    endloop
  endfacet
  facet normal 1 0 0
    outer loop
      vertex 15 9 6
      vertex 15 8 6
      vertex 15 9 5
    endloop
  endfacet
  facet normal 0 0 -1
    outer loop
      vertex 14 8 5
      vertex 14 9 5
      vertex 15 8 5
    endloop
  endfacet
  facet normal 0 0 -1
    outer loop
      vertex 15 8 5
      vertex 14 9 5
      vertex 15 9 5
    endloop
  endfacet
  facet normal 1 0 0
    outer loop
      vertex 14 8 5
      vertex 14 8 4
      vertex 14 9 4
    endloop
  endfacet
  facet normal 1 0 0
    outer loop
      vertex 14 9 5
      vertex 14 8 5
      vertex 14 9 4
    endloop
  endfacet
  facet normal 0 0 -1
    outer loop
      vertex 9 8 4
      vertex 9 9 4
      vertex 10 8 4
    endloop
  endfacet
  facet normal 0 0 -1
    outer loop
      vertex 10 8 4
      vertex 9 9 4
      vertex 14 9 4
    endloop
  endfacet
  facet normal 0 0 -1
    outer loop
      vertex 11 8 4
      vertex 14 9 4
      vertex 14 8 4
    endloop
  endfacet
  facet normal 0 0 -1
    outer loop
      vertex 10 8 4
      vertex 14 9 4
      vertex 11 8 4
    endloop
  endfacet
  facet normal 0 0 -1
    outer loop
      vertex 11 8 4
      vertex 11 5 4
      vertex 10 8 4
    endloop
  endfacet
  facet normal 0 0 -1
    outer loop
      vertex 10 8 4
      vertex 11 5 4
      vertex 10 5 4
    endloop
  endfacet
  facet normal 1 0 0
    outer loop
      vertex 11 4 7
      vertex 11 4 6
      vertex 11 5 6
    endloop
  endfacet
  facet normal 1 0 0
    outer loop
      vertex 11 8 4
      vertex 11 4 7
      vertex 11 5 6
    endloop
  endfacet
  facet normal 1 0 0
    outer loop
      vertex 11 5 4
      vertex 11 8 4
      vertex 11 5 6
    endloop
  endfacet
  facet normal 1 0 0
    outer loop
      vertex 11 8 4
      vertex 11 7 7
      vertex 11 5 7
    endloop
  endfacet
  facet normal 1 0 0
    outer loop
      vertex 11 8 4
      vertex 11 8 7
      vertex 11 7 7
    endloop
  endfacet
  facet normal 1 0 0
    outer loop
      vertex 11 7 8
      vertex 11 8 8
      vertex 11 8 9
    endloop
  endfacet
  facet normal 1 0 0
    outer loop
      vertex 11 6 9
      vertex 11 7 9
      vertex 11 7 10
    endloop
  endfacet
  facet normal 1 0 0
    outer loop
      vertex 11 6 9
      vertex 11 7 10
      vertex 11 6 10
    endloop
  endfacet
  facet normal 1 0 0
    outer loop
      vertex 11 7 9
      vertex 11 7 8
      vertex 11 8 9
    endloop
  endfacet
  facet normal 1 0 0
    outer loop
      vertex 11 8 4
      vertex 11 5 7
      vertex 11 4 7
    endloop
  endfacet
  facet normal 1 0 0
    outer loop
      vertex 11 7 7
      vertex 11 7 8
      vertex 11 5 7
    endloop
  endfacet
  facet normal 1 0 0
    outer loop
      vertex 11 6 9
      vertex 11 7 8
      vertex 11 7 9
    endloop
  endfacet
  facet normal 1 0 0
    outer loop
      vertex 11 5 9
      vertex 11 7 8
      vertex 11 6 9
    endloop
  endfacet
  facet normal 1 0 0
    outer loop
      vertex 11 5 9
      vertex 11 5 7
      vertex 11 7 8
    endloop
  endfacet
  facet normal 0 0 -1
    outer loop
      vertex 11 7 7
      vertex 11 8 7
      vertex 12 7 7
    endloop
  endfacet
  facet normal 0 0 -1
    outer loop
      vertex 12 7 7
      vertex 11 8 7
      vertex 12 8 7
    endloop
  endfacet
  facet normal 1 0 0
    outer loop
      vertex 12 7 8
      vertex 12 7 7
      vertex 12 8 7
    endloop
  endfacet
  facet normal 1 0 0
    outer loop
      vertex 12 8 8
      vertex 12 7 8
      vertex 12 8 7
    endloop
  endfacet
  facet normal 0 0 1
    outer loop
      vertex 11 8 8
      vertex 11 7 8
      vertex 12 7 8
    endloop
  endfacet
  facet normal 0 0 1
    outer loop
      vertex 12 8 8
      vertex 11 8 8
      vertex 12 7 8
    endloop
  endfacet
  facet normal 0 0 1
    outer loop
      vertex 10 8 9
      vertex 10 7 9
      vertex 11 7 9
    endloop
  endfacet
  facet normal 0 0 1
    outer loop
      vertex 11 8 9
      vertex 10 8 9
      vertex 11 7 9
    endloop
  endfacet
  facet normal -1 0 0
    outer loop
      vertex 10 4 6
      vertex 10 4 7
      vertex 10 5 6
    endloop
  endfacet
  facet normal -1 0 0
    outer loop
      vertex 10 5 6
      vertex 10 4 7
      vertex 10 5 7
    endloop
  endfacet
  facet normal -1 0 0
    outer loop
      vertex 10 5 7
      vertex 10 5 9
      vertex 10 6 9
    endloop
  endfacet
  facet normal -1 0 0
    outer loop
      vertex 10 5 7
      vertex 10 6 9
      vertex 10 5 6
    endloop
  endfacet
  facet normal -1 0 0
    outer loop
      vertex 10 6 9
      vertex 10 6 10
      vertex 10 7 10
    endloop
  endfacet
  facet normal -1 0 0
    outer loop
      vertex 10 6 9
      vertex 10 7 10
      vertex 10 5 6
    endloop
  endfacet
  facet normal -1 0 0
    outer loop
      vertex 10 5 6
      vertex 10 7 10
      vertex 10 7 9
    endloop
  endfacet
  facet normal -1 0 0
    outer loop
      vertex 10 5 6
      vertex 10 7 9
      vertex 10 7 8
    endloop
  endfacet
  facet normal -1 0 0
    outer loop
      vertex 10 7 8
      vertex 10 8 9
      vertex 10 8 8
    endloop
  endfacet
  facet normal -1 0 0
    outer loop
      vertex 10 7 9
      vertex 10 8 9
      vertex 10 7 8
    endloop
  endfacet
  facet normal -1 0 0
    outer loop
      vertex 10 7 6
      vertex 10 5 6
      vertex 10 7 8
    endloop
  endfacet
  facet normal -1 0 0
    outer loop
      vertex 10 7 6
      vertex 10 8 6
      vertex 10 8 4
    endloop
  endfacet
  facet normal -1 0 0
    outer loop
      vertex 10 7 6
      vertex 10 8 4
      vertex 10 5 6
    endloop
  endfacet
  facet normal -1 0 0
    outer loop
      vertex 10 5 6
      vertex 10 8 4
      vertex 10 5 4
    endloop
  endfacet
  facet normal 0 0 1
    outer loop
      vertex 9 8 8
      vertex 9 7 8
      vertex 10 7 8
    endloop
  endfacet
  facet normal 0 0 1
    outer loop
      vertex 10 8 8
      vertex 9 8 8
      vertex 10 7 8
    endloop
  endfacet
  facet normal -1 0 0
    outer loop
      vertex 9 7 6
      vertex 9 7 8
      vertex 9 8 6
    endloop
  endfacet
  facet normal -1 0 0
    outer loop
      vertex 9 8 6
      vertex 9 7 8
      vertex 9 8 8
    endloop
  endfacet
  facet normal 0 0 -1
    outer loop
      vertex 9 7 6
      vertex 9 8 6
      vertex 10 7 6
    endloop
  endfacet
  facet normal 0 0 -1
    outer loop
      vertex 10 7 6
      vertex 9 8 6
      vertex 10 8 6
    endloop
  endfacet
  facet normal -1 0 0
    outer loop
      vertex 9 8 4
      vertex 9 8 5
      vertex 9 9 4
    endloop
  endfacet
  facet normal -1 0 0
    outer loop
      vertex 9 9 4
      vertex 9 8 5
      vertex 9 9 5
    endloop
  endfacet
  facet normal 0 0 -1
    outer loop
      vertex 5 8 5
      vertex 5 9 5
      vertex 9 8 5
    endloop
  endfacet
  facet normal 0 0 -1
    outer loop
      vertex 9 8 5
      vertex 5 9 5
      vertex 9 9 5
    endloop
  endfacet
  facet normal -1 0 0
    outer loop
      vertex 5 8 5
      vertex 5 8 6
      vertex 5 9 5
    endloop
  endfacet
  facet normal -1 0 0
    outer loop
      vertex 5 9 5
      vertex 5 8 6
      vertex 5 9 6
    endloop
  endfacet
  facet normal 0 0 1
    outer loop
      vertex 10 11 8
      vertex 10 9 8
      vertex 11 9 8
    endloop
  endfacet
  facet normal 0 0 1
    outer loop
      vertex 11 11 8
      vertex 10 11 8
      vertex 11 9 8
    endloop
  endfacet
  facet normal -1 0 0
    outer loop
      vertex 10 9 5
      vertex 10 9 8
      vertex 10 10 5
    endloop
  endfacet
  facet normal -1 0 0
    outer loop
      vertex 10 10 7
      vertex 10 9 8
      vertex 10 11 8
    endloop
  endfacet
  facet normal -1 0 0
    outer loop
      vertex 10 10 5
      vertex 10 9 8
      vertex 10 10 7
    endloop
  endfacet
  facet normal -1 0 0
    outer loop
      vertex 10 10 7
      vertex 10 11 8
      vertex 10 11 7
    endloop
  endfacet
  facet normal 1 0 0
    outer loop
      vertex 11 9 8
      vertex 11 9 5
      vertex 11 10 5
    endloop
  endfacet
  facet normal 1 0 0
    outer loop
      vertex 11 11 7
      vertex 11 9 8
      vertex 11 10 7
    endloop
  endfacet
  facet normal 1 0 0
    outer loop
      vertex 11 10 7
      vertex 11 9 8
      vertex 11 10 5
    endloop
  endfacet
  facet normal 1 0 0
    outer loop
      vertex 11 11 8
      vertex 11 9 8
      vertex 11 11 7
    endloop
  endfacet
  facet normal 0 0 -1
    outer loop
      vertex 10 9 5
      vertex 10 10 5
      vertex 11 9 5
    endloop
  endfacet
  facet normal 0 0 -1
    outer loop
      vertex 11 9 5
      vertex 10 10 5
      vertex 11 10 5
    endloop
  endfacet
  facet normal 0 -1 0
    outer loop
      vertex 10 5 6
      vertex 10 5 4
      vertex 11 5 4
    endloop
  endfacet
  facet normal 0 -1 0
    outer loop
      vertex 11 5 6
      vertex 10 5 6
      vertex 11 5 4
    endloop
  endfacet
  facet normal 0 -1 0
    outer loop
      vertex 10 4 7
      vertex 10 4 6
      vertex 11 4 6
    endloop
  endfacet
  facet normal 0 -1 0
    outer loop
      vertex 11 4 7
      vertex 10 4 7
      vertex 11 4 6
    endloop
  endfacet
  facet normal 0 0 1
    outer loop
      vertex 10 5 7
      vertex 10 4 7
      vertex 11 4 7
    endloop
  endfacet
  facet normal 0 0 1
    outer loop
      vertex 11 5 7
      vertex 10 5 7
      vertex 11 4 7
    endloop
  endfacet
  facet normal 0 -1 0
    outer loop
      vertex 10 5 9
      vertex 10 5 7
      vertex 11 5 7
    endloop
  endfacet
  facet normal 0 -1 0
    outer loop
      vertex 11 5 9
      vertex 10 5 9
      vertex 11 5 7
    endloop
  endfacet
  facet normal 0 0 1
    outer loop
      vertex 10 6 9
      vertex 10 5 9
      vertex 11 5 9
    endloop
  endfacet
  facet normal 0 0 1
    outer loop
      vertex 11 6 9
      vertex 10 6 9
      vertex 11 5 9
    endloop
  endfacet
  facet normal 0 -1 0
    outer loop
      vertex 10 6 10
      vertex 10 6 9
      vertex 11 6 9
    endloop
  endfacet
  facet normal 0 -1 0
    outer loop
      vertex 11 6 10
      vertex 10 6 10
      vertex 11 6 9
    endloop
  endfacet
  facet normal 0 0 1
    outer loop
      vertex 10 7 10
      vertex 10 6 10
      vertex 11 6 10
    endloop
  endfacet
  facet normal 0 0 1
    outer loop
      vertex 11 7 10
      vertex 10 7 10
      vertex 11 6 10
    endloop
  endfacet
  facet normal 0 1 0
    outer loop
      vertex 10 7 9
      vertex 10 7 10
      vertex 11 7 9
    endloop
  endfacet
  facet normal 0 1 0
    outer loop
      vertex 11 7 9
      vertex 10 7 10
      vertex 11 7 10
    endloop
  endfacet
  facet normal 0 -1 0
    outer loop
      vertex 11 7 8
      vertex 11 7 7
      vertex 12 7 7
    endloop
  endfacet
  facet normal 0 -1 0
    outer loop
      vertex 12 7 8
      vertex 11 7 8
      vertex 12 7 7
    endloop
  endfacet
  facet normal 0 0 -1
    outer loop
      vertex 10 4 6
      vertex 10 5 6
      vertex 11 4 6
    endloop
  endfacet
  facet normal 0 0 -1
    outer loop
      vertex 11 4 6
      vertex 10 5 6
      vertex 11 5 6
    endloop
  endfacet
  facet normal 0 -1 0
    outer loop
      vertex 9 7 8
      vertex 9 7 6
      vertex 10 7 6
    endloop
  endfacet
  facet normal 0 -1 0
    outer loop
      vertex 10 7 8
      vertex 9 7 8
      vertex 10 7 6
    endloop
  endfacet
  facet normal 0 1 0
    outer loop
      vertex 10 11 7
      vertex 10 11 8
      vertex 11 11 7
    endloop
  endfacet
  facet normal 0 1 0
    outer loop
      vertex 11 11 7
      vertex 10 11 8
      vertex 11 11 8
    endloop
  endfacet
  facet normal 0 1 0
    outer loop
      vertex 10 10 5
      vertex 10 10 7
      vertex 11 10 5
    endloop
  endfacet
  facet normal 0 1 0
    outer loop
      vertex 11 10 5
      vertex 10 10 7
      vertex 11 10 7
    endloop
  endfacet
  facet normal 0 0 -1
    outer loop
      vertex 10 10 7
      vertex 10 11 7
      vertex 11 10 7
    endloop
  endfacet
  facet normal 0 0 -1
    outer loop
      vertex 11 10 7
      vertex 10 11 7
      vertex 11 11 7
    endloop
  endfacet
endsolid OpenSCAD_Model
