solid OpenSCAD_Model
  facet normal -1 0 0
    outer loop
      vertex 3 3 5
      vertex 3 3 7
      vertex 3 4 5
    endloop
  endfacet
  facet normal -1 0 0
    outer loop
      vertex 3 4 5
      vertex 3 3 7
      vertex 3 4 7
    endloop
  endfacet
  facet normal -1 0 0
    outer loop
      vertex 3 4 7
      vertex 3 4 8
      vertex 3 7 8
    endloop
  endfacet
  facet normal -1 0 0
    outer loop
      vertex 3 4 7
      vertex 3 7 8
      vertex 3 4 5
    endloop
  endfacet
  facet normal -1 0 0
    outer loop
      vertex 3 4 5
      vertex 3 7 8
      vertex 3 7 7
    endloop
  endfacet
  facet normal -1 0 0
    outer loop
      vertex 3 4 5
      vertex 3 7 7
      vertex 3 8 7
    endloop
  endfacet
  facet normal -1 0 0
    outer loop
      vertex 3 4 5
      vertex 3 8 7
      vertex 3 8 4
    endloop
  endfacet
  facet normal -1 0 0
    outer loop
      vertex 3 7 3
      vertex 3 5 3
      vertex 3 5 4
    endloop
  endfacet
  facet normal -1 0 0
    outer loop
      vertex 3 7 3
      vertex 3 5 4
      vertex 3 7 4
    endloop
  endfacet
  facet normal -1 0 0
    outer loop
      vertex 3 4 5
      vertex 3 8 4
      vertex 3 7 4
    endloop
  endfacet
  facet normal -1 0 0
    outer loop
      vertex 3 4 5
      vertex 3 7 4
      vertex 3 5 4
    endloop
  endfacet
  facet normal -1 0 0
    outer loop
      vertex 3 4 5
      vertex 3 5 4
      vertex 3 4 4
    endloop
  endfacet
  facet normal 0 -1 0
    outer loop
      vertex 3 3 7
      vertex 3 3 5
      vertex 4 3 5
    endloop
  endfacet
  facet normal 0 -1 0
    outer loop
      vertex 7 3 4
      vertex 3 3 7
      vertex 4 3 5
    endloop
  endfacet
  facet normal 0 -1 0
    outer loop
      vertex 4 3 4
      vertex 7 3 4
      vertex 4 3 5
    endloop
  endfacet
  facet normal 0 -1 0
    outer loop
      vertex 7 3 4
      vertex 6 3 7
      vertex 4 3 7
    endloop
  endfacet
  facet normal 0 -1 0
    outer loop
      vertex 7 3 4
      vertex 7 3 7
      vertex 6 3 7
    endloop
  endfacet
  facet normal 0 -1 0
    outer loop
      vertex 7 3 4
      vertex 4 3 7
      vertex 3 3 7
    endloop
  endfacet
  facet normal 0 -1 0
    outer loop
      vertex 6 3 7
      vertex 6 3 8
      vertex 4 3 7
    endloop
  endfacet
  facet normal 0 -1 0
    outer loop
      vertex 4 3 8
      vertex 4 3 7
      vertex 6 3 8
    endloop
  endfacet
  facet normal 0 0 -1
    outer loop
      vertex 3 3 5
      vertex 3 4 5
      vertex 4 3 5
    endloop
  endfacet
  facet normal 0 0 -1
    outer loop
      vertex 4 3 5
      vertex 3 4 5
      vertex 4 4 5
    endloop
  endfacet
  facet normal 0 -1 0
    outer loop
      vertex 3 4 5
      vertex 3 4 4
      vertex 4 4 4
    endloop
  endfacet
  facet normal 0 -1 0
    outer loop
      vertex 4 4 5
      vertex 3 4 5
      vertex 4 4 4
    endloop
  endfacet
  facet normal 0 0 -1
    outer loop
      vertex 3 4 4
      vertex 3 5 4
      vertex 4 4 4
    endloop
  endfacet
  facet normal 0 0 -1
    outer loop
      vertex 4 4 4
      vertex 3 5 4
      vertex 4 5 4
    endloop
  endfacet
  facet normal 0 -1 0
    outer loop
      vertex 3 5 4
      vertex 3 5 3
      vertex 4 5 3
    endloop
  endfacet
  facet normal 0 -1 0
    outer loop
      vertex 4 5 4
      vertex 3 5 4
      vertex 4 5 3
    endloop
  endfacet
  facet normal 0 0 -1
    outer loop
      vertex 3 5 3
      vertex 3 7 3
      vertex 4 5 3
    endloop
  endfacet
  facet normal 0 0 -1
    outer loop
      vertex 4 5 3
      vertex 3 7 3
      vertex 4 7 3
    endloop
  endfacet
  facet normal 0 0 -1
    outer loop
      vertex 4 7 3
      vertex 4 8 3
      vertex 8 8 3
    endloop
  endfacet
  facet normal 0 0 -1
    outer loop
      vertex 4 7 3
      vertex 8 8 3
      vertex 4 5 3
    endloop
  endfacet
  facet normal 0 0 -1
    outer loop
      vertex 4 5 3
      vertex 8 8 3
      vertex 8 4 3
    endloop
  endfacet
  facet normal 0 0 -1
    outer loop
      vertex 4 5 3
      vertex 8 4 3
      vertex 4 4 3
    endloop
  endfacet
  facet normal 0 1 0
    outer loop
      vertex 3 7 3
      vertex 3 7 4
      vertex 4 7 3
    endloop
  endfacet
  facet normal 0 1 0
    outer loop
      vertex 4 7 3
      vertex 3 7 4
      vertex 4 7 4
    endloop
  endfacet
  facet normal 0 0 -1
    outer loop
      vertex 3 7 4
      vertex 3 8 4
      vertex 4 7 4
    endloop
  endfacet
  facet normal 0 0 -1
    outer loop
      vertex 4 7 4
      vertex 3 8 4
      vertex 4 8 4
    endloop
  endfacet
  facet normal 0 1 0
    outer loop
      vertex 3 8 4
      vertex 3 8 7
      vertex 4 8 4
    endloop
  endfacet
  facet normal 0 1 0
    outer loop
      vertex 4 8 4
      vertex 3 8 7
      vertex 4 8 7
    endloop
  endfacet
  facet normal 0 1 0
    outer loop
      vertex 4 8 7
      vertex 4 8 8
      vertex 8 8 8
    endloop
  endfacet
  facet normal 0 1 0
    outer loop
      vertex 5 8 5
      vertex 8 8 3
      vertex 4 8 4
    endloop
  endfacet
  facet normal 0 1 0
    outer loop
      vertex 6 8 5
      vertex 8 8 8
      vertex 8 8 3
    endloop
  endfacet
  facet normal 0 1 0
    outer loop
      vertex 4 8 7
      vertex 8 8 8
      vertex 5 8 6
    endloop
  endfacet
  facet normal 0 1 0
    outer loop
      vertex 4 8 7
      vertex 5 8 6
      vertex 4 8 4
    endloop
  endfacet
  facet normal 0 1 0
    outer loop
      vertex 5 8 6
      vertex 5 8 5
      vertex 4 8 4
    endloop
  endfacet
  facet normal 0 1 0
    outer loop
      vertex 6 8 6
      vertex 8 8 8
      vertex 6 8 5
    endloop
  endfacet
  facet normal 0 1 0
    outer loop
      vertex 5 8 5
      vertex 6 8 5
      vertex 8 8 3
    endloop
  endfacet
  facet normal 0 1 0
    outer loop
      vertex 5 8 6
      vertex 8 8 8
      vertex 6 8 6
    endloop
  endfacet
  facet normal 0 1 0
    outer loop
      vertex 4 8 4
      vertex 8 8 3
      vertex 4 8 3
    endloop
  endfacet
  facet normal 0 0 1
    outer loop
      vertex 3 8 7
      vertex 3 7 7
      vertex 4 7 7
    endloop
  endfacet
  facet normal 0 0 1
    outer loop
      vertex 4 8 7
      vertex 3 8 7
      vertex 4 7 7
    endloop
  endfacet
  facet normal 0 1 0
    outer loop
      vertex 3 7 7
      vertex 3 7 8
      vertex 4 7 7
    endloop
  endfacet
  facet normal 0 1 0
    outer loop
      vertex 4 7 7
      vertex 3 7 8
      vertex 4 7 8
    endloop
  endfacet
  facet normal 0 0 1
    outer loop
      vertex 6 4 8
      vertex 8 4 8
      vertex 3 7 8
    endloop
  endfacet
  facet normal 0 0 1
    outer loop
      vertex 3 7 8
      vertex 3 4 8
      vertex 4 4 8
    endloop
  endfacet
  facet normal 0 0 1
    outer loop
      vertex 6 3 8
      vertex 3 7 8
      vertex 4 4 8
    endloop
  endfacet
  facet normal 0 0 1
    outer loop
      vertex 4 3 8
      vertex 6 3 8
      vertex 4 4 8
    endloop
  endfacet
  facet normal 0 0 1
    outer loop
      vertex 6 3 8
      vertex 6 4 8
      vertex 3 7 8
    endloop
  endfacet
  facet normal 0 0 1
    outer loop
      vertex 8 4 8
      vertex 4 7 8
      vertex 3 7 8
    endloop
  endfacet
  facet normal 0 0 1
    outer loop
      vertex 8 4 8
      vertex 8 8 8
      vertex 4 7 8
    endloop
  endfacet
  facet normal 0 0 1
    outer loop
      vertex 4 8 8
      vertex 4 7 8
      vertex 8 8 8
    endloop
  endfacet
  facet normal 0 -1 0
    outer loop
      vertex 3 4 8
      vertex 3 4 7
      vertex 4 4 7
    endloop
  endfacet
  facet normal 0 -1 0
    outer loop
      vertex 4 4 8
      vertex 3 4 8
      vertex 4 4 7
    endloop
  endfacet
  facet normal 0 0 1
    outer loop
      vertex 3 4 7
      vertex 3 3 7
      vertex 4 3 7
    endloop
  endfacet
  facet normal 0 0 1
    outer loop
      vertex 4 4 7
      vertex 3 4 7
      vertex 4 3 7
    endloop
  endfacet
  facet normal -1 0 0
    outer loop
      vertex 4 3 7
      vertex 4 3 8
      vertex 4 4 7
    endloop
  endfacet
  facet normal -1 0 0
    outer loop
      vertex 4 4 7
      vertex 4 3 8
      vertex 4 4 8
    endloop
  endfacet
  facet normal 1 0 0
    outer loop
      vertex 6 3 8
      vertex 6 3 7
      vertex 6 4 7
    endloop
  endfacet
  facet normal 1 0 0
    outer loop
      vertex 6 4 8
      vertex 6 3 8
      vertex 6 4 7
    endloop
  endfacet
  facet normal 0 0 1
    outer loop
      vertex 6 4 7
      vertex 6 3 7
      vertex 7 3 7
    endloop
  endfacet
  facet normal 0 0 1
    outer loop
      vertex 7 4 7
      vertex 6 4 7
      vertex 7 3 7
    endloop
  endfacet
  facet normal 1 0 0
    outer loop
      vertex 7 3 7
      vertex 7 3 4
      vertex 7 4 4
    endloop
  endfacet
  facet normal 1 0 0
    outer loop
      vertex 7 4 7
      vertex 7 3 7
      vertex 7 4 4
    endloop
  endfacet
  facet normal 0 0 -1
    outer loop
      vertex 4 3 4
      vertex 4 4 4
      vertex 7 3 4
    endloop
  endfacet
  facet normal 0 0 -1
    outer loop
      vertex 7 3 4
      vertex 4 4 4
      vertex 7 4 4
    endloop
  endfacet
  facet normal -1 0 0
    outer loop
      vertex 4 3 4
      vertex 4 3 5
      vertex 4 4 4
    endloop
  endfacet
  facet normal -1 0 0
    outer loop
      vertex 4 4 4
      vertex 4 3 5
      vertex 4 4 5
    endloop
  endfacet
  facet normal 0 -1 0
    outer loop
      vertex 4 4 4
      vertex 4 4 3
      vertex 8 4 3
    endloop
  endfacet
  facet normal 0 -1 0
    outer loop
      vertex 7 4 4
      vertex 4 4 4
      vertex 8 4 3
    endloop
  endfacet
  facet normal 0 -1 0
    outer loop
      vertex 8 4 8
      vertex 7 4 7
      vertex 8 4 3
    endloop
  endfacet
  facet normal 0 -1 0
    outer loop
      vertex 6 4 8
      vertex 6 4 7
      vertex 8 4 8
    endloop
  endfacet
  facet normal 0 -1 0
    outer loop
      vertex 6 4 7
      vertex 7 4 7
      vertex 8 4 8
    endloop
  endfacet
  facet normal 0 -1 0
    outer loop
      vertex 7 4 7
      vertex 7 4 4
      vertex 8 4 3
    endloop
  endfacet
  facet normal -1 0 0
    outer loop
      vertex 4 4 3
      vertex 4 4 4
      vertex 4 5 3
    endloop
  endfacet
  facet normal -1 0 0
    outer loop
      vertex 4 5 3
      vertex 4 4 4
      vertex 4 5 4
    endloop
  endfacet
  facet normal 1 0 0
    outer loop
      vertex 8 4 8
      vertex 8 4 3
      vertex 8 8 3
    endloop
  endfacet
  facet normal 1 0 0
    outer loop
      vertex 8 8 8
      vertex 8 4 8
      vertex 8 8 3
    endloop
  endfacet
  facet normal -1 0 0
    outer loop
      vertex 4 7 3
      vertex 4 7 4
      vertex 4 8 3
    endloop
  endfacet
  facet normal -1 0 0
    outer loop
      vertex 4 8 3
      vertex 4 7 4
      vertex 4 8 4
    endloop
  endfacet
  facet normal -1 0 0
    outer loop
      vertex 4 7 7
      vertex 4 7 8
      vertex 4 8 7
    endloop
  endfacet
  facet normal -1 0 0
    outer loop
      vertex 4 8 7
      vertex 4 7 8
      vertex 4 8 8
    endloop
  endfacet
  facet normal 0 0 1
    outer loop
      vertex 5 9 6
      vertex 5 8 6
      vertex 6 8 6
    endloop
  endfacet
  facet normal 0 0 1
    outer loop
      vertex 6 9 6
      vertex 5 9 6
      vertex 6 8 6
    endloop
  endfacet
  facet normal -1 0 0
    outer loop
      vertex 5 8 5
      vertex 5 8 6
      vertex 5 9 5
    endloop
  endfacet
  facet normal -1 0 0
    outer loop
      vertex 5 9 5
      vertex 5 8 6
      vertex 5 9 6
    endloop
  endfacet
  facet normal 1 0 0
    outer loop
      vertex 6 8 6
      vertex 6 8 5
      vertex 6 9 5
    endloop
  endfacet
  facet normal 1 0 0
    outer loop
      vertex 6 9 6
      vertex 6 8 6
      vertex 6 9 5
    endloop
  endfacet
  facet normal 0 0 -1
    outer loop
      vertex 5 8 5
      vertex 5 9 5
      vertex 6 8 5
    endloop
  endfacet
  facet normal 0 0 -1
    outer loop
      vertex 6 8 5
      vertex 5 9 5
      vertex 6 9 5
    endloop
  endfacet
  facet normal 0 1 0
    outer loop
      vertex 5 9 5
      vertex 5 9 6
      vertex 6 9 5
    endloop
  endfacet
  facet normal 0 1 0
    outer loop
      vertex 6 9 5
      vertex 5 9 6
      vertex 6 9 6
    endloop
  endfacet
endsolid OpenSCAD_Model
