solid OpenSCAD_Model
  facet normal -1 0 0
    outer loop
      vertex 3 4 5
      vertex 3 5 6
      vertex 3 5 5
    endloop
  endfacet
  facet normal -1 -0 0
    outer loop
      vertex 3 5 6
      vertex 3 4 5
      vertex 3 4 6
    endloop
  endfacet
  facet normal -0 0 1
    outer loop
      vertex 3 5 6
      vertex 4 4 6
      vertex 4 5 6
    endloop
  endfacet
  facet normal 0 0 1
    outer loop
      vertex 4 4 6
      vertex 3 5 6
      vertex 3 4 6
    endloop
  endfacet
  facet normal 1 -0 0
    outer loop
      vertex 4 4 6
      vertex 4 5 5
      vertex 4 5 6
    endloop
  endfacet
  facet normal 1 0 0
    outer loop
      vertex 4 5 5
      vertex 4 4 6
      vertex 4 4 5
    endloop
  endfacet
  facet normal 0 1 -0
    outer loop
      vertex 4 5 5
      vertex 3 5 6
      vertex 4 5 6
    endloop
  endfacet
  facet normal 0 1 0
    outer loop
      vertex 3 5 6
      vertex 4 5 5
      vertex 3 5 5
    endloop
  endfacet
  facet normal 0 0 -1
    outer loop
      vertex 3 4 5
      vertex 4 5 5
      vertex 4 4 5
    endloop
  endfacet
  facet normal -0 0 -1
    outer loop
      vertex 4 5 5
      vertex 3 4 5
      vertex 3 5 5
    endloop
  endfacet
  facet normal 0 -1 0
    outer loop
      vertex 3 4 5
      vertex 4 4 6
      vertex 3 4 6
    endloop
  endfacet
  facet normal 0 -1 -0
    outer loop
      vertex 4 4 6
      vertex 3 4 5
      vertex 4 4 5
    endloop
  endfacet
  facet normal -1 0 0
    outer loop
      vertex 5 7 9
      vertex 5 8 10
      vertex 5 8 9
    endloop
  endfacet
  facet normal -1 -0 0
    outer loop
      vertex 5 8 10
      vertex 5 7 9
      vertex 5 7 10
    endloop
  endfacet
  facet normal -0 0 1
    outer loop
      vertex 5 8 10
      vertex 6 7 10
      vertex 6 8 10
    endloop
  endfacet
  facet normal 0 0 1
    outer loop
      vertex 6 7 10
      vertex 5 8 10
      vertex 5 7 10
    endloop
  endfacet
  facet normal 1 -0 0
    outer loop
      vertex 6 7 10
      vertex 6 8 9
      vertex 6 8 10
    endloop
  endfacet
  facet normal 1 0 0
    outer loop
      vertex 6 8 9
      vertex 6 7 10
      vertex 6 7 9
    endloop
  endfacet
  facet normal 0 0 -1
    outer loop
      vertex 5 7 9
      vertex 6 8 9
      vertex 6 7 9
    endloop
  endfacet
  facet normal -0 0 -1
    outer loop
      vertex 6 8 9
      vertex 5 7 9
      vertex 5 8 9
    endloop
  endfacet
  facet normal 0 -1 0
    outer loop
      vertex 5 7 9
      vertex 6 7 10
      vertex 5 7 10
    endloop
  endfacet
  facet normal 0 -1 -0
    outer loop
      vertex 6 7 10
      vertex 5 7 9
      vertex 6 7 9
    endloop
  endfacet
  facet normal 0 1 -0
    outer loop
      vertex 6 8 9
      vertex 5 8 10
      vertex 6 8 10
    endloop
  endfacet
  facet normal 0 1 0
    outer loop
      vertex 5 8 10
      vertex 6 8 9
      vertex 5 8 9
    endloop
  endfacet
endsolid OpenSCAD_Model
