solid OpenSCAD_Model
  facet normal -1 0 0
    outer loop
      vertex 3 3 2
      vertex 3 3 10
      vertex 3 4 2
    endloop
  endfacet
  facet normal -1 0 0
    outer loop
      vertex 3 4 8
      vertex 3 3 10
      vertex 3 5 10
    endloop
  endfacet
  facet normal -1 0 0
    outer loop
      vertex 3 4 2
      vertex 3 3 10
      vertex 3 4 3
    endloop
  endfacet
  facet normal -1 0 0
    outer loop
      vertex 3 3 10
      vertex 3 4 8
      vertex 3 4 7
    endloop
  endfacet
  facet normal -1 0 0
    outer loop
      vertex 3 5 7
      vertex 3 4 3
      vertex 3 4 7
    endloop
  endfacet
  facet normal -1 0 0
    outer loop
      vertex 3 4 3
      vertex 3 5 7
      vertex 3 5 3
    endloop
  endfacet
  facet normal -1 0 0
    outer loop
      vertex 3 3 10
      vertex 3 4 7
      vertex 3 4 3
    endloop
  endfacet
  facet normal -1 0 0
    outer loop
      vertex 3 4 8
      vertex 3 5 10
      vertex 3 5 8
    endloop
  endfacet
  facet normal 0 -1 0
    outer loop
      vertex 3 3 10
      vertex 3 3 2
      vertex 5 3 2
    endloop
  endfacet
  facet normal 0 -1 0
    outer loop
      vertex 6 3 3
      vertex 3 3 10
      vertex 5 3 3
    endloop
  endfacet
  facet normal 0 -1 0
    outer loop
      vertex 5 3 3
      vertex 3 3 10
      vertex 5 3 2
    endloop
  endfacet
  facet normal 0 -1 0
    outer loop
      vertex 6 3 4
      vertex 3 3 10
      vertex 6 3 3
    endloop
  endfacet
  facet normal 0 -1 0
    outer loop
      vertex 8 3 2
      vertex 6 3 3
      vertex 6 3 2
    endloop
  endfacet
  facet normal 0 -1 0
    outer loop
      vertex 6 3 5
      vertex 7 3 5
      vertex 3 3 10
    endloop
  endfacet
  facet normal 0 -1 0
    outer loop
      vertex 8 3 9
      vertex 3 3 10
      vertex 9 3 3
    endloop
  endfacet
  facet normal 0 -1 0
    outer loop
      vertex 9 3 9
      vertex 8 3 9
      vertex 9 3 3
    endloop
  endfacet
  facet normal 0 -1 0
    outer loop
      vertex 8 3 2
      vertex 6 3 4
      vertex 6 3 3
    endloop
  endfacet
  facet normal 0 -1 0
    outer loop
      vertex 6 3 5
      vertex 3 3 10
      vertex 6 3 4
    endloop
  endfacet
  facet normal 0 -1 0
    outer loop
      vertex 7 3 5
      vertex 7 3 4
      vertex 8 3 3
    endloop
  endfacet
  facet normal 0 -1 0
    outer loop
      vertex 9 3 3
      vertex 7 3 5
      vertex 8 3 3
    endloop
  endfacet
  facet normal 0 -1 0
    outer loop
      vertex 9 3 3
      vertex 3 3 10
      vertex 7 3 5
    endloop
  endfacet
  facet normal 0 -1 0
    outer loop
      vertex 8 3 3
      vertex 7 3 4
      vertex 8 3 2
    endloop
  endfacet
  facet normal 0 -1 0
    outer loop
      vertex 8 3 9
      vertex 8 3 10
      vertex 3 3 10
    endloop
  endfacet
  facet normal 0 -1 0
    outer loop
      vertex 7 3 4
      vertex 6 3 4
      vertex 8 3 2
    endloop
  endfacet
  facet normal 0 0 -1
    outer loop
      vertex 3 3 2
      vertex 3 4 2
      vertex 5 3 2
    endloop
  endfacet
  facet normal 0 0 -1
    outer loop
      vertex 5 3 2
      vertex 3 4 2
      vertex 4 4 2
    endloop
  endfacet
  facet normal 0 0 -1
    outer loop
      vertex 5 3 2
      vertex 4 4 2
      vertex 4 5 2
    endloop
  endfacet
  facet normal 0 0 -1
    outer loop
      vertex 5 4 2
      vertex 4 5 2
      vertex 6 4 2
    endloop
  endfacet
  facet normal 0 0 -1
    outer loop
      vertex 7 5 2
      vertex 7 9 2
      vertex 9 9 2
    endloop
  endfacet
  facet normal 0 0 -1
    outer loop
      vertex 7 5 2
      vertex 9 9 2
      vertex 9 4 2
    endloop
  endfacet
  facet normal 0 0 -1
    outer loop
      vertex 7 5 2
      vertex 9 4 2
      vertex 8 4 2
    endloop
  endfacet
  facet normal 0 0 -1
    outer loop
      vertex 6 4 2
      vertex 8 4 2
      vertex 6 3 2
    endloop
  endfacet
  facet normal 0 0 -1
    outer loop
      vertex 7 5 2
      vertex 8 4 2
      vertex 6 4 2
    endloop
  endfacet
  facet normal 0 0 -1
    outer loop
      vertex 7 5 2
      vertex 6 4 2
      vertex 4 5 2
    endloop
  endfacet
  facet normal 0 0 -1
    outer loop
      vertex 5 3 2
      vertex 4 5 2
      vertex 5 4 2
    endloop
  endfacet
  facet normal 0 0 -1
    outer loop
      vertex 8 3 2
      vertex 6 3 2
      vertex 8 4 2
    endloop
  endfacet
  facet normal 0 1 0
    outer loop
      vertex 3 4 2
      vertex 3 4 3
      vertex 4 4 2
    endloop
  endfacet
  facet normal 0 1 0
    outer loop
      vertex 4 4 2
      vertex 3 4 3
      vertex 4 4 3
    endloop
  endfacet
  facet normal 0 0 -1
    outer loop
      vertex 3 4 3
      vertex 3 5 3
      vertex 4 4 3
    endloop
  endfacet
  facet normal 0 0 -1
    outer loop
      vertex 4 4 3
      vertex 3 5 3
      vertex 4 5 3
    endloop
  endfacet
  facet normal 0 1 0
    outer loop
      vertex 3 5 3
      vertex 3 5 7
      vertex 4 5 3
    endloop
  endfacet
  facet normal 0 1 0
    outer loop
      vertex 4 5 3
      vertex 3 5 7
      vertex 5 5 7
    endloop
  endfacet
  facet normal 0 1 0
    outer loop
      vertex 5 5 7
      vertex 7 5 10
      vertex 4 5 3
    endloop
  endfacet
  facet normal 0 1 0
    outer loop
      vertex 5 5 8
      vertex 3 5 8
      vertex 3 5 10
    endloop
  endfacet
  facet normal 0 1 0
    outer loop
      vertex 5 5 8
      vertex 3 5 10
      vertex 7 5 10
    endloop
  endfacet
  facet normal 0 1 0
    outer loop
      vertex 5 5 8
      vertex 7 5 10
      vertex 5 5 7
    endloop
  endfacet
  facet normal 0 1 0
    outer loop
      vertex 4 5 3
      vertex 7 5 10
      vertex 7 5 7
    endloop
  endfacet
  facet normal 0 1 0
    outer loop
      vertex 4 5 3
      vertex 7 5 7
      vertex 7 5 6
    endloop
  endfacet
  facet normal 0 1 0
    outer loop
      vertex 7 5 6
      vertex 8 5 7
      vertex 8 5 6
    endloop
  endfacet
  facet normal 0 1 0
    outer loop
      vertex 7 5 7
      vertex 8 5 7
      vertex 7 5 6
    endloop
  endfacet
  facet normal 0 1 0
    outer loop
      vertex 7 5 2
      vertex 4 5 3
      vertex 7 5 6
    endloop
  endfacet
  facet normal 0 1 0
    outer loop
      vertex 4 5 3
      vertex 7 5 2
      vertex 4 5 2
    endloop
  endfacet
  facet normal 0 0 1
    outer loop
      vertex 3 5 7
      vertex 3 4 7
      vertex 5 4 7
    endloop
  endfacet
  facet normal 0 0 1
    outer loop
      vertex 5 5 7
      vertex 3 5 7
      vertex 5 4 7
    endloop
  endfacet
  facet normal 0 1 0
    outer loop
      vertex 3 4 7
      vertex 3 4 8
      vertex 5 4 7
    endloop
  endfacet
  facet normal 0 1 0
    outer loop
      vertex 5 4 7
      vertex 3 4 8
      vertex 5 4 8
    endloop
  endfacet
  facet normal 0 0 -1
    outer loop
      vertex 3 4 8
      vertex 3 5 8
      vertex 5 4 8
    endloop
  endfacet
  facet normal 0 0 -1
    outer loop
      vertex 5 4 8
      vertex 3 5 8
      vertex 5 5 8
    endloop
  endfacet
  facet normal 0 0 1
    outer loop
      vertex 3 5 10
      vertex 3 3 10
      vertex 8 3 10
    endloop
  endfacet
  facet normal 0 0 1
    outer loop
      vertex 9 4 10
      vertex 3 5 10
      vertex 8 4 10
    endloop
  endfacet
  facet normal 0 0 1
    outer loop
      vertex 8 4 10
      vertex 3 5 10
      vertex 8 3 10
    endloop
  endfacet
  facet normal 0 0 1
    outer loop
      vertex 7 5 10
      vertex 3 5 10
      vertex 9 4 10
    endloop
  endfacet
  facet normal 0 0 1
    outer loop
      vertex 9 9 10
      vertex 7 5 10
      vertex 9 4 10
    endloop
  endfacet
  facet normal 0 0 1
    outer loop
      vertex 7 9 10
      vertex 7 5 10
      vertex 9 9 10
    endloop
  endfacet
  facet normal 1 0 0
    outer loop
      vertex 8 3 10
      vertex 8 3 9
      vertex 8 4 9
    endloop
  endfacet
  facet normal 1 0 0
    outer loop
      vertex 8 4 10
      vertex 8 3 10
      vertex 8 4 9
    endloop
  endfacet
  facet normal 0 0 1
    outer loop
      vertex 8 4 9
      vertex 8 3 9
      vertex 9 3 9
    endloop
  endfacet
  facet normal 0 0 1
    outer loop
      vertex 9 4 9
      vertex 8 4 9
      vertex 9 3 9
    endloop
  endfacet
  facet normal 1 0 0
    outer loop
      vertex 9 3 9
      vertex 9 3 3
      vertex 9 4 3
    endloop
  endfacet
  facet normal 1 0 0
    outer loop
      vertex 9 9 2
      vertex 9 3 9
      vertex 9 4 3
    endloop
  endfacet
  facet normal 1 0 0
    outer loop
      vertex 9 4 2
      vertex 9 9 2
      vertex 9 4 3
    endloop
  endfacet
  facet normal 1 0 0
    outer loop
      vertex 9 6 9
      vertex 9 8 9
      vertex 9 9 10
    endloop
  endfacet
  facet normal 1 0 0
    outer loop
      vertex 9 9 2
      vertex 9 4 9
      vertex 9 3 9
    endloop
  endfacet
  facet normal 1 0 0
    outer loop
      vertex 9 6 9
      vertex 9 9 10
      vertex 9 4 9
    endloop
  endfacet
  facet normal 1 0 0
    outer loop
      vertex 9 9 2
      vertex 9 6 8
      vertex 9 4 9
    endloop
  endfacet
  facet normal 1 0 0
    outer loop
      vertex 9 6 8
      vertex 9 6 9
      vertex 9 4 9
    endloop
  endfacet
  facet normal 1 0 0
    outer loop
      vertex 9 9 2
      vertex 9 9 10
      vertex 9 8 9
    endloop
  endfacet
  facet normal 1 0 0
    outer loop
      vertex 9 9 2
      vertex 9 8 8
      vertex 9 6 8
    endloop
  endfacet
  facet normal 1 0 0
    outer loop
      vertex 9 9 2
      vertex 9 8 9
      vertex 9 8 8
    endloop
  endfacet
  facet normal 1 0 0
    outer loop
      vertex 9 4 10
      vertex 9 4 9
      vertex 9 9 10
    endloop
  endfacet
  facet normal 0 0 -1
    outer loop
      vertex 8 3 3
      vertex 8 4 3
      vertex 9 3 3
    endloop
  endfacet
  facet normal 0 0 -1
    outer loop
      vertex 9 3 3
      vertex 8 4 3
      vertex 9 4 3
    endloop
  endfacet
  facet normal 1 0 0
    outer loop
      vertex 8 3 3
      vertex 8 3 2
      vertex 8 4 2
    endloop
  endfacet
  facet normal 1 0 0
    outer loop
      vertex 8 4 3
      vertex 8 3 3
      vertex 8 4 2
    endloop
  endfacet
  facet normal -1 0 0
    outer loop
      vertex 6 3 2
      vertex 6 3 3
      vertex 6 4 2
    endloop
  endfacet
  facet normal -1 0 0
    outer loop
      vertex 6 4 2
      vertex 6 3 3
      vertex 6 4 3
    endloop
  endfacet
  facet normal 0 0 -1
    outer loop
      vertex 5 3 3
      vertex 5 4 3
      vertex 6 3 3
    endloop
  endfacet
  facet normal 0 0 -1
    outer loop
      vertex 6 3 3
      vertex 5 4 3
      vertex 6 4 3
    endloop
  endfacet
  facet normal 1 0 0
    outer loop
      vertex 5 3 3
      vertex 5 3 2
      vertex 5 4 2
    endloop
  endfacet
  facet normal 1 0 0
    outer loop
      vertex 5 4 3
      vertex 5 3 3
      vertex 5 4 2
    endloop
  endfacet
  facet normal 1 0 0
    outer loop
      vertex 6 3 5
      vertex 6 3 4
      vertex 6 4 4
    endloop
  endfacet
  facet normal 1 0 0
    outer loop
      vertex 6 4 5
      vertex 6 3 5
      vertex 6 4 4
    endloop
  endfacet
  facet normal 0 0 1
    outer loop
      vertex 6 4 4
      vertex 6 3 4
      vertex 7 3 4
    endloop
  endfacet
  facet normal 0 0 1
    outer loop
      vertex 7 4 4
      vertex 6 4 4
      vertex 7 3 4
    endloop
  endfacet
  facet normal -1 0 0
    outer loop
      vertex 7 3 4
      vertex 7 3 5
      vertex 7 4 4
    endloop
  endfacet
  facet normal -1 0 0
    outer loop
      vertex 7 4 4
      vertex 7 3 5
      vertex 7 4 5
    endloop
  endfacet
  facet normal 0 0 -1
    outer loop
      vertex 6 3 5
      vertex 6 4 5
      vertex 7 3 5
    endloop
  endfacet
  facet normal 0 0 -1
    outer loop
      vertex 7 3 5
      vertex 6 4 5
      vertex 7 4 5
    endloop
  endfacet
  facet normal 0 -1 0
    outer loop
      vertex 5 4 3
      vertex 5 4 2
      vertex 6 4 2
    endloop
  endfacet
  facet normal 0 -1 0
    outer loop
      vertex 6 4 3
      vertex 5 4 3
      vertex 6 4 2
    endloop
  endfacet
  facet normal 0 -1 0
    outer loop
      vertex 8 4 3
      vertex 8 4 2
      vertex 9 4 2
    endloop
  endfacet
  facet normal 0 -1 0
    outer loop
      vertex 9 4 3
      vertex 8 4 3
      vertex 9 4 2
    endloop
  endfacet
  facet normal 0 1 0
    outer loop
      vertex 7 9 2
      vertex 7 9 10
      vertex 9 9 2
    endloop
  endfacet
  facet normal 0 1 0
    outer loop
      vertex 9 9 2
      vertex 7 9 10
      vertex 9 9 10
    endloop
  endfacet
  facet normal -1 0 0
    outer loop
      vertex 7 5 2
      vertex 7 5 6
      vertex 7 9 2
    endloop
  endfacet
  facet normal -1 0 0
    outer loop
      vertex 7 9 2
      vertex 7 5 6
      vertex 7 6 6
    endloop
  endfacet
  facet normal -1 0 0
    outer loop
      vertex 7 9 2
      vertex 7 6 6
      vertex 7 6 7
    endloop
  endfacet
  facet normal -1 0 0
    outer loop
      vertex 7 6 7
      vertex 7 5 7
      vertex 7 5 10
    endloop
  endfacet
  facet normal -1 0 0
    outer loop
      vertex 7 6 7
      vertex 7 5 10
      vertex 7 9 2
    endloop
  endfacet
  facet normal -1 0 0
    outer loop
      vertex 7 9 2
      vertex 7 5 10
      vertex 7 9 10
    endloop
  endfacet
  facet normal -1 0 0
    outer loop
      vertex 4 4 2
      vertex 4 4 3
      vertex 4 5 2
    endloop
  endfacet
  facet normal -1 0 0
    outer loop
      vertex 4 5 2
      vertex 4 4 3
      vertex 4 5 3
    endloop
  endfacet
  facet normal 0 0 1
    outer loop
      vertex 7 6 6
      vertex 7 5 6
      vertex 8 5 6
    endloop
  endfacet
  facet normal 0 0 1
    outer loop
      vertex 8 6 6
      vertex 7 6 6
      vertex 8 5 6
    endloop
  endfacet
  facet normal -1 0 0
    outer loop
      vertex 8 5 6
      vertex 8 5 7
      vertex 8 6 6
    endloop
  endfacet
  facet normal -1 0 0
    outer loop
      vertex 8 6 6
      vertex 8 5 7
      vertex 8 6 7
    endloop
  endfacet
  facet normal 0 0 -1
    outer loop
      vertex 7 5 7
      vertex 7 6 7
      vertex 8 5 7
    endloop
  endfacet
  facet normal 0 0 -1
    outer loop
      vertex 8 5 7
      vertex 7 6 7
      vertex 8 6 7
    endloop
  endfacet
  facet normal -1 0 0
    outer loop
      vertex 5 4 7
      vertex 5 4 8
      vertex 5 5 7
    endloop
  endfacet
  facet normal -1 0 0
    outer loop
      vertex 5 5 7
      vertex 5 4 8
      vertex 5 5 8
    endloop
  endfacet
  facet normal 0 -1 0
    outer loop
      vertex 8 4 10
      vertex 8 4 9
      vertex 9 4 9
    endloop
  endfacet
  facet normal 0 -1 0
    outer loop
      vertex 9 4 10
      vertex 8 4 10
      vertex 9 4 9
    endloop
  endfacet
  facet normal 0 0 1
    outer loop
      vertex 8 8 8
      vertex 8 6 8
      vertex 9 6 8
    endloop
  endfacet
  facet normal 0 0 1
    outer loop
      vertex 9 8 8
      vertex 8 8 8
      vertex 9 6 8
    endloop
  endfacet
  facet normal 0 1 0
    outer loop
      vertex 8 6 8
      vertex 8 6 9
      vertex 9 6 8
    endloop
  endfacet
  facet normal 0 1 0
    outer loop
      vertex 9 6 8
      vertex 8 6 9
      vertex 9 6 9
    endloop
  endfacet
  facet normal 0 -1 0
    outer loop
      vertex 8 8 9
      vertex 8 8 8
      vertex 9 8 8
    endloop
  endfacet
  facet normal 0 -1 0
    outer loop
      vertex 9 8 9
      vertex 8 8 9
      vertex 9 8 8
    endloop
  endfacet
  facet normal 0 0 -1
    outer loop
      vertex 8 6 9
      vertex 8 8 9
      vertex 9 6 9
    endloop
  endfacet
  facet normal 0 0 -1
    outer loop
      vertex 9 6 9
      vertex 8 8 9
      vertex 9 8 9
    endloop
  endfacet
  facet normal 0 -1 0
    outer loop
      vertex 6 4 5
      vertex 6 4 4
      vertex 7 4 4
    endloop
  endfacet
  facet normal 0 -1 0
    outer loop
      vertex 7 4 5
      vertex 6 4 5
      vertex 7 4 4
    endloop
  endfacet
  facet normal 0 -1 0
    outer loop
      vertex 7 6 7
      vertex 7 6 6
      vertex 8 6 6
    endloop
  endfacet
  facet normal 0 -1 0
    outer loop
      vertex 8 6 7
      vertex 7 6 7
      vertex 8 6 6
    endloop
  endfacet
  facet normal 1 0 0
    outer loop
      vertex 8 6 9
      vertex 8 6 8
      vertex 8 8 8
    endloop
  endfacet
  facet normal 1 0 0
    outer loop
      vertex 8 8 9
      vertex 8 6 9
      vertex 8 8 8
    endloop
  endfacet
endsolid OpenSCAD_Model
