solid OpenSCAD_Model
  facet normal -1 0 0
    outer loop
      vertex 4 8 9
      vertex 4 11 10
      vertex 4 11 9
    endloop
  endfacet
  facet normal -1 -0 0
    outer loop
      vertex 4 11 10
      vertex 4 8 9
      vertex 4 8 10
    endloop
  endfacet
  facet normal 0 0 1
    outer loop
      vertex 6 11 10
      vertex 5 8 10
      vertex 6 8 10
    endloop
  endfacet
  facet normal -0 0 1
    outer loop
      vertex 4 11 10
      vertex 5 8 10
      vertex 6 11 10
    endloop
  endfacet
  facet normal 0 0 1
    outer loop
      vertex 5 8 10
      vertex 4 11 10
      vertex 4 8 10
    endloop
  endfacet
  facet normal -1 0 0
    outer loop
      vertex 5 6 8
      vertex 5 7 10
      vertex 5 7 8
    endloop
  endfacet
  facet normal -1 -0 0
    outer loop
      vertex 5 7 10
      vertex 5 6 8
      vertex 5 6 10
    endloop
  endfacet
  facet normal -1 0 0
    outer loop
      vertex 5 8 7
      vertex 5 10 7
      vertex 5 10 6
    endloop
  endfacet
  facet normal -1 0 0
    outer loop
      vertex 5 10 7
      vertex 5 8 7
      vertex 5 10 8
    endloop
  endfacet
  facet normal -1 0 0
    outer loop
      vertex 5 8 7
      vertex 5 10 6
      vertex 5 8 6
    endloop
  endfacet
  facet normal -1 0 0
    outer loop
      vertex 5 8 9
      vertex 5 10 8
      vertex 5 8 7
    endloop
  endfacet
  facet normal -1 0 0
    outer loop
      vertex 5 10 8
      vertex 5 8 9
      vertex 5 10 9
    endloop
  endfacet
  facet normal -1 0 0
    outer loop
      vertex 5 7 8
      vertex 5 8 9
      vertex 5 8 7
    endloop
  endfacet
  facet normal -1 0 0
    outer loop
      vertex 5 7 10
      vertex 5 8 9
      vertex 5 7 8
    endloop
  endfacet
  facet normal -1 0 0
    outer loop
      vertex 5 7 8
      vertex 5 8 7
      vertex 5 7 7
    endloop
  endfacet
  facet normal -1 0 0
    outer loop
      vertex 5 8 9
      vertex 5 7 10
      vertex 5 8 10
    endloop
  endfacet
  facet normal -1 0 0
    outer loop
      vertex 5 8 10
      vertex 5 7 10
      vertex 5 8 11
    endloop
  endfacet
  facet normal -1 -0 0
    outer loop
      vertex 5 8 11
      vertex 5 7 10
      vertex 5 7 11
    endloop
  endfacet
  facet normal -1 0 0
    outer loop
      vertex 5 10 7
      vertex 5 11 8
      vertex 5 11 7
    endloop
  endfacet
  facet normal -1 -0 0
    outer loop
      vertex 5 11 8
      vertex 5 10 7
      vertex 5 10 8
    endloop
  endfacet
  facet normal 0 0 -1
    outer loop
      vertex 5 8 9
      vertex 4 8 9
      vertex 5 10 9
    endloop
  endfacet
  facet normal 0 0 -1
    outer loop
      vertex 5 10 9
      vertex 6 11 9
      vertex 6 10 9
    endloop
  endfacet
  facet normal 0 0 -1
    outer loop
      vertex 5 10 9
      vertex 4 11 9
      vertex 6 11 9
    endloop
  endfacet
  facet normal 0 0 -1
    outer loop
      vertex 4 11 9
      vertex 5 10 9
      vertex 4 8 9
    endloop
  endfacet
  facet normal 0 -1 0
    outer loop
      vertex 4 8 9
      vertex 5 8 10
      vertex 4 8 10
    endloop
  endfacet
  facet normal 0 -1 -0
    outer loop
      vertex 5 8 10
      vertex 4 8 9
      vertex 5 8 9
    endloop
  endfacet
  facet normal 0 1 -0
    outer loop
      vertex 8 11 6
      vertex 6 11 7
      vertex 8 11 7
    endloop
  endfacet
  facet normal 0 1 0
    outer loop
      vertex 6 11 7
      vertex 8 11 6
      vertex 6 11 6
    endloop
  endfacet
  facet normal 0 1 -0
    outer loop
      vertex 8 11 7
      vertex 7 11 8
      vertex 8 11 8
    endloop
  endfacet
  facet normal 0 1 0
    outer loop
      vertex 7 11 8
      vertex 6 11 7
      vertex 6 11 8
    endloop
  endfacet
  facet normal 0 1 0
    outer loop
      vertex 7 11 8
      vertex 8 11 7
      vertex 6 11 7
    endloop
  endfacet
  facet normal 0 1 0
    outer loop
      vertex 6 11 8
      vertex 6 11 7
      vertex 5 11 8
    endloop
  endfacet
  facet normal 0 1 0
    outer loop
      vertex 5 11 8
      vertex 6 11 7
      vertex 5 11 7
    endloop
  endfacet
  facet normal 0 1 0
    outer loop
      vertex 7 11 10
      vertex 9 11 11
      vertex 9 11 10
    endloop
  endfacet
  facet normal 0 1 0
    outer loop
      vertex 9 11 11
      vertex 7 11 10
      vertex 6 11 11
    endloop
  endfacet
  facet normal 0 1 0
    outer loop
      vertex 7 11 10
      vertex 6 11 10
      vertex 6 11 11
    endloop
  endfacet
  facet normal 0 1 0
    outer loop
      vertex 6 11 9
      vertex 6 11 10
      vertex 7 11 10
    endloop
  endfacet
  facet normal 0 1 0
    outer loop
      vertex 6 11 10
      vertex 6 11 9
      vertex 4 11 10
    endloop
  endfacet
  facet normal 0 1 -0
    outer loop
      vertex 7 11 8
      vertex 6 11 9
      vertex 7 11 10
    endloop
  endfacet
  facet normal 0 1 0
    outer loop
      vertex 6 11 9
      vertex 7 11 8
      vertex 6 11 8
    endloop
  endfacet
  facet normal 0 1 0
    outer loop
      vertex 4 11 10
      vertex 6 11 9
      vertex 4 11 9
    endloop
  endfacet
  facet normal -1 0 0
    outer loop
      vertex 6 11 10
      vertex 6 9 11
      vertex 6 11 11
    endloop
  endfacet
  facet normal -1 0 0
    outer loop
      vertex 6 8 10
      vertex 6 9 11
      vertex 6 11 10
    endloop
  endfacet
  facet normal -1 0 0
    outer loop
      vertex 6 8 11
      vertex 6 9 11
      vertex 6 8 10
    endloop
  endfacet
  facet normal -1 0 0
    outer loop
      vertex 6 9 11
      vertex 6 8 11
      vertex 6 9 12
    endloop
  endfacet
  facet normal -1 0 0
    outer loop
      vertex 6 7 12
      vertex 6 8 11
      vertex 6 7 11
    endloop
  endfacet
  facet normal -1 0 0
    outer loop
      vertex 6 8 11
      vertex 6 7 12
      vertex 6 9 12
    endloop
  endfacet
  facet normal -1 0 0
    outer loop
      vertex 6 10 6
      vertex 6 11 7
      vertex 6 11 6
    endloop
  endfacet
  facet normal -1 -0 0
    outer loop
      vertex 6 11 7
      vertex 6 10 6
      vertex 6 10 7
    endloop
  endfacet
  facet normal -1 0 0
    outer loop
      vertex 6 8 5
      vertex 6 10 6
      vertex 6 10 5
    endloop
  endfacet
  facet normal -1 -0 0
    outer loop
      vertex 6 10 6
      vertex 6 8 5
      vertex 6 8 6
    endloop
  endfacet
  facet normal -1 0 0
    outer loop
      vertex 6 6 7
      vertex 6 7 8
      vertex 6 7 7
    endloop
  endfacet
  facet normal -1 -0 0
    outer loop
      vertex 6 7 8
      vertex 6 6 7
      vertex 6 6 8
    endloop
  endfacet
  facet normal -1 0 0
    outer loop
      vertex 6 7 6
      vertex 6 8 7
      vertex 6 8 6
    endloop
  endfacet
  facet normal -1 -0 0
    outer loop
      vertex 6 8 7
      vertex 6 7 6
      vertex 6 7 7
    endloop
  endfacet
  facet normal -1 0 0
    outer loop
      vertex 6 6 10
      vertex 6 7 11
      vertex 6 7 10
    endloop
  endfacet
  facet normal -1 -0 0
    outer loop
      vertex 6 7 11
      vertex 6 6 10
      vertex 6 6 11
    endloop
  endfacet
  facet normal -1 0 0
    outer loop
      vertex 6 10 8
      vertex 6 11 9
      vertex 6 11 8
    endloop
  endfacet
  facet normal -1 -0 0
    outer loop
      vertex 6 11 9
      vertex 6 10 8
      vertex 6 10 9
    endloop
  endfacet
  facet normal 0 0 -1
    outer loop
      vertex 5 6 8
      vertex 6 7 8
      vertex 6 6 8
    endloop
  endfacet
  facet normal -0 0 -1
    outer loop
      vertex 6 7 8
      vertex 5 6 8
      vertex 5 7 8
    endloop
  endfacet
  facet normal 0 -1 0
    outer loop
      vertex 6 6 11
      vertex 6 6 10
      vertex 7 6 11
    endloop
  endfacet
  facet normal 0 -1 0
    outer loop
      vertex 7 6 11
      vertex 8 6 12
      vertex 7 6 12
    endloop
  endfacet
  facet normal 0 -1 0
    outer loop
      vertex 8 6 10
      vertex 7 6 11
      vertex 6 6 10
    endloop
  endfacet
  facet normal 0 -1 0
    outer loop
      vertex 7 6 11
      vertex 8 6 10
      vertex 8 6 12
    endloop
  endfacet
  facet normal 0 -1 0
    outer loop
      vertex 6 6 7
      vertex 8 6 8
      vertex 6 6 8
    endloop
  endfacet
  facet normal 0 -1 -0
    outer loop
      vertex 8 6 8
      vertex 6 6 7
      vertex 8 6 7
    endloop
  endfacet
  facet normal 0 -1 0
    outer loop
      vertex 6 6 8
      vertex 6 6 10
      vertex 5 6 10
    endloop
  endfacet
  facet normal 0 -1 0
    outer loop
      vertex 6 6 10
      vertex 6 6 8
      vertex 8 6 10
    endloop
  endfacet
  facet normal 0 -1 0
    outer loop
      vertex 6 6 8
      vertex 5 6 10
      vertex 5 6 8
    endloop
  endfacet
  facet normal 0 -1 0
    outer loop
      vertex 8 6 8
      vertex 8 6 10
      vertex 6 6 8
    endloop
  endfacet
  facet normal 0 -1 0
    outer loop
      vertex 8 6 10
      vertex 8 6 8
      vertex 9 6 10
    endloop
  endfacet
  facet normal 0 -1 -0
    outer loop
      vertex 9 6 10
      vertex 8 6 8
      vertex 9 6 8
    endloop
  endfacet
  facet normal 0 -1 0
    outer loop
      vertex 5 7 7
      vertex 6 7 8
      vertex 5 7 8
    endloop
  endfacet
  facet normal 0 -1 -0
    outer loop
      vertex 6 7 8
      vertex 5 7 7
      vertex 6 7 7
    endloop
  endfacet
  facet normal -0 0 1
    outer loop
      vertex 5 7 10
      vertex 6 6 10
      vertex 6 7 10
    endloop
  endfacet
  facet normal 0 0 1
    outer loop
      vertex 6 6 10
      vertex 5 7 10
      vertex 5 6 10
    endloop
  endfacet
  facet normal 0 -1 0
    outer loop
      vertex 5 8 6
      vertex 6 8 7
      vertex 5 8 7
    endloop
  endfacet
  facet normal 0 -1 -0
    outer loop
      vertex 6 8 7
      vertex 5 8 6
      vertex 6 8 6
    endloop
  endfacet
  facet normal 0 0 -1
    outer loop
      vertex 5 7 7
      vertex 6 8 7
      vertex 6 7 7
    endloop
  endfacet
  facet normal -0 0 -1
    outer loop
      vertex 6 8 7
      vertex 5 7 7
      vertex 5 8 7
    endloop
  endfacet
  facet normal -0 0 1
    outer loop
      vertex 5 8 11
      vertex 6 7 11
      vertex 6 8 11
    endloop
  endfacet
  facet normal 0 0 1
    outer loop
      vertex 6 7 11
      vertex 5 8 11
      vertex 5 7 11
    endloop
  endfacet
  facet normal 0 -1 0
    outer loop
      vertex 5 7 10
      vertex 6 7 11
      vertex 5 7 11
    endloop
  endfacet
  facet normal 0 -1 -0
    outer loop
      vertex 6 7 11
      vertex 5 7 10
      vertex 6 7 10
    endloop
  endfacet
  facet normal 0 -1 0
    outer loop
      vertex 6 8 5
      vertex 7 8 6
      vertex 6 8 6
    endloop
  endfacet
  facet normal 0 -1 -0
    outer loop
      vertex 7 8 6
      vertex 6 8 5
      vertex 7 8 5
    endloop
  endfacet
  facet normal 0 1 -0
    outer loop
      vertex 6 8 10
      vertex 5 8 11
      vertex 6 8 11
    endloop
  endfacet
  facet normal 0 1 0
    outer loop
      vertex 5 8 11
      vertex 6 8 10
      vertex 5 8 10
    endloop
  endfacet
  facet normal 0 0 -1
    outer loop
      vertex 5 8 6
      vertex 6 10 6
      vertex 6 8 6
    endloop
  endfacet
  facet normal -0 0 -1
    outer loop
      vertex 6 10 6
      vertex 5 8 6
      vertex 5 10 6
    endloop
  endfacet
  facet normal 0 1 -0
    outer loop
      vertex 6 10 6
      vertex 5 10 7
      vertex 6 10 7
    endloop
  endfacet
  facet normal 0 1 0
    outer loop
      vertex 5 10 7
      vertex 6 10 6
      vertex 5 10 6
    endloop
  endfacet
  facet normal 0 1 -0
    outer loop
      vertex 6 10 8
      vertex 5 10 9
      vertex 6 10 9
    endloop
  endfacet
  facet normal 0 1 0
    outer loop
      vertex 5 10 9
      vertex 6 10 8
      vertex 5 10 8
    endloop
  endfacet
  facet normal -0 0 1
    outer loop
      vertex 5 11 8
      vertex 6 10 8
      vertex 6 11 8
    endloop
  endfacet
  facet normal 0 0 1
    outer loop
      vertex 6 10 8
      vertex 5 11 8
      vertex 5 10 8
    endloop
  endfacet
  facet normal 0 0 -1
    outer loop
      vertex 5 10 7
      vertex 6 11 7
      vertex 6 10 7
    endloop
  endfacet
  facet normal -0 0 -1
    outer loop
      vertex 6 11 7
      vertex 5 10 7
      vertex 5 11 7
    endloop
  endfacet
  facet normal -1 0 0
    outer loop
      vertex 7 12 8
      vertex 7 11 8
      vertex 7 12 9
    endloop
  endfacet
  facet normal -1 0 0
    outer loop
      vertex 7 12 9
      vertex 7 13 10
      vertex 7 13 9
    endloop
  endfacet
  facet normal -1 0 0
    outer loop
      vertex 7 11 10
      vertex 7 12 9
      vertex 7 11 8
    endloop
  endfacet
  facet normal -1 0 0
    outer loop
      vertex 7 12 9
      vertex 7 11 10
      vertex 7 13 10
    endloop
  endfacet
  facet normal -1 0 0
    outer loop
      vertex 7 9 11
      vertex 7 10 12
      vertex 7 10 11
    endloop
  endfacet
  facet normal -1 -0 0
    outer loop
      vertex 7 10 12
      vertex 7 9 11
      vertex 7 9 12
    endloop
  endfacet
  facet normal 1 -0 0
    outer loop
      vertex 7 8 12
      vertex 7 9 11
      vertex 7 9 12
    endloop
  endfacet
  facet normal 1 0 0
    outer loop
      vertex 7 9 11
      vertex 7 8 12
      vertex 7 8 11
    endloop
  endfacet
  facet normal -1 0 0
    outer loop
      vertex 7 7 5
      vertex 7 8 6
      vertex 7 8 5
    endloop
  endfacet
  facet normal -1 -0 0
    outer loop
      vertex 7 8 6
      vertex 7 7 5
      vertex 7 7 6
    endloop
  endfacet
  facet normal 1 -0 0
    outer loop
      vertex 7 8 6
      vertex 7 10 5
      vertex 7 10 6
    endloop
  endfacet
  facet normal 1 0 0
    outer loop
      vertex 7 10 5
      vertex 7 8 6
      vertex 7 8 5
    endloop
  endfacet
  facet normal -1 0 0
    outer loop
      vertex 7 6 11
      vertex 7 7 12
      vertex 7 7 11
    endloop
  endfacet
  facet normal -1 -0 0
    outer loop
      vertex 7 7 12
      vertex 7 6 11
      vertex 7 6 12
    endloop
  endfacet
  facet normal 0 0 -1
    outer loop
      vertex 6 6 7
      vertex 8 7 7
      vertex 8 6 7
    endloop
  endfacet
  facet normal -0 0 -1
    outer loop
      vertex 8 7 7
      vertex 6 6 7
      vertex 6 7 7
    endloop
  endfacet
  facet normal 0 -1 0
    outer loop
      vertex 6 7 11
      vertex 7 7 12
      vertex 6 7 12
    endloop
  endfacet
  facet normal 0 -1 -0
    outer loop
      vertex 7 7 12
      vertex 6 7 11
      vertex 7 7 11
    endloop
  endfacet
  facet normal -0 0 1
    outer loop
      vertex 6 7 11
      vertex 7 6 11
      vertex 7 7 11
    endloop
  endfacet
  facet normal 0 0 1
    outer loop
      vertex 7 6 11
      vertex 6 7 11
      vertex 6 6 11
    endloop
  endfacet
  facet normal 0 0 -1
    outer loop
      vertex 6 7 6
      vertex 7 8 6
      vertex 7 7 6
    endloop
  endfacet
  facet normal -0 0 -1
    outer loop
      vertex 7 8 6
      vertex 6 7 6
      vertex 6 8 6
    endloop
  endfacet
  facet normal 0 -1 0
    outer loop
      vertex 7 7 6
      vertex 6 7 7
      vertex 6 7 6
    endloop
  endfacet
  facet normal 0 -1 0
    outer loop
      vertex 6 7 7
      vertex 7 7 6
      vertex 8 7 7
    endloop
  endfacet
  facet normal 0 -1 0
    outer loop
      vertex 8 7 5
      vertex 7 7 6
      vertex 7 7 5
    endloop
  endfacet
  facet normal 0 -1 0
    outer loop
      vertex 7 7 6
      vertex 8 7 5
      vertex 8 7 7
    endloop
  endfacet
  facet normal 0 0 1
    outer loop
      vertex 7 7 12
      vertex 8 8 12
      vertex 7 8 12
    endloop
  endfacet
  facet normal 0 0 1
    outer loop
      vertex 8 8 12
      vertex 7 7 12
      vertex 8 6 12
    endloop
  endfacet
  facet normal 0 0 1
    outer loop
      vertex 8 6 12
      vertex 7 7 12
      vertex 7 6 12
    endloop
  endfacet
  facet normal -0 0 1
    outer loop
      vertex 6 9 12
      vertex 7 8 12
      vertex 7 9 12
    endloop
  endfacet
  facet normal 0 0 1
    outer loop
      vertex 6 7 12
      vertex 7 8 12
      vertex 6 9 12
    endloop
  endfacet
  facet normal 0 0 1
    outer loop
      vertex 7 8 12
      vertex 6 7 12
      vertex 7 7 12
    endloop
  endfacet
  facet normal 0 1 -0
    outer loop
      vertex 7 9 11
      vertex 6 9 12
      vertex 7 9 12
    endloop
  endfacet
  facet normal 0 1 0
    outer loop
      vertex 6 9 12
      vertex 7 9 11
      vertex 6 9 11
    endloop
  endfacet
  facet normal 0 0 -1
    outer loop
      vertex 6 8 5
      vertex 7 10 5
      vertex 7 8 5
    endloop
  endfacet
  facet normal -0 0 -1
    outer loop
      vertex 7 10 5
      vertex 6 8 5
      vertex 6 10 5
    endloop
  endfacet
  facet normal 0 1 -0
    outer loop
      vertex 7 10 5
      vertex 6 10 6
      vertex 7 10 6
    endloop
  endfacet
  facet normal 0 1 0
    outer loop
      vertex 6 10 6
      vertex 7 10 5
      vertex 6 10 5
    endloop
  endfacet
  facet normal 0 0 1
    outer loop
      vertex 9 11 11
      vertex 8 10 11
      vertex 9 8 11
    endloop
  endfacet
  facet normal 0 0 1
    outer loop
      vertex 9 11 11
      vertex 7 10 11
      vertex 8 10 11
    endloop
  endfacet
  facet normal -0 0 1
    outer loop
      vertex 6 11 11
      vertex 7 10 11
      vertex 9 11 11
    endloop
  endfacet
  facet normal 0 0 1
    outer loop
      vertex 6 9 11
      vertex 7 10 11
      vertex 6 11 11
    endloop
  endfacet
  facet normal 0 0 1
    outer loop
      vertex 7 10 11
      vertex 6 9 11
      vertex 7 9 11
    endloop
  endfacet
  facet normal -0 0 1
    outer loop
      vertex 8 9 11
      vertex 9 8 11
      vertex 8 10 11
    endloop
  endfacet
  facet normal 0 0 1
    outer loop
      vertex 8 9 11
      vertex 8 8 11
      vertex 9 8 11
    endloop
  endfacet
  facet normal -0 0 1
    outer loop
      vertex 7 9 11
      vertex 8 8 11
      vertex 8 9 11
    endloop
  endfacet
  facet normal 0 0 1
    outer loop
      vertex 8 8 11
      vertex 7 9 11
      vertex 7 8 11
    endloop
  endfacet
  facet normal 0 0 -1
    outer loop
      vertex 7 10 6
      vertex 8 8 6
      vertex 7 8 6
    endloop
  endfacet
  facet normal 0 0 -1
    outer loop
      vertex 8 8 6
      vertex 7 10 6
      vertex 8 11 6
    endloop
  endfacet
  facet normal 0 0 -1
    outer loop
      vertex 6 11 6
      vertex 7 10 6
      vertex 6 10 6
    endloop
  endfacet
  facet normal 0 0 -1
    outer loop
      vertex 7 10 6
      vertex 6 11 6
      vertex 8 11 6
    endloop
  endfacet
  facet normal -1 0 0
    outer loop
      vertex 8 12 8
      vertex 8 13 8
      vertex 8 13 7
    endloop
  endfacet
  facet normal -1 0 0
    outer loop
      vertex 8 13 8
      vertex 8 12 8
      vertex 8 13 9
    endloop
  endfacet
  facet normal -1 0 0
    outer loop
      vertex 8 11 7
      vertex 8 12 8
      vertex 8 13 7
    endloop
  endfacet
  facet normal -1 -0 0
    outer loop
      vertex 8 12 8
      vertex 8 11 7
      vertex 8 11 8
    endloop
  endfacet
  facet normal -1 0 0
    outer loop
      vertex 8 13 8
      vertex 8 14 9
      vertex 8 14 8
    endloop
  endfacet
  facet normal -1 -0 0
    outer loop
      vertex 8 14 9
      vertex 8 13 8
      vertex 8 13 9
    endloop
  endfacet
  facet normal -1 -0 0
    outer loop
      vertex 8 13 9
      vertex 8 12 8
      vertex 8 12 9
    endloop
  endfacet
  facet normal 1 -0 0
    outer loop
      vertex 8 6 12
      vertex 8 8 11
      vertex 8 8 12
    endloop
  endfacet
  facet normal 1 0 0
    outer loop
      vertex 8 6 10
      vertex 8 8 11
      vertex 8 6 12
    endloop
  endfacet
  facet normal 1 0 0
    outer loop
      vertex 8 8 11
      vertex 8 6 10
      vertex 8 8 10
    endloop
  endfacet
  facet normal 1 -0 0
    outer loop
      vertex 8 6 8
      vertex 8 7 7
      vertex 8 7 8
    endloop
  endfacet
  facet normal 1 0 0
    outer loop
      vertex 8 7 7
      vertex 8 6 8
      vertex 8 6 7
    endloop
  endfacet
  facet normal 1 0 0
    outer loop
      vertex 8 11 7
      vertex 8 8 6
      vertex 8 11 6
    endloop
  endfacet
  facet normal 1 -0 0
    outer loop
      vertex 8 7 7
      vertex 8 8 6
      vertex 8 11 7
    endloop
  endfacet
  facet normal 1 0 0
    outer loop
      vertex 8 7 5
      vertex 8 8 6
      vertex 8 7 7
    endloop
  endfacet
  facet normal 1 0 0
    outer loop
      vertex 8 8 6
      vertex 8 7 5
      vertex 8 8 5
    endloop
  endfacet
  facet normal 1 -0 0
    outer loop
      vertex 8 9 12
      vertex 8 10 11
      vertex 8 10 12
    endloop
  endfacet
  facet normal 1 0 0
    outer loop
      vertex 8 10 11
      vertex 8 9 12
      vertex 8 9 11
    endloop
  endfacet
  facet normal 0 0 -1
    outer loop
      vertex 7 7 5
      vertex 8 8 5
      vertex 8 7 5
    endloop
  endfacet
  facet normal -0 0 -1
    outer loop
      vertex 8 8 5
      vertex 7 7 5
      vertex 7 8 5
    endloop
  endfacet
  facet normal 0 1 -0
    outer loop
      vertex 8 8 11
      vertex 7 8 12
      vertex 8 8 12
    endloop
  endfacet
  facet normal 0 1 0
    outer loop
      vertex 7 8 12
      vertex 8 8 11
      vertex 7 8 11
    endloop
  endfacet
  facet normal 0 1 -0
    outer loop
      vertex 8 8 5
      vertex 7 8 6
      vertex 8 8 6
    endloop
  endfacet
  facet normal 0 1 0
    outer loop
      vertex 7 8 6
      vertex 8 8 5
      vertex 7 8 5
    endloop
  endfacet
  facet normal 0 -1 0
    outer loop
      vertex 7 9 11
      vertex 8 9 12
      vertex 7 9 12
    endloop
  endfacet
  facet normal 0 -1 -0
    outer loop
      vertex 8 9 12
      vertex 7 9 11
      vertex 8 9 11
    endloop
  endfacet
  facet normal 0 1 -0
    outer loop
      vertex 8 10 11
      vertex 7 10 12
      vertex 8 10 12
    endloop
  endfacet
  facet normal 0 1 0
    outer loop
      vertex 7 10 12
      vertex 8 10 11
      vertex 7 10 11
    endloop
  endfacet
  facet normal -0 0 1
    outer loop
      vertex 7 10 12
      vertex 8 9 12
      vertex 8 10 12
    endloop
  endfacet
  facet normal 0 0 1
    outer loop
      vertex 8 9 12
      vertex 7 10 12
      vertex 7 9 12
    endloop
  endfacet
  facet normal 0 0 -1
    outer loop
      vertex 7 11 8
      vertex 8 12 8
      vertex 8 11 8
    endloop
  endfacet
  facet normal -0 0 -1
    outer loop
      vertex 8 12 8
      vertex 7 11 8
      vertex 7 12 8
    endloop
  endfacet
  facet normal 0 0 -1
    outer loop
      vertex 7 12 9
      vertex 8 13 9
      vertex 8 12 9
    endloop
  endfacet
  facet normal -0 0 -1
    outer loop
      vertex 8 13 9
      vertex 7 12 9
      vertex 7 13 9
    endloop
  endfacet
  facet normal 0 1 -0
    outer loop
      vertex 8 12 8
      vertex 7 12 9
      vertex 8 12 9
    endloop
  endfacet
  facet normal 0 1 0
    outer loop
      vertex 7 12 9
      vertex 8 12 8
      vertex 7 12 8
    endloop
  endfacet
  facet normal -0 0 1
    outer loop
      vertex 10 10 10
      vertex 11 9 10
      vertex 11 10 10
    endloop
  endfacet
  facet normal 0 0 1
    outer loop
      vertex 11 9 10
      vertex 10 8 10
      vertex 11 8 10
    endloop
  endfacet
  facet normal 0 0 1
    outer loop
      vertex 11 9 10
      vertex 10 10 10
      vertex 10 8 10
    endloop
  endfacet
  facet normal 0 0 1
    outer loop
      vertex 11 8 10
      vertex 10 8 10
      vertex 11 7 10
    endloop
  endfacet
  facet normal 0 0 1
    outer loop
      vertex 11 7 10
      vertex 10 8 10
      vertex 10 7 10
    endloop
  endfacet
  facet normal -0 0 1
    outer loop
      vertex 11 9 10
      vertex 12 8 10
      vertex 12 9 10
    endloop
  endfacet
  facet normal 0 0 1
    outer loop
      vertex 12 8 10
      vertex 11 9 10
      vertex 11 8 10
    endloop
  endfacet
  facet normal -0 0 1
    outer loop
      vertex 9 11 10
      vertex 10 10 10
      vertex 10 13 10
    endloop
  endfacet
  facet normal 0 0 1
    outer loop
      vertex 9 8 10
      vertex 10 10 10
      vertex 9 11 10
    endloop
  endfacet
  facet normal -0 0 1
    outer loop
      vertex 7 13 10
      vertex 9 11 10
      vertex 10 13 10
    endloop
  endfacet
  facet normal 0 0 1
    outer loop
      vertex 9 11 10
      vertex 7 13 10
      vertex 7 11 10
    endloop
  endfacet
  facet normal 0 0 1
    outer loop
      vertex 10 10 10
      vertex 9 8 10
      vertex 10 8 10
    endloop
  endfacet
  facet normal 0 1 0
    outer loop
      vertex 10 13 10
      vertex 9 13 9
      vertex 7 13 10
    endloop
  endfacet
  facet normal 0 1 -0
    outer loop
      vertex 10 13 8
      vertex 9 13 9
      vertex 10 13 10
    endloop
  endfacet
  facet normal 0 1 0
    outer loop
      vertex 9 13 9
      vertex 10 13 8
      vertex 9 13 8
    endloop
  endfacet
  facet normal 0 1 -0
    outer loop
      vertex 8 13 9
      vertex 7 13 10
      vertex 9 13 9
    endloop
  endfacet
  facet normal 0 1 0
    outer loop
      vertex 7 13 10
      vertex 8 13 9
      vertex 7 13 9
    endloop
  endfacet
  facet normal 1 -0 0
    outer loop
      vertex 9 12 8
      vertex 9 13 7
      vertex 9 13 8
    endloop
  endfacet
  facet normal 1 0 0
    outer loop
      vertex 9 13 7
      vertex 9 12 8
      vertex 9 12 7
    endloop
  endfacet
  facet normal 1 -0 0
    outer loop
      vertex 9 13 9
      vertex 9 14 8
      vertex 9 14 9
    endloop
  endfacet
  facet normal 1 0 0
    outer loop
      vertex 9 14 8
      vertex 9 13 9
      vertex 9 13 8
    endloop
  endfacet
  facet normal -1 0 0
    outer loop
      vertex 9 7 10
      vertex 9 8 11
      vertex 9 8 10
    endloop
  endfacet
  facet normal -1 -0 0
    outer loop
      vertex 9 8 11
      vertex 9 7 10
      vertex 9 7 11
    endloop
  endfacet
  facet normal 1 -0 0
    outer loop
      vertex 9 8 11
      vertex 9 11 10
      vertex 9 11 11
    endloop
  endfacet
  facet normal 1 0 0
    outer loop
      vertex 9 11 10
      vertex 9 8 11
      vertex 9 8 10
    endloop
  endfacet
  facet normal 1 -0 0
    outer loop
      vertex 9 7 8
      vertex 9 8 7
      vertex 9 8 8
    endloop
  endfacet
  facet normal 1 0 0
    outer loop
      vertex 9 8 7
      vertex 9 7 8
      vertex 9 7 7
    endloop
  endfacet
  facet normal 1 -0 0
    outer loop
      vertex 9 6 10
      vertex 9 7 8
      vertex 9 7 10
    endloop
  endfacet
  facet normal 1 0 0
    outer loop
      vertex 9 7 8
      vertex 9 6 10
      vertex 9 6 8
    endloop
  endfacet
  facet normal 0 0 -1
    outer loop
      vertex 8 6 8
      vertex 9 7 8
      vertex 9 6 8
    endloop
  endfacet
  facet normal -0 0 -1
    outer loop
      vertex 9 7 8
      vertex 8 6 8
      vertex 8 7 8
    endloop
  endfacet
  facet normal 0 -1 0
    outer loop
      vertex 8 7 7
      vertex 9 7 8
      vertex 8 7 8
    endloop
  endfacet
  facet normal 0 -1 -0
    outer loop
      vertex 9 7 8
      vertex 8 7 7
      vertex 9 7 7
    endloop
  endfacet
  facet normal -0 0 1
    outer loop
      vertex 8 8 10
      vertex 9 7 10
      vertex 9 8 10
    endloop
  endfacet
  facet normal 0 0 1
    outer loop
      vertex 8 6 10
      vertex 9 7 10
      vertex 8 8 10
    endloop
  endfacet
  facet normal 0 0 1
    outer loop
      vertex 9 7 10
      vertex 8 6 10
      vertex 9 6 10
    endloop
  endfacet
  facet normal 0 -1 0
    outer loop
      vertex 8 8 10
      vertex 9 8 11
      vertex 8 8 11
    endloop
  endfacet
  facet normal 0 -1 -0
    outer loop
      vertex 9 8 11
      vertex 8 8 10
      vertex 9 8 10
    endloop
  endfacet
  facet normal 0 0 -1
    outer loop
      vertex 8 7 7
      vertex 9 8 7
      vertex 9 7 7
    endloop
  endfacet
  facet normal 0 0 -1
    outer loop
      vertex 9 8 7
      vertex 8 11 7
      vertex 9 12 7
    endloop
  endfacet
  facet normal -0 0 -1
    outer loop
      vertex 9 8 7
      vertex 8 7 7
      vertex 8 11 7
    endloop
  endfacet
  facet normal 0 0 -1
    outer loop
      vertex 8 13 7
      vertex 9 12 7
      vertex 8 11 7
    endloop
  endfacet
  facet normal 0 0 -1
    outer loop
      vertex 9 12 7
      vertex 8 13 7
      vertex 9 13 7
    endloop
  endfacet
  facet normal 0 0 -1
    outer loop
      vertex 9 8 7
      vertex 10 12 7
      vertex 10 8 7
    endloop
  endfacet
  facet normal -0 0 -1
    outer loop
      vertex 10 12 7
      vertex 9 8 7
      vertex 9 12 7
    endloop
  endfacet
  facet normal 0 1 -0
    outer loop
      vertex 9 13 7
      vertex 8 13 8
      vertex 9 13 8
    endloop
  endfacet
  facet normal 0 1 0
    outer loop
      vertex 8 13 8
      vertex 9 13 7
      vertex 8 13 7
    endloop
  endfacet
  facet normal -0 0 1
    outer loop
      vertex 8 14 9
      vertex 9 13 9
      vertex 9 14 9
    endloop
  endfacet
  facet normal 0 0 1
    outer loop
      vertex 9 13 9
      vertex 8 14 9
      vertex 8 13 9
    endloop
  endfacet
  facet normal 0 1 -0
    outer loop
      vertex 9 14 8
      vertex 8 14 9
      vertex 9 14 9
    endloop
  endfacet
  facet normal 0 1 0
    outer loop
      vertex 8 14 9
      vertex 9 14 8
      vertex 8 14 8
    endloop
  endfacet
  facet normal 0 0 -1
    outer loop
      vertex 8 13 8
      vertex 9 14 8
      vertex 9 13 8
    endloop
  endfacet
  facet normal -0 0 -1
    outer loop
      vertex 9 14 8
      vertex 8 13 8
      vertex 8 14 8
    endloop
  endfacet
  facet normal 1 0 0
    outer loop
      vertex 10 13 10
      vertex 10 12 8
      vertex 10 13 8
    endloop
  endfacet
  facet normal 1 -0 0
    outer loop
      vertex 10 10 10
      vertex 10 12 8
      vertex 10 13 10
    endloop
  endfacet
  facet normal 1 0 0
    outer loop
      vertex 10 10 8
      vertex 10 12 8
      vertex 10 10 10
    endloop
  endfacet
  facet normal 1 0 0
    outer loop
      vertex 10 12 8
      vertex 10 10 8
      vertex 10 12 7
    endloop
  endfacet
  facet normal 1 0 0
    outer loop
      vertex 10 8 7
      vertex 10 10 8
      vertex 10 8 8
    endloop
  endfacet
  facet normal 1 0 0
    outer loop
      vertex 10 10 8
      vertex 10 8 7
      vertex 10 12 7
    endloop
  endfacet
  facet normal 1 -0 0
    outer loop
      vertex 10 7 11
      vertex 10 8 10
      vertex 10 8 11
    endloop
  endfacet
  facet normal 1 0 0
    outer loop
      vertex 10 8 10
      vertex 10 7 11
      vertex 10 7 10
    endloop
  endfacet
  facet normal 0 -1 0
    outer loop
      vertex 9 8 7
      vertex 10 8 8
      vertex 9 8 8
    endloop
  endfacet
  facet normal 0 -1 -0
    outer loop
      vertex 10 8 8
      vertex 9 8 7
      vertex 10 8 7
    endloop
  endfacet
  facet normal 0 0 -1
    outer loop
      vertex 11 7 8
      vertex 10 8 8
      vertex 11 10 8
    endloop
  endfacet
  facet normal 0 0 -1
    outer loop
      vertex 9 7 8
      vertex 10 8 8
      vertex 11 7 8
    endloop
  endfacet
  facet normal -0 0 -1
    outer loop
      vertex 10 8 8
      vertex 9 7 8
      vertex 9 8 8
    endloop
  endfacet
  facet normal -0 0 -1
    outer loop
      vertex 11 10 8
      vertex 10 8 8
      vertex 10 10 8
    endloop
  endfacet
  facet normal 0 -1 0
    outer loop
      vertex 9 7 10
      vertex 10 7 11
      vertex 9 7 11
    endloop
  endfacet
  facet normal 0 -1 0
    outer loop
      vertex 9 7 10
      vertex 10 7 10
      vertex 10 7 11
    endloop
  endfacet
  facet normal 0 -1 0
    outer loop
      vertex 9 7 8
      vertex 10 7 10
      vertex 9 7 10
    endloop
  endfacet
  facet normal 0 -1 0
    outer loop
      vertex 11 7 8
      vertex 10 7 10
      vertex 9 7 8
    endloop
  endfacet
  facet normal 0 -1 0
    outer loop
      vertex 10 7 10
      vertex 11 7 8
      vertex 11 7 10
    endloop
  endfacet
  facet normal -0 0 1
    outer loop
      vertex 9 8 11
      vertex 10 7 11
      vertex 10 8 11
    endloop
  endfacet
  facet normal 0 0 1
    outer loop
      vertex 10 7 11
      vertex 9 8 11
      vertex 9 7 11
    endloop
  endfacet
  facet normal 0 1 -0
    outer loop
      vertex 10 8 10
      vertex 9 8 11
      vertex 10 8 11
    endloop
  endfacet
  facet normal 0 1 0
    outer loop
      vertex 9 8 11
      vertex 10 8 10
      vertex 9 8 10
    endloop
  endfacet
  facet normal 0 1 -0
    outer loop
      vertex 10 12 7
      vertex 9 12 8
      vertex 10 12 8
    endloop
  endfacet
  facet normal 0 1 0
    outer loop
      vertex 9 12 8
      vertex 10 12 7
      vertex 9 12 7
    endloop
  endfacet
  facet normal 0 0 -1
    outer loop
      vertex 9 12 8
      vertex 10 13 8
      vertex 10 12 8
    endloop
  endfacet
  facet normal -0 0 -1
    outer loop
      vertex 10 13 8
      vertex 9 12 8
      vertex 9 13 8
    endloop
  endfacet
  facet normal 1 0 0
    outer loop
      vertex 11 8 10
      vertex 11 7 10
      vertex 11 8 9
    endloop
  endfacet
  facet normal 1 0 0
    outer loop
      vertex 11 9 9
      vertex 11 10 10
      vertex 11 9 10
    endloop
  endfacet
  facet normal 1 0 0
    outer loop
      vertex 11 10 10
      vertex 11 9 9
      vertex 11 10 8
    endloop
  endfacet
  facet normal 1 -0 0
    outer loop
      vertex 11 8 9
      vertex 11 10 8
      vertex 11 9 9
    endloop
  endfacet
  facet normal 1 0 0
    outer loop
      vertex 11 8 9
      vertex 11 7 8
      vertex 11 10 8
    endloop
  endfacet
  facet normal 1 0 0
    outer loop
      vertex 11 7 8
      vertex 11 8 9
      vertex 11 7 10
    endloop
  endfacet
  facet normal 0 1 -0
    outer loop
      vertex 11 10 8
      vertex 10 10 10
      vertex 11 10 10
    endloop
  endfacet
  facet normal 0 1 0
    outer loop
      vertex 10 10 10
      vertex 11 10 8
      vertex 10 10 8
    endloop
  endfacet
  facet normal 1 -0 0
    outer loop
      vertex 12 8 10
      vertex 12 9 9
      vertex 12 9 10
    endloop
  endfacet
  facet normal 1 0 0
    outer loop
      vertex 12 9 9
      vertex 12 8 10
      vertex 12 8 9
    endloop
  endfacet
  facet normal 0 1 -0
    outer loop
      vertex 12 9 9
      vertex 11 9 10
      vertex 12 9 10
    endloop
  endfacet
  facet normal 0 1 0
    outer loop
      vertex 11 9 10
      vertex 12 9 9
      vertex 11 9 9
    endloop
  endfacet
  facet normal 0 0 -1
    outer loop
      vertex 11 8 9
      vertex 12 9 9
      vertex 12 8 9
    endloop
  endfacet
  facet normal -0 0 -1
    outer loop
      vertex 12 9 9
      vertex 11 8 9
      vertex 11 9 9
    endloop
  endfacet
  facet normal 0 -1 0
    outer loop
      vertex 11 8 9
      vertex 12 8 10
      vertex 11 8 10
    endloop
  endfacet
  facet normal 0 -1 -0
    outer loop
      vertex 12 8 10
      vertex 11 8 9
      vertex 12 8 9
    endloop
  endfacet
endsolid OpenSCAD_Model
