solid OpenSCAD_Model
  facet normal -1 0 0
    outer loop
      vertex 0 0 0
      vertex 0 0 5
      vertex 0 5 0
    endloop
  endfacet
  facet normal -1 0 0
    outer loop
      vertex 0 5 0
      vertex 0 0 5
      vertex 0 5 5
    endloop
  endfacet
  facet normal 0 -1 0
    outer loop
      vertex 2 0 1
      vertex 0 0 0
      vertex 3 0 0
    endloop
  endfacet
  facet normal 0 -1 0
    outer loop
      vertex 2 0 1
      vertex 2 0 5
      vertex 0 0 5
    endloop
  endfacet
  facet normal 0 -1 0
    outer loop
      vertex 0 0 5
      vertex 0 0 0
      vertex 2 0 1
    endloop
  endfacet
  facet normal 0 -1 0
    outer loop
      vertex 3 0 1
      vertex 2 0 1
      vertex 3 0 0
    endloop
  endfacet
  facet normal 0 0 -1
    outer loop
      vertex 0 0 0
      vertex 0 5 0
      vertex 3 0 0
    endloop
  endfacet
  facet normal 0 0 -1
    outer loop
      vertex 3 4 0
      vertex 0 5 0
      vertex 3 5 0
    endloop
  endfacet
  facet normal 0 0 -1
    outer loop
      vertex 3 0 0
      vertex 0 5 0
      vertex 3 3 0
    endloop
  endfacet
  facet normal 0 0 -1
    outer loop
      vertex 3 4 0
      vertex 4 4 0
      vertex 3 3 0
    endloop
  endfacet
  facet normal 0 0 -1
    outer loop
      vertex 3 4 0
      vertex 3 3 0
      vertex 0 5 0
    endloop
  endfacet
  facet normal 0 0 -1
    outer loop
      vertex 3 3 0
      vertex 4 4 0
      vertex 4 3 0
    endloop
  endfacet
  facet normal 0 1 0
    outer loop
      vertex 0 5 0
      vertex 0 5 5
      vertex 3 5 0
    endloop
  endfacet
  facet normal 0 1 0
    outer loop
      vertex 2 5 4
      vertex 0 5 5
      vertex 2 5 5
    endloop
  endfacet
  facet normal 0 1 0
    outer loop
      vertex 3 5 0
      vertex 0 5 5
      vertex 2 5 4
    endloop
  endfacet
  facet normal 0 1 0
    outer loop
      vertex 3 5 4
      vertex 3 5 0
      vertex 2 5 4
    endloop
  endfacet
  facet normal 0 0 1
    outer loop
      vertex 1 1 5
      vertex 0 0 5
      vertex 2 0 5
    endloop
  endfacet
  facet normal 0 0 1
    outer loop
      vertex 0 5 5
      vertex 0 0 5
      vertex 1 1 5
    endloop
  endfacet
  facet normal 0 0 1
    outer loop
      vertex 1 2 5
      vertex 2 2 5
      vertex 0 5 5
    endloop
  endfacet
  facet normal 0 0 1
    outer loop
      vertex 0 5 5
      vertex 1 1 5
      vertex 1 2 5
    endloop
  endfacet
  facet normal 0 0 1
    outer loop
      vertex 2 5 5
      vertex 0 5 5
      vertex 2 2 5
    endloop
  endfacet
  facet normal 0 0 1
    outer loop
      vertex 2 1 5
      vertex 1 1 5
      vertex 2 0 5
    endloop
  endfacet
  facet normal 1 0 0
    outer loop
      vertex 2 0 5
      vertex 2 0 1
      vertex 2 3 1
    endloop
  endfacet
  facet normal 1 0 0
    outer loop
      vertex 2 2 3
      vertex 2 1 4
      vertex 2 3 1
    endloop
  endfacet
  facet normal 1 0 0
    outer loop
      vertex 2 3 3
      vertex 2 2 3
      vertex 2 3 1
    endloop
  endfacet
  facet normal 1 0 0
    outer loop
      vertex 2 1 4
      vertex 2 0 5
      vertex 2 3 1
    endloop
  endfacet
  facet normal 1 0 0
    outer loop
      vertex 2 1 4
      vertex 2 1 5
      vertex 2 0 5
    endloop
  endfacet
  facet normal 1 0 0
    outer loop
      vertex 2 2 3
      vertex 2 2 4
      vertex 2 1 4
    endloop
  endfacet
  facet normal 0 0 1
    outer loop
      vertex 2 3 1
      vertex 2 0 1
      vertex 3 0 1
    endloop
  endfacet
  facet normal 0 0 1
    outer loop
      vertex 3 3 1
      vertex 2 3 1
      vertex 3 0 1
    endloop
  endfacet
  facet normal 1 0 0
    outer loop
      vertex 3 0 1
      vertex 3 0 0
      vertex 3 3 0
    endloop
  endfacet
  facet normal 1 0 0
    outer loop
      vertex 3 3 1
      vertex 3 0 1
      vertex 3 3 0
    endloop
  endfacet
  facet normal 0 -1 0
    outer loop
      vertex 3 3 1
      vertex 3 3 0
      vertex 4 3 0
    endloop
  endfacet
  facet normal 0 -1 0
    outer loop
      vertex 4 3 1
      vertex 3 3 1
      vertex 4 3 0
    endloop
  endfacet
  facet normal 1 0 0
    outer loop
      vertex 4 3 1
      vertex 4 3 0
      vertex 4 4 0
    endloop
  endfacet
  facet normal 1 0 0
    outer loop
      vertex 4 4 1
      vertex 4 3 1
      vertex 4 4 0
    endloop
  endfacet
  facet normal 0 1 0
    outer loop
      vertex 3 4 0
      vertex 3 4 1
      vertex 4 4 0
    endloop
  endfacet
  facet normal 0 1 0
    outer loop
      vertex 4 4 0
      vertex 3 4 1
      vertex 4 4 1
    endloop
  endfacet
  facet normal 1 0 0
    outer loop
      vertex 3 4 1
      vertex 3 5 0
      vertex 3 3 3
    endloop
  endfacet
  facet normal 1 0 0
    outer loop
      vertex 3 2 4
      vertex 3 2 3
      vertex 3 3 3
    endloop
  endfacet
  facet normal 1 0 0
    outer loop
      vertex 3 5 4
      vertex 3 2 4
      vertex 3 3 3
    endloop
  endfacet
  facet normal 1 0 0
    outer loop
      vertex 3 3 1
      vertex 3 4 1
      vertex 3 3 3
    endloop
  endfacet
  facet normal 1 0 0
    outer loop
      vertex 3 4 0
      vertex 3 5 0
      vertex 3 4 1
    endloop
  endfacet
  facet normal 1 0 0
    outer loop
      vertex 3 5 0
      vertex 3 5 4
      vertex 3 3 3
    endloop
  endfacet
  facet normal 0 0 1
    outer loop
      vertex 2 5 4
      vertex 2 2 4
      vertex 3 2 4
    endloop
  endfacet
  facet normal 0 0 1
    outer loop
      vertex 3 5 4
      vertex 2 5 4
      vertex 3 2 4
    endloop
  endfacet
  facet normal 1 0 0
    outer loop
      vertex 2 2 5
      vertex 2 2 4
      vertex 2 5 4
    endloop
  endfacet
  facet normal 1 0 0
    outer loop
      vertex 2 5 5
      vertex 2 2 5
      vertex 2 5 4
    endloop
  endfacet
  facet normal 0 -1 0
    outer loop
      vertex 1 2 5
      vertex 1 2 4
      vertex 2 2 4
    endloop
  endfacet
  facet normal 0 -1 0
    outer loop
      vertex 2 2 5
      vertex 1 2 5
      vertex 2 2 4
    endloop
  endfacet
  facet normal 1 0 0
    outer loop
      vertex 1 1 5
      vertex 1 1 4
      vertex 1 2 4
    endloop
  endfacet
  facet normal 1 0 0
    outer loop
      vertex 1 2 5
      vertex 1 1 5
      vertex 1 2 4
    endloop
  endfacet
  facet normal 0 1 0
    outer loop
      vertex 1 1 4
      vertex 1 1 5
      vertex 2 1 4
    endloop
  endfacet
  facet normal 0 1 0
    outer loop
      vertex 2 1 4
      vertex 1 1 5
      vertex 2 1 5
    endloop
  endfacet
  facet normal 0 0 1
    outer loop
      vertex 1 2 4
      vertex 1 1 4
      vertex 2 1 4
    endloop
  endfacet
  facet normal 0 0 1
    outer loop
      vertex 2 2 4
      vertex 1 2 4
      vertex 2 1 4
    endloop
  endfacet
  facet normal 0 -1 0
    outer loop
      vertex 2 2 4
      vertex 2 2 3
      vertex 3 2 3
    endloop
  endfacet
  facet normal 0 -1 0
    outer loop
      vertex 3 2 4
      vertex 2 2 4
      vertex 3 2 3
    endloop
  endfacet
  facet normal 0 0 -1
    outer loop
      vertex 3 3 3
      vertex 3 2 3
      vertex 2 3 3
    endloop
  endfacet
  facet normal 0 0 -1
    outer loop
      vertex 2 3 3
      vertex 3 2 3
      vertex 2 2 3
    endloop
  endfacet
  facet normal 0 -1 0
    outer loop
      vertex 2 3 3
      vertex 2 3 1
      vertex 3 3 1
    endloop
  endfacet
  facet normal 0 -1 0
    outer loop
      vertex 3 3 3
      vertex 2 3 3
      vertex 3 3 1
    endloop
  endfacet
  facet normal 0 0 1
    outer loop
      vertex 3 4 1
      vertex 3 3 1
      vertex 4 3 1
    endloop
  endfacet
  facet normal 0 0 1
    outer loop
      vertex 4 4 1
      vertex 3 4 1
      vertex 4 3 1
    endloop
  endfacet
endsolid OpenSCAD_Model
