solid OpenSCAD_Model
  facet normal -1 0 0
    outer loop
      vertex 2 10 19
      vertex 2 12 17
      vertex 2 10 17
    endloop
  endfacet
  facet normal -1 0 0
    outer loop
      vertex 2 12 17
      vertex 2 10 19
      vertex 2 12 20
    endloop
  endfacet
  facet normal -1 0 0
    outer loop
      vertex 2 9 20
      vertex 2 10 19
      vertex 2 9 19
    endloop
  endfacet
  facet normal -1 0 0
    outer loop
      vertex 2 10 19
      vertex 2 9 20
      vertex 2 12 20
    endloop
  endfacet
  facet normal -0 0 1
    outer loop
      vertex 2 12 20
      vertex 3 9 20
      vertex 3 12 20
    endloop
  endfacet
  facet normal 0 0 1
    outer loop
      vertex 3 9 20
      vertex 2 12 20
      vertex 2 9 20
    endloop
  endfacet
  facet normal 1 0 0
    outer loop
      vertex 3 12 20
      vertex 3 10 19
      vertex 3 12 17
    endloop
  endfacet
  facet normal 1 -0 0
    outer loop
      vertex 3 9 20
      vertex 3 10 19
      vertex 3 12 20
    endloop
  endfacet
  facet normal 1 0 0
    outer loop
      vertex 3 10 19
      vertex 3 9 20
      vertex 3 9 19
    endloop
  endfacet
  facet normal 1 0 0
    outer loop
      vertex 3 12 17
      vertex 3 10 19
      vertex 3 10 17
    endloop
  endfacet
  facet normal 0 -1 0
    outer loop
      vertex 2 10 17
      vertex 3 10 19
      vertex 2 10 19
    endloop
  endfacet
  facet normal 0 -1 -0
    outer loop
      vertex 3 10 19
      vertex 2 10 17
      vertex 3 10 17
    endloop
  endfacet
  facet normal 0 0 -1
    outer loop
      vertex 2 9 19
      vertex 3 10 19
      vertex 3 9 19
    endloop
  endfacet
  facet normal -0 0 -1
    outer loop
      vertex 3 10 19
      vertex 2 9 19
      vertex 2 10 19
    endloop
  endfacet
  facet normal 0 -1 0
    outer loop
      vertex 2 9 19
      vertex 3 9 20
      vertex 2 9 20
    endloop
  endfacet
  facet normal 0 -1 -0
    outer loop
      vertex 3 9 20
      vertex 2 9 19
      vertex 3 9 19
    endloop
  endfacet
  facet normal 0 0 -1
    outer loop
      vertex 2 10 17
      vertex 3 12 17
      vertex 3 10 17
    endloop
  endfacet
  facet normal -0 0 -1
    outer loop
      vertex 3 12 17
      vertex 2 10 17
      vertex 2 12 17
    endloop
  endfacet
  facet normal 0 1 -0
    outer loop
      vertex 3 12 17
      vertex 2 12 20
      vertex 3 12 20
    endloop
  endfacet
  facet normal 0 1 0
    outer loop
      vertex 2 12 20
      vertex 3 12 17
      vertex 2 12 17
    endloop
  endfacet
  facet normal -1 0 0
    outer loop
      vertex 8 10 10
      vertex 8 11 11
      vertex 8 11 10
    endloop
  endfacet
  facet normal -1 -0 0
    outer loop
      vertex 8 11 11
      vertex 8 10 10
      vertex 8 10 11
    endloop
  endfacet
  facet normal -0 0 1
    outer loop
      vertex 8 11 11
      vertex 9 10 11
      vertex 9 11 11
    endloop
  endfacet
  facet normal 0 0 1
    outer loop
      vertex 9 10 11
      vertex 8 11 11
      vertex 8 10 11
    endloop
  endfacet
  facet normal 0 0 1
    outer loop
      vertex 9 11 11
      vertex 11 11 11
      vertex 11 12 11
    endloop
  endfacet
  facet normal 0 0 1
    outer loop
      vertex 11 11 11
      vertex 9 11 11
      vertex 11 10 11
    endloop
  endfacet
  facet normal 0 0 1
    outer loop
      vertex 9 11 11
      vertex 11 12 11
      vertex 9 12 11
    endloop
  endfacet
  facet normal 0 0 1
    outer loop
      vertex 9 10 11
      vertex 11 10 11
      vertex 9 11 11
    endloop
  endfacet
  facet normal 0 0 1
    outer loop
      vertex 11 10 11
      vertex 9 10 11
      vertex 11 9 11
    endloop
  endfacet
  facet normal 0 0 1
    outer loop
      vertex 11 9 11
      vertex 9 10 11
      vertex 9 9 11
    endloop
  endfacet
  facet normal -0 0 1
    outer loop
      vertex 11 11 11
      vertex 12 10 11
      vertex 12 11 11
    endloop
  endfacet
  facet normal 0 0 1
    outer loop
      vertex 12 10 11
      vertex 11 11 11
      vertex 11 10 11
    endloop
  endfacet
  facet normal -1 0 0
    outer loop
      vertex 9 12 9
      vertex 9 11 10
      vertex 9 12 11
    endloop
  endfacet
  facet normal -1 0 0
    outer loop
      vertex 9 10 9
      vertex 9 11 10
      vertex 9 12 9
    endloop
  endfacet
  facet normal -1 -0 0
    outer loop
      vertex 9 11 10
      vertex 9 10 9
      vertex 9 10 10
    endloop
  endfacet
  facet normal -1 -0 0
    outer loop
      vertex 9 12 11
      vertex 9 11 10
      vertex 9 11 11
    endloop
  endfacet
  facet normal -1 0 0
    outer loop
      vertex 9 9 10
      vertex 9 10 11
      vertex 9 10 10
    endloop
  endfacet
  facet normal -1 -0 0
    outer loop
      vertex 9 10 11
      vertex 9 9 10
      vertex 9 9 11
    endloop
  endfacet
  facet normal 0 1 -0
    outer loop
      vertex 9 11 10
      vertex 8 11 11
      vertex 9 11 11
    endloop
  endfacet
  facet normal 0 1 0
    outer loop
      vertex 8 11 11
      vertex 9 11 10
      vertex 8 11 10
    endloop
  endfacet
  facet normal 0 0 -1
    outer loop
      vertex 8 10 10
      vertex 9 11 10
      vertex 9 10 10
    endloop
  endfacet
  facet normal -0 0 -1
    outer loop
      vertex 9 11 10
      vertex 8 10 10
      vertex 8 11 10
    endloop
  endfacet
  facet normal 0 -1 0
    outer loop
      vertex 8 10 10
      vertex 9 10 11
      vertex 8 10 11
    endloop
  endfacet
  facet normal 0 -1 -0
    outer loop
      vertex 9 10 11
      vertex 8 10 10
      vertex 9 10 10
    endloop
  endfacet
  facet normal -1 0 0
    outer loop
      vertex 10 9 9
      vertex 10 10 10
      vertex 10 10 9
    endloop
  endfacet
  facet normal -1 -0 0
    outer loop
      vertex 10 10 10
      vertex 10 9 9
      vertex 10 9 10
    endloop
  endfacet
  facet normal 0 0 -1
    outer loop
      vertex 9 9 10
      vertex 10 10 10
      vertex 10 9 10
    endloop
  endfacet
  facet normal -0 0 -1
    outer loop
      vertex 10 10 10
      vertex 9 9 10
      vertex 9 10 10
    endloop
  endfacet
  facet normal 0 -1 0
    outer loop
      vertex 10 9 10
      vertex 9 9 11
      vertex 9 9 10
    endloop
  endfacet
  facet normal 0 -1 0
    outer loop
      vertex 9 9 11
      vertex 10 9 10
      vertex 11 9 11
    endloop
  endfacet
  facet normal 0 -1 0
    outer loop
      vertex 11 9 9
      vertex 10 9 10
      vertex 10 9 9
    endloop
  endfacet
  facet normal 0 -1 0
    outer loop
      vertex 10 9 10
      vertex 11 9 9
      vertex 11 9 11
    endloop
  endfacet
  facet normal 0 0 -1
    outer loop
      vertex 10 10 9
      vertex 11 10 9
      vertex 11 9 9
    endloop
  endfacet
  facet normal 0 0 -1
    outer loop
      vertex 11 10 9
      vertex 10 10 9
      vertex 11 11 9
    endloop
  endfacet
  facet normal 0 0 -1
    outer loop
      vertex 10 10 9
      vertex 11 9 9
      vertex 10 9 9
    endloop
  endfacet
  facet normal 0 0 -1
    outer loop
      vertex 9 12 9
      vertex 11 11 9
      vertex 10 10 9
    endloop
  endfacet
  facet normal 0 0 -1
    outer loop
      vertex 9 12 9
      vertex 10 10 9
      vertex 9 10 9
    endloop
  endfacet
  facet normal 0 0 -1
    outer loop
      vertex 11 11 9
      vertex 9 12 9
      vertex 11 12 9
    endloop
  endfacet
  facet normal 0 0 -1
    outer loop
      vertex 11 10 9
      vertex 12 11 9
      vertex 12 10 9
    endloop
  endfacet
  facet normal -0 0 -1
    outer loop
      vertex 12 11 9
      vertex 11 10 9
      vertex 11 11 9
    endloop
  endfacet
  facet normal 0 -1 0
    outer loop
      vertex 9 10 9
      vertex 10 10 10
      vertex 9 10 10
    endloop
  endfacet
  facet normal 0 -1 -0
    outer loop
      vertex 10 10 10
      vertex 9 10 9
      vertex 10 10 9
    endloop
  endfacet
  facet normal 0 1 -0
    outer loop
      vertex 11 12 9
      vertex 9 12 11
      vertex 11 12 11
    endloop
  endfacet
  facet normal 0 1 0
    outer loop
      vertex 9 12 11
      vertex 11 12 9
      vertex 9 12 9
    endloop
  endfacet
  facet normal 1 -0 0
    outer loop
      vertex 11 9 11
      vertex 11 10 9
      vertex 11 10 11
    endloop
  endfacet
  facet normal 1 0 0
    outer loop
      vertex 11 10 9
      vertex 11 9 11
      vertex 11 9 9
    endloop
  endfacet
  facet normal 0 -1 0
    outer loop
      vertex 11 10 9
      vertex 12 10 11
      vertex 11 10 11
    endloop
  endfacet
  facet normal 0 -1 -0
    outer loop
      vertex 12 10 11
      vertex 11 10 9
      vertex 12 10 9
    endloop
  endfacet
  facet normal 1 -0 0
    outer loop
      vertex 11 11 11
      vertex 11 12 9
      vertex 11 12 11
    endloop
  endfacet
  facet normal 1 0 0
    outer loop
      vertex 11 12 9
      vertex 11 11 11
      vertex 11 11 9
    endloop
  endfacet
  facet normal 1 -0 0
    outer loop
      vertex 12 10 11
      vertex 12 11 9
      vertex 12 11 11
    endloop
  endfacet
  facet normal 1 0 0
    outer loop
      vertex 12 11 9
      vertex 12 10 11
      vertex 12 10 9
    endloop
  endfacet
  facet normal 0 1 -0
    outer loop
      vertex 12 11 9
      vertex 11 11 11
      vertex 12 11 11
    endloop
  endfacet
  facet normal 0 1 0
    outer loop
      vertex 11 11 11
      vertex 12 11 9
      vertex 11 11 9
    endloop
  endfacet
endsolid OpenSCAD_Model
